STARTFONT 2.3
FONT -FontForge-Bungee Shade-Book-R-Normal--10-100-72-72-P-85-ISO10646-1
SIZE 10 72 72  4
FONTBOUNDINGBOX 26 27 -6 -10
COMMENT "Generated by fontforge, http://fontforge.sourceforge.net"
COMMENT "Copyright 2008 The Bungee Project Authors (david@djr.com)"
STARTPROPERTIES 40
FOUNDRY "FontForge"
FAMILY_NAME "Bungee Shade"
WEIGHT_NAME "Book"
SLANT "R"
SETWIDTH_NAME "Normal"
ADD_STYLE_NAME ""
PIXEL_SIZE 10
POINT_SIZE 100
RESOLUTION_X 72
RESOLUTION_Y 72
SPACING "P"
AVERAGE_WIDTH 85
CHARSET_REGISTRY "ISO10646"
CHARSET_ENCODING "1"
FONTNAME_REGISTRY ""
CHARSET_COLLECTIONS "ISO8859-2 ISO8859-9 ISO8859-4 ISO10646-1"
BITS_PER_PIXEL 4
FONT_NAME "BungeeShade-Regular"
FACE_NAME "Bungee Shade"
COPYRIGHT "Copyright 2008 The Bungee Project Authors (david@djr.com)"
FONT_VERSION "1.000;PS 1.0;hotconv 1.0.72;makeotf.lib2.5.5900"
FONT_ASCENT 9
FONT_DESCENT 1
UNDERLINE_POSITION 0
UNDERLINE_THICKNESS 0
X_HEIGHT 7
CAP_HEIGHT 7
RAW_ASCENT 860
RAW_DESCENT 140
NORM_SPACE 3
RELATIVE_WEIGHT 40
RELATIVE_SETWIDTH 50
SUPERSCRIPT_X 0
SUPERSCRIPT_Y 3
SUPERSCRIPT_SIZE 6
SUBSCRIPT_X 0
SUBSCRIPT_Y 0
SUBSCRIPT_SIZE 6
AVG_LOWERCASE_WIDTH 81
AVG_UPPERCASE_WIDTH 83
ENDPROPERTIES
CHARS 1065
STARTCHAR space
ENCODING 32
SWIDTH 325 0
DWIDTH 3 0
BBX 1 1 0 0
BITMAP
00
ENDCHAR
STARTCHAR exclam
ENCODING 33
SWIDTH 524 0
DWIDTH 5 0
BBX 5 9 0 -1
BITMAP
072220
5F0120
6F1110
5F1110
5F3120
4F9820
2E0110
6F4430
5FFA00
ENDCHAR
STARTCHAR quotedbl
ENCODING 34
SWIDTH 746 0
DWIDTH 7 0
BBX 8 6 0 2
BITMAP
17228222
BA10B102
BA10B102
BB11C112
AFFDFF70
24214300
ENDCHAR
STARTCHAR numbersign
ENCODING 35
SWIDTH 850 0
DWIDTH 9 0
BBX 9 9 0 -1
BITMAP
0062362200
0481271110
3C03113120
8E52542510
5C41641300
8713113110
DD22A12700
8F55F44000
4FD7FC1000
ENDCHAR
STARTCHAR dollar
ENCODING 36
SWIDTH 750 0
DWIDTH 8 0
BBX 8 12 0 -3
BITMAP
00032200
00001130
16012120
8A20AD60
BB111010
AF731211
4CAA9011
49112212
BA001480
AFF71400
00FFC100
00331000
ENDCHAR
STARTCHAR percent
ENCODING 37
SWIDTH 1131 0
DWIDTH 11 0
BBX 12 9 0 -1
BITMAP
023346421000
58271D210000
C82A2A100000
C92217153210
CD3145171711
5EE8F2381A11
0004D1681011
0008C4BE7650
000AF77EE910
ENDCHAR
STARTCHAR ampersand
ENCODING 38
SWIDTH 866 0
DWIDTH 9 0
BBX 9 9 0 -1
BITMAP
0032222000
0841111000
2F317B1000
3F62052210
29100A1120
B813ED1030
DA11111100
BF74444300
3DFFFD5000
ENDCHAR
STARTCHAR quotesingle
ENCODING 39
SWIDTH 456 0
DWIDTH 5 0
BBX 5 6 0 2
BITMAP
172220
9B1020
AC1020
9C1120
9FF700
143000
ENDCHAR
STARTCHAR parenleft
ENCODING 40
SWIDTH 529 0
DWIDTH 5 0
BBX 6 12 0 -2
BITMAP
001220
051001
5A1211
B91160
C91100
C91100
C91100
C91100
BB1020
AF7411
4EFF80
013200
ENDCHAR
STARTCHAR parenright
ENCODING 41
SWIDTH 529 0
DWIDTH 5 0
BBX 6 12 0 -2
BITMAP
022210
590020
C91210
CFA211
3CA211
0BA211
0BA211
0BA211
083220
9A2420
CFE500
231000
ENDCHAR
STARTCHAR asterisk
ENCODING 42
SWIDTH 818 0
DWIDTH 8 0
BBX 8 8 0 0
BITMAP
00072300
026D2222
1C022112
6E834265
6CC22230
06A1B431
0DFBFC20
01706100
ENDCHAR
STARTCHAR plus
ENCODING 43
SWIDTH 834 0
DWIDTH 8 0
BBX 8 9 0 -1
BITMAP
00022200
003C1200
02572112
2B023221
8D112012
8FFD23E2
14AD1310
008FE400
00131000
ENDCHAR
STARTCHAR comma
ENCODING 44
SWIDTH 484 0
DWIDTH 5 0
BBX 5 6 0 -3
BITMAP
022210
6A1220
AE7220
8D1120
8FC700
484000
ENDCHAR
STARTCHAR hyphen
ENCODING 45
SWIDTH 520 0
DWIDTH 5 0
BBX 6 5 0 1
BITMAP
022220
681211
D91120
DFFF50
244200
ENDCHAR
STARTCHAR period
ENCODING 46
SWIDTH 484 0
DWIDTH 5 0
BBX 5 5 0 -1
BITMAP
022210
4A0020
AB0220
AC4420
9FF800
ENDCHAR
STARTCHAR slash
ENCODING 47
SWIDTH 487 0
DWIDTH 5 0
BBX 5 13 0 -3
BITMAP
002220
058010
0C6210
0E5210
1F3210
3F1210
5E0110
7C1110
9A1100
A81100
C71200
EFC100
331000
ENDCHAR
STARTCHAR zero
ENCODING 48
SWIDTH 827 0
DWIDTH 8 0
BBX 8 9 0 -1
BITMAP
00343421
19110022
7B10E811
AB10E911
AB10D911
AB11B721
AD022212
7FC64562
09EFEA10
ENDCHAR
STARTCHAR one
ENCODING 49
SWIDTH 701 0
DWIDTH 7 0
BBX 7 9 0 -1
BITMAP
07222200
7D111100
8FF21100
17F21100
04F21100
04811120
59122220
BB444430
BFFFFC10
ENDCHAR
STARTCHAR two
ENCODING 50
SWIDTH 739 0
DWIDTH 7 0
BBX 8 9 0 -1
BITMAP
07222220
6E122111
7FFE7101
15501210
28122510
A8118320
D8111101
DA444431
CFFFFE30
ENDCHAR
STARTCHAR three
ENCODING 51
SWIDTH 737 0
DWIDTH 7 0
BBX 8 9 0 -1
BITMAP
16222210
AA111110
BFDC2120
39712230
0E700111
0EEEB102
39111201
BB444430
BFFFD600
ENDCHAR
STARTCHAR four
ENCODING 52
SWIDTH 809 0
DWIDTH 8 0
BBX 8 9 0 -1
BITMAP
07225522
8C10E412
9C10E412
9C106212
9C021122
8F511012
3EFFF412
0134F843
0001FF90
ENDCHAR
STARTCHAR five
ENCODING 53
SWIDTH 747 0
DWIDTH 7 0
BBX 8 9 0 -1
BITMAP
07222230
8C111120
9C10AB50
9C111211
9C000012
9FEEC012
3A111201
AC444430
AFFFE600
ENDCHAR
STARTCHAR six
ENCODING 54
SWIDTH 793 0
DWIDTH 8 0
BBX 8 9 0 -1
BITMAP
00243330
19100020
7B20AB60
AB233122
AB20F512
AB104111
AD022212
7FC64551
19EFE800
ENDCHAR
STARTCHAR seven
ENCODING 55
SWIDTH 727 0
DWIDTH 7 0
BBX 7 9 0 -1
BITMAP
26222230
C9122210
DFFF9110
23540110
04512120
0E424700
2F412000
2F743000
1FFA0000
ENDCHAR
STARTCHAR eight
ENCODING 56
SWIDTH 811 0
DWIDTH 8 0
BBX 8 9 0 -1
BITMAP
00233321
09210022
3F21D412
4F434421
2A201021
9922F821
BC025312
AFA64562
2AEFEA20
ENDCHAR
STARTCHAR nine
ENCODING 57
SWIDTH 793 0
DWIDTH 8 0
BBX 8 9 0 -1
BITMAP
01233421
19101022
9912F311
BA104021
BE312121
6FECB211
08611202
0F844540
0EFFE800
ENDCHAR
STARTCHAR colon
ENCODING 58
SWIDTH 484 0
DWIDTH 5 0
BBX 5 9 0 -1
BITMAP
022210
4A0020
AB0120
AC5520
AE8710
4A0020
AB0220
AC4420
AFF800
ENDCHAR
STARTCHAR semicolon
ENCODING 59
SWIDTH 484 0
DWIDTH 5 0
BBX 5 10 0 -3
BITMAP
022210
5A0120
AB0020
AC5520
8D7610
7B1220
AE7220
8D1120
8FC700
484000
ENDCHAR
STARTCHAR less
ENCODING 60
SWIDTH 814 0
DWIDTH 8 0
BBX 8 8 0 -1
BITMAP
00000111
00221111
07121252
4E108C30
7F222121
5FE95211
05AEFFB2
00004830
ENDCHAR
STARTCHAR equal
ENCODING 61
SWIDTH 834 0
DWIDTH 8 0
BBX 8 8 0 -1
BITMAP
02111112
4C022221
8FAAAAA5
4B888872
2B022221
8D100001
8FFFFFE2
13333310
ENDCHAR
STARTCHAR greater
ENCODING 62
SWIDTH 814 0
DWIDTH 8 0
BBX 8 8 0 -1
BITMAP
06765100
4F112451
5F840112
2AEFC312
03312211
3E123750
5FAC9400
27300000
ENDCHAR
STARTCHAR question
ENCODING 63
SWIDTH 756 0
DWIDTH 8 0
BBX 8 9 0 -1
BITMAP
16222220
BA122101
CFEB8011
28711112
0EA35770
0DA67800
0C611100
0F943000
0EFD2000
ENDCHAR
STARTCHAR at
ENCODING 64
SWIDTH 967 0
DWIDTH 10 0
BBX 10 13 0 -3
BITMAP
0002111200
0130000020
0A1BFFFB21
7B46666A41
9B45262651
AB552F2651
AB552E2641
AB57222221
AC4E877730
8E43788500
4FC6322300
07EFFFE300
0003331000
ENDCHAR
STARTCHAR A
ENCODING 65
SWIDTH 830 0
DWIDTH 8 0
BBX 8 9 0 -1
BITMAP
00322220
03811101
0A317202
1D00D602
6B111121
AA101111
BA12FA11
BC44CC44
AFD2AFD2
ENDCHAR
STARTCHAR B
ENCODING 66
SWIDTH 825 0
DWIDTH 8 0
BBX 9 9 0 -1
BITMAP
0722222100
7D02111100
8D11D42200
8D12433200
8D11102100
8D11EB2010
8D02431100
8E44445200
7FFFFD5000
ENDCHAR
STARTCHAR C
ENCODING 67
SWIDTH 728 0
DWIDTH 7 0
BBX 8 9 0 -1
BITMAP
00222221
19022211
7B10EF60
AB104200
AB101000
AB102220
9E021101
6FB54431
09EFFD30
ENDCHAR
STARTCHAR D
ENCODING 68
SWIDTH 846 0
DWIDTH 8 0
BBX 9 9 0 -1
BITMAP
0722222200
7D02111100
8D10862010
8D10CC2010
8D10BC2010
8D10662010
8D02111100
8E44445200
7FFFFC3000
ENDCHAR
STARTCHAR E
ENCODING 69
SWIDTH 754 0
DWIDTH 8 0
BBX 8 9 0 -1
BITMAP
07222221
7D021101
8D10BC90
8D122110
8D105620
8D108621
8D021101
8E444441
7FFFFE50
ENDCHAR
STARTCHAR F
ENCODING 70
SWIDTH 718 0
DWIDTH 7 0
BBX 8 9 0 -1
BITMAP
07222221
7D021102
8D10DF70
8D102220
8D122120
8D10D900
8D004000
8E431000
7FE30000
ENDCHAR
STARTCHAR G
ENCODING 71
SWIDTH 808 0
DWIDTH 8 0
BBX 8 9 0 -1
BITMAP
00222221
19022212
7B20EF70
AB204522
AB20A711
AB207311
9E021111
6FB54443
09EFFFB1
ENDCHAR
STARTCHAR H
ENCODING 72
SWIDTH 859 0
DWIDTH 9 0
BBX 9 9 0 -1
BITMAP
0722272210
7D10AC1020
8D10661020
8D12223020
8D10111020
8D10DC1020
8D10BC1020
8E44AD4410
7FE48FE300
ENDCHAR
STARTCHAR I
ENCODING 73
SWIDTH 705 0
DWIDTH 7 0
BBX 7 9 0 -1
BITMAP
17222220
AB112220
AFF02830
27F02200
05F02200
05802220
5A112120
BC444430
AFFFFA10
ENDCHAR
STARTCHAR J
ENCODING 74
SWIDTH 788 0
DWIDTH 8 0
BBX 8 9 0 -1
BITMAP
00005322
0003F121
0004F121
0216F121
7814F121
C9217021
CB022202
9FA54640
1AEFD600
ENDCHAR
STARTCHAR K
ENCODING 75
SWIDTH 846 0
DWIDTH 8 0
BBX 9 9 0 -1
BITMAP
0722252300
7D10C11200
8D10521100
8D12221100
8D10542010
8D10DB2010
8D10CB1010
8E43BD4310
7FE49FE300
ENDCHAR
STARTCHAR L
ENCODING 76
SWIDTH 795 0
DWIDTH 8 0
BBX 8 9 0 -1
BITMAP
07221000
7D101000
8D101000
8D101311
8D10A711
8D107411
8D021111
8E444443
7FFFFFB1
ENDCHAR
STARTCHAR M
ENCODING 77
SWIDTH 949 0
DWIDTH 9 0
BBX 10 9 0 -1
BITMAP
0722104220
7D12191211
8D10232111
8D10221111
8D10808111
8D10EEA111
8D104BA111
8E431BC440
7FE30AFD30
ENDCHAR
STARTCHAR N
ENCODING 78
SWIDTH 853 0
DWIDTH 9 0
BBX 9 9 0 -1
BITMAP
0722272210
7D124B1010
8D10231010
8D10111010
8D10812010
8D10E52010
8D10EB1010
8E44BD4410
7FE49FD300
ENDCHAR
STARTCHAR O
ENCODING 79
SWIDTH 837 0
DWIDTH 8 0
BBX 9 9 0 -1
BITMAP
0023343100
1910002200
7B10E91110
AB10DA1110
AB10CA1110
AB11A82110
AD02221200
7FC6456200
09EFEA2000
ENDCHAR
STARTCHAR P
ENCODING 80
SWIDTH 782 0
DWIDTH 8 0
BBX 8 9 0 -1
BITMAP
07222221
7D021112
8D11E621
8D119321
8D121111
8D111131
8D11DD20
8E444000
7FE60000
ENDCHAR
STARTCHAR Q
ENCODING 81
SWIDTH 837 0
DWIDTH 8 0
BBX 9 11 0 -3
BITMAP
0022222200
0802221200
7B10D82110
AB10EA1110
AB10CA1110
AB10C91110
AC11002100
8F32321200
2DF8112000
00BFF50000
0023200000
ENDCHAR
STARTCHAR R
ENCODING 82
SWIDTH 843 0
DWIDTH 8 0
BBX 9 9 0 -1
BITMAP
0722222100
7D11310100
8D10E42100
8D10412300
8D12222110
8D10ED1110
8D10BD0010
8E438E4410
7FE37FE400
ENDCHAR
STARTCHAR S
ENCODING 83
SWIDTH 750 0
DWIDTH 8 0
BBX 8 9 0 -1
BITMAP
01222230
29011120
9A20BD60
BB111021
AF731211
3CAA9011
49111201
BC444430
AFFFE600
ENDCHAR
STARTCHAR T
ENCODING 84
SWIDTH 756 0
DWIDTH 8 0
BBX 8 9 0 -1
BITMAP
26222222
D7222212
EFF426B1
25F42300
02F42200
02F42200
02F41200
02F74300
01FFA000
ENDCHAR
STARTCHAR U
ENCODING 85
SWIDTH 846 0
DWIDTH 8 0
BBX 9 9 0 -1
BITMAP
0722272210
8C10AB2010
9C10CB2010
9C10CB2010
9C10CB2010
9C11542110
9E11221200
6FC6456200
08DFEB2000
ENDCHAR
STARTCHAR V
ENCODING 86
SWIDTH 830 0
DWIDTH 8 0
BBX 8 9 0 -1
BITMAP
16222723
9A20C911
BA20D911
BB20D922
AD01A422
8F422112
3FA11111
0CE44430
06FFF900
ENDCHAR
STARTCHAR W
ENCODING 87
SWIDTH 931 0
DWIDTH 9 0
BBX 9 9 0 -1
BITMAP
0722117220
8B201AA110
AB2037A110
AB20506110
AB20221110
AD11232110
9F222B1110
5F948F4410
0DFA6FE400
ENDCHAR
STARTCHAR X
ENCODING 88
SWIDTH 837 0
DWIDTH 8 0
BBX 8 9 0 -1
BITMAP
07222723
8C10B821
9F322112
5FB12211
0B421112
1B11B622
8B10FA11
AD44CC44
9FE3AFD2
ENDCHAR
STARTCHAR Y
ENCODING 89
SWIDTH 805 0
DWIDTH 8 0
BBX 8 9 0 -1
BITMAP
16232622
B911C811
C911D621
CD122112
AF902110
2EF52110
05F81200
00DA4300
00CFC100
ENDCHAR
STARTCHAR Z
ENCODING 90
SWIDTH 760 0
DWIDTH 8 0
BBX 8 9 0 -1
BITMAP
07222221
8C122201
9FFD1211
13931110
03511200
19111221
99111111
CB444441
BFFFFF60
ENDCHAR
STARTCHAR bracketleft
ENCODING 91
SWIDTH 529 0
DWIDTH 5 0
BBX 6 12 0 -2
BITMAP
022220
690001
B92211
C91160
C91100
C91100
C91100
C91100
C91120
CA2211
BFFF80
244200
ENDCHAR
STARTCHAR backslash
ENCODING 92
SWIDTH 487 0
DWIDTH 5 0
BBX 5 13 0 -3
BITMAP
032100
870200
E91200
CB1100
AD1020
9F0120
7F2220
5F3220
3F5220
1F7220
0EA120
0CFE30
023100
ENDCHAR
STARTCHAR bracketright
ENCODING 93
SWIDTH 529 0
DWIDTH 5 0
BBX 6 12 0 -2
BITMAP
022220
590011
C91311
CFA211
3CA211
0BA211
0BA211
0BA211
083211
9A1321
CFFF50
244200
ENDCHAR
STARTCHAR asciicircum
ENCODING 94
SWIDTH 814 0
DWIDTH 8 0
BBX 8 8 0 0
BITMAP
00222210
03912120
0A622220
0E22B111
4D12F422
8A14F812
BFD2EFD2
23102310
ENDCHAR
STARTCHAR underscore
ENCODING 95
SWIDTH 834 0
DWIDTH 8 0
BBX 8 5 0 -3
BITMAP
02222222
3B011111
8D111112
8FFFFFE3
14444420
ENDCHAR
STARTCHAR grave
ENCODING 96
SWIDTH 600 0
DWIDTH 6 0
BBX 6 4 0 6
BITMAP
041111
A81112
DFDBA4
257970
ENDCHAR
STARTCHAR a
ENCODING 97
SWIDTH 830 0
DWIDTH 8 0
BBX 8 9 0 -1
BITMAP
00322220
03811101
0A317202
1D00D602
6B111121
AA101111
BA12FA11
BC44CC44
AFD2AFD2
ENDCHAR
STARTCHAR b
ENCODING 98
SWIDTH 825 0
DWIDTH 8 0
BBX 9 9 0 -1
BITMAP
0722222100
7D02111100
8D11D42200
8D12433200
8D11102100
8D11EB2010
8D02431100
8E44445200
7FFFFD5000
ENDCHAR
STARTCHAR c
ENCODING 99
SWIDTH 728 0
DWIDTH 7 0
BBX 8 9 0 -1
BITMAP
00222221
19022211
7B10EF60
AB104200
AB101000
AB102220
9E021101
6FB54431
09EFFD30
ENDCHAR
STARTCHAR d
ENCODING 100
SWIDTH 846 0
DWIDTH 8 0
BBX 9 9 0 -1
BITMAP
0722222200
7D02111100
8D10862010
8D10CC2010
8D10BC2010
8D10662010
8D02111100
8E44445200
7FFFFC3000
ENDCHAR
STARTCHAR e
ENCODING 101
SWIDTH 754 0
DWIDTH 8 0
BBX 8 9 0 -1
BITMAP
07222221
7D021101
8D10BC90
8D122110
8D105620
8D108621
8D021101
8E444441
7FFFFE50
ENDCHAR
STARTCHAR f
ENCODING 102
SWIDTH 718 0
DWIDTH 7 0
BBX 8 9 0 -1
BITMAP
07222221
7D021102
8D10DF70
8D102220
8D122120
8D10D900
8D004000
8E431000
7FE30000
ENDCHAR
STARTCHAR g
ENCODING 103
SWIDTH 808 0
DWIDTH 8 0
BBX 8 9 0 -1
BITMAP
00222221
19022212
7B20EF70
AB204522
AB20A711
AB207311
9E021111
6FB54443
09EFFFB1
ENDCHAR
STARTCHAR h
ENCODING 104
SWIDTH 859 0
DWIDTH 9 0
BBX 9 9 0 -1
BITMAP
0722272210
7D10AC1020
8D10661020
8D12223020
8D10111020
8D10DC1020
8D10BC1020
8E44AD4410
7FE48FE300
ENDCHAR
STARTCHAR i
ENCODING 105
SWIDTH 705 0
DWIDTH 7 0
BBX 7 9 0 -1
BITMAP
17222220
AB112220
AFF02830
27F02200
05F02200
05802220
5A112120
BC444430
AFFFFA10
ENDCHAR
STARTCHAR j
ENCODING 106
SWIDTH 788 0
DWIDTH 8 0
BBX 8 9 0 -1
BITMAP
00005322
0003F121
0004F121
0216F121
7814F121
C9217021
CB022202
9FA54640
1AEFD600
ENDCHAR
STARTCHAR k
ENCODING 107
SWIDTH 846 0
DWIDTH 8 0
BBX 9 9 0 -1
BITMAP
0722252300
7D10C11200
8D10521100
8D12221100
8D10542010
8D10DB2010
8D10CB1010
8E43BD4310
7FE49FE300
ENDCHAR
STARTCHAR l
ENCODING 108
SWIDTH 795 0
DWIDTH 8 0
BBX 8 9 0 -1
BITMAP
07221000
7D101000
8D101000
8D101311
8D10A711
8D107411
8D021111
8E444443
7FFFFFB1
ENDCHAR
STARTCHAR m
ENCODING 109
SWIDTH 949 0
DWIDTH 9 0
BBX 10 9 0 -1
BITMAP
0722104220
7D12191211
8D10232111
8D10221111
8D10808111
8D10EEA111
8D104BA111
8E431BC440
7FE30AFD30
ENDCHAR
STARTCHAR n
ENCODING 110
SWIDTH 853 0
DWIDTH 9 0
BBX 9 9 0 -1
BITMAP
0722272210
7D124B1010
8D10231010
8D10111010
8D10812010
8D10E52010
8D10EB1010
8E44BD4410
7FE49FD300
ENDCHAR
STARTCHAR o
ENCODING 111
SWIDTH 837 0
DWIDTH 8 0
BBX 9 9 0 -1
BITMAP
0023343100
1910002200
7B10E91110
AB10DA1110
AB10CA1110
AB11A82110
AD02221200
7FC6456200
09EFEA2000
ENDCHAR
STARTCHAR p
ENCODING 112
SWIDTH 782 0
DWIDTH 8 0
BBX 8 9 0 -1
BITMAP
07222221
7D021112
8D11E621
8D119321
8D121111
8D111131
8D11DD20
8E444000
7FE60000
ENDCHAR
STARTCHAR q
ENCODING 113
SWIDTH 837 0
DWIDTH 8 0
BBX 9 11 0 -3
BITMAP
0022222200
0802221200
7B10D82110
AB10EA1110
AB10CA1110
AB10C91110
AC11002100
8F32321200
2DF8112000
00BFF50000
0023200000
ENDCHAR
STARTCHAR r
ENCODING 114
SWIDTH 843 0
DWIDTH 8 0
BBX 9 9 0 -1
BITMAP
0722222100
7D11310100
8D10E42100
8D10412300
8D12222110
8D10ED1110
8D10BD0010
8E438E4410
7FE37FE400
ENDCHAR
STARTCHAR s
ENCODING 115
SWIDTH 750 0
DWIDTH 8 0
BBX 8 9 0 -1
BITMAP
01222230
29011120
9A20BD60
BB111021
AF731211
3CAA9011
49111201
BC444430
AFFFE600
ENDCHAR
STARTCHAR t
ENCODING 116
SWIDTH 756 0
DWIDTH 8 0
BBX 8 9 0 -1
BITMAP
26222222
D7222212
EFF426B1
25F42300
02F42200
02F42200
02F41200
02F74300
01FFA000
ENDCHAR
STARTCHAR u
ENCODING 117
SWIDTH 846 0
DWIDTH 8 0
BBX 9 9 0 -1
BITMAP
0722272210
8C10AB2010
9C10CB2010
9C10CB2010
9C10CB2010
9C11542110
9E11221200
6FC6456200
08DFEB2000
ENDCHAR
STARTCHAR v
ENCODING 118
SWIDTH 830 0
DWIDTH 8 0
BBX 8 9 0 -1
BITMAP
16222723
9A20C911
BA20D911
BB20D922
AD01A422
8F422112
3FA11111
0CE44430
06FFF900
ENDCHAR
STARTCHAR w
ENCODING 119
SWIDTH 931 0
DWIDTH 9 0
BBX 9 9 0 -1
BITMAP
0722117220
8B201AA110
AB2037A110
AB20506110
AB20221110
AD11232110
9F222B1110
5F948F4410
0DFA6FE400
ENDCHAR
STARTCHAR x
ENCODING 120
SWIDTH 837 0
DWIDTH 8 0
BBX 8 9 0 -1
BITMAP
07222723
8C10B821
9F322112
5FB12211
0B421112
1B11B622
8B10FA11
AD44CC44
9FE3AFD2
ENDCHAR
STARTCHAR y
ENCODING 121
SWIDTH 805 0
DWIDTH 8 0
BBX 8 9 0 -1
BITMAP
16232622
B911C811
C911D621
CD122112
AF902110
2EF52110
05F81200
00DA4300
00CFC100
ENDCHAR
STARTCHAR z
ENCODING 122
SWIDTH 760 0
DWIDTH 8 0
BBX 8 9 0 -1
BITMAP
07222221
8C122201
9FFD1211
13931110
03511200
19111221
99111111
CB444441
BFFFFF60
ENDCHAR
STARTCHAR braceleft
ENCODING 123
SWIDTH 555 0
DWIDTH 6 0
BBX 6 12 0 -2
BITMAP
001221
014001
0C1211
4F0250
6E0220
762320
E81120
EF0220
7F1211
6FA412
1DFFB1
002300
ENDCHAR
STARTCHAR bar
ENCODING 124
SWIDTH 447 0
DWIDTH 4 0
BBX 5 13 0 -3
BITMAP
022200
3B0010
9C1010
9C1010
9C1010
9C1010
9C1010
9C1010
9C1010
9C1010
9D1110
9FF500
132000
ENDCHAR
STARTCHAR braceright
ENCODING 125
SWIDTH 555 0
DWIDTH 6 0
BBX 6 12 0 -2
BITMAP
022200
590020
C91210
CF8110
3D9211
0CD211
099112
0B9110
092120
9A2430
CFE500
231000
ENDCHAR
STARTCHAR asciitilde
ENCODING 126
SWIDTH 834 0
DWIDTH 8 0
BBX 8 4 0 2
BITMAP
00111111
19022111
8E686444
7DBDFE80
ENDCHAR
STARTCHAR uni00A0
ENCODING 160
SWIDTH 325 0
DWIDTH 3 0
BBX 1 1 0 0
BITMAP
00
ENDCHAR
STARTCHAR exclamdown
ENCODING 161
SWIDTH 523 0
DWIDTH 5 0
BBX 5 9 0 -1
BITMAP
062220
4F0110
6FBA30
3E2010
3F1110
5F1120
5F0120
6F4430
5FFA10
ENDCHAR
STARTCHAR cent
ENCODING 162
SWIDTH 728 0
DWIDTH 7 0
BBX 8 11 0 -3
BITMAP
00021140
00351070
05122221
5B10EF80
9B104200
AB102220
AE122101
8FD61041
2EFB1340
00BFE300
00232000
ENDCHAR
STARTCHAR sterling
ENCODING 163
SWIDTH 795 0
DWIDTH 8 0
BBX 9 9 -1 -1
BITMAP
0003222200
01B0211100
07D11BB100
0B52211000
1F51014220
0FC10B7110
09D0211110
08E4444430
07FFFFFB10
ENDCHAR
STARTCHAR currency
ENCODING 164
SWIDTH 921 0
DWIDTH 9 0
BBX 9 10 0 -2
BITMAP
0010000000
0201223110
5E42223140
6FA27E3200
0BA18F2200
0BA1362100
0922111210
5D27BAB220
7F9889F900
0300003000
ENDCHAR
STARTCHAR yen
ENCODING 165
SWIDTH 803 0
DWIDTH 8 0
BBX 8 9 0 -1
BITMAP
16221623
B911B812
CA11D612
BF313111
5F801021
1E123212
4FB51281
2AEA4520
00CFC100
ENDCHAR
STARTCHAR brokenbar
ENCODING 166
SWIDTH 447 0
DWIDTH 4 0
BBX 5 13 0 -3
BITMAP
022200
3B0010
9C1010
9C1010
9C1010
9D5400
6D8400
6C1010
9C1010
9C1010
9D1210
9FF500
132000
ENDCHAR
STARTCHAR section
ENCODING 167
SWIDTH 750 0
DWIDTH 8 0
BBX 8 9 0 -1
BITMAP
01243430
19218A70
9A211220
BB21A012
AF322221
5FB98011
2A011111
9D444520
8FFFD400
ENDCHAR
STARTCHAR dieresis
ENCODING 168
SWIDTH 600 0
DWIDTH 6 0
BBX 8 5 -1 6
BITMAP
00213120
09518111
1F509010
1FFEFF40
04424200
ENDCHAR
STARTCHAR copyright
ENCODING 169
SWIDTH 967 0
DWIDTH 10 0
BBX 10 13 0 -3
BITMAP
0002111200
0130000020
0A2CFFFB11
7B49322B51
9B581CCF51
AB58143F51
AB58123D51
AB5C311B51
AC2CFFDC21
9E40120020
5FC7434610
08EFFFD300
0003320000
ENDCHAR
STARTCHAR ordfeminine
ENCODING 170
SWIDTH 620 0
DWIDTH 6 0
BBX 7 9 0 -1
BITMAP
02433100
0C251100
5A172200
98211210
D8193210
D92E6210
DC788600
AA555410
DFFFE400
ENDCHAR
STARTCHAR guillemotleft
ENCODING 171
SWIDTH 912 0
DWIDTH 9 0
BBX 9 7 0 -1
BITMAP
0022122220
1712151120
8A12C51620
BC12171110
AFB62E9530
19DF8AED20
0001000000
ENDCHAR
STARTCHAR logicalnot
ENCODING 172
SWIDTH 834 0
DWIDTH 8 0
BBX 8 7 0 -1
BITMAP
02111112
5D122221
8FFFFC11
1444AC11
00008D12
00008FE3
00001310
ENDCHAR
STARTCHAR uni00AD
ENCODING 173
SWIDTH 520 0
DWIDTH 5 0
BBX 6 5 0 1
BITMAP
022220
681211
D91120
DFFF50
244200
ENDCHAR
STARTCHAR registered
ENCODING 174
SWIDTH 660 0
DWIDTH 7 0
BBX 7 7 0 1
BITMAP
029CD800
3B722A20
AB744920
AB766620
AC7BB610
7FA76100
06882000
ENDCHAR
STARTCHAR macron
ENCODING 175
SWIDTH 600 0
DWIDTH 6 0
BBX 6 4 0 6
BITMAP
021112
891112
DFFFE5
344420
ENDCHAR
STARTCHAR degree
ENCODING 176
SWIDTH 583 0
DWIDTH 6 0
BBX 6 6 0 2
BITMAP
023331
692621
C92D21
CB1112
AFDB81
178600
ENDCHAR
STARTCHAR plusminus
ENCODING 177
SWIDTH 834 0
DWIDTH 8 0
BBX 8 9 0 -1
BITMAP
00072300
007D2200
02572112
4C023211
8FA822A3
38871262
3C011111
8E444443
7FFFFFC1
ENDCHAR
STARTCHAR twosuperior
ENCODING 178
SWIDTH 585 0
DWIDTH 6 0
BBX 6 8 0 0
BITMAP
072331
7E9721
7E7212
171151
A82741
D91112
DFFFC2
344310
ENDCHAR
STARTCHAR threesuperior
ENCODING 179
SWIDTH 584 0
DWIDTH 6 0
BBX 6 8 0 0
BITMAP
273321
BEA411
5E4231
2EB912
3A1111
BA1110
BFFF50
243200
ENDCHAR
STARTCHAR acute
ENCODING 180
SWIDTH 600 0
DWIDTH 6 0
BBX 6 4 0 6
BITMAP
011112
471112
DC9BB3
886510
ENDCHAR
STARTCHAR mu
ENCODING 181
SWIDTH 813 0
DWIDTH 8 0
BBX 8 9 0 -2
BITMAP
02220222
4B006701
9C20E721
9C20F721
9C209421
9C222210
9C200001
9E77D910
7CB10000
ENDCHAR
STARTCHAR paragraph
ENCODING 182
SWIDTH 782 0
DWIDTH 8 0
BBX 8 9 0 -1
BITMAP
01222222
28111111
B8200021
D8200021
DB122221
BFB11321
2BF12611
05F55942
05FDEF60
ENDCHAR
STARTCHAR periodcentered
ENCODING 183
SWIDTH 464 0
DWIDTH 5 0
BBX 5 5 0 1
BITMAP
022210
690020
C91020
CB4420
BFF600
ENDCHAR
STARTCHAR cedilla
ENCODING 184
SWIDTH 600 0
DWIDTH 6 0
BBX 5 5 0 -3
BITMAP
005210
04A120
0A6120
1FFA00
033000
ENDCHAR
STARTCHAR onesuperior
ENCODING 185
SWIDTH 557 0
DWIDTH 6 0
BBX 6 8 0 0
BITMAP
072320
7C0120
9FB120
2CB120
097121
9A1112
BFFFB1
244300
ENDCHAR
STARTCHAR ordmasculine
ENCODING 186
SWIDTH 625 0
DWIDTH 6 0
BBX 7 9 0 -1
BITMAP
02334200
38173210
B81C5110
D81B5110
D9112010
DD412300
9C888200
6A555410
CFFFE400
ENDCHAR
STARTCHAR guillemotright
ENCODING 187
SWIDTH 912 0
DWIDTH 9 0
BBX 9 7 0 0
BITMAP
0241053000
4B47A65840
AC02260230
8FB11D6110
2B12161110
9C36D64500
9C82EB6000
ENDCHAR
STARTCHAR onequarter
ENCODING 188
SWIDTH 1303 0
DWIDTH 13 0
BBX 13 9 0 -1
BITMAP
07232162200000
9C012A61200000
7EB12E41525220
0AB13F2282D310
0A713C14826210
9A111616812310
BFFFF819C21210
0000B946BDF540
0000EF6004FC10
ENDCHAR
STARTCHAR onehalf
ENCODING 189
SWIDTH 1260 0
DWIDTH 13 0
BBX 13 9 0 -1
BITMAP
18232162200000
9C012A61100000
5DB12E41533300
0AB13F22A21210
09713C12C94110
9A111613621310
BFFFF819427210
2443C94C765520
0000EF7FFFF700
ENDCHAR
STARTCHAR threequarters
ENCODING 190
SWIDTH 1313 0
DWIDTH 13 0
BBX 13 9 0 -1
BITMAP
27332382200000
BEA41C82100000
5E423C52504100
2EB9173291B420
4A111622915220
BA112925A12320
BFFDBA27D21120
0000BA46BCF640
0000CF7003FD20
ENDCHAR
STARTCHAR questiondown
ENCODING 191
SWIDTH 756 0
DWIDTH 8 0
BBX 8 9 0 -1
BITMAP
00062220
006E0120
007E5320
01101110
38122330
B9118711
CB011111
BF944441
3DFFFF50
ENDCHAR
STARTCHAR Agrave
ENCODING 192
SWIDTH 830 0
DWIDTH 8 0
BBX 8 12 0 -1
BITMAP
00475310
05C7ACC0
0AB00000
06C13540
03711101
0A317202
1D00D602
6B111121
AA101111
BA12FA11
BC44CC44
AFD2AFD2
ENDCHAR
STARTCHAR Aacute
ENCODING 193
SWIDTH 830 0
DWIDTH 8 0
BBX 8 12 0 -1
BITMAP
00012450
01ACB970
09B00040
0AC43110
06911101
0A317202
1D00D602
6B111121
AA101111
BA12FA11
BC44CC44
AFD2AFD2
ENDCHAR
STARTCHAR Acircumflex
ENCODING 194
SWIDTH 830 0
DWIDTH 8 0
BBX 8 12 0 -1
BITMAP
00002210
00401120
08D8CB70
0AD00020
05811101
0A317202
1C00D601
6B111121
AA101111
BA12FA11
BC44CC44
AFD2AFD2
ENDCHAR
STARTCHAR Atilde
ENCODING 195
SWIDTH 830 0
DWIDTH 8 0
BBX 8 12 0 -1
BITMAP
00121120
01812220
0AB33130
0AF65540
05911111
0A417202
1D00D602
6B111121
AA101111
BA12FA11
BC44CC44
AFD2AFD2
ENDCHAR
STARTCHAR Adieresis
ENCODING 196
SWIDTH 830 0
DWIDTH 8 0
BBX 8 12 0 -1
BITMAP
00213211
06717111
0E708101
0EF76660
06A11111
0A417201
1D00D601
6B111121
AA101111
BA12FA11
BC44CC44
AFD2AFD2
ENDCHAR
STARTCHAR Aring
ENCODING 197
SWIDTH 830 0
DWIDTH 8 0
BBX 8 12 0 -1
BITMAP
00012210
00612220
08A2B521
0BC14320
0A811101
0B317202
1D00D602
6B111121
AA101111
BA12FA11
BC44CC44
AFD2AFD2
ENDCHAR
STARTCHAR AE
ENCODING 198
SWIDTH 1105 0
DWIDTH 11 0
BBX 11 9 0 -1
BITMAP
005222222220
068111211120
0C319812CC30
2D00C7222100
7B2222228800
AA1010128320
BA12F8111120
BC44DA444430
AFD2CFFFFB10
ENDCHAR
STARTCHAR Ccedilla
ENCODING 199
SWIDTH 728 0
DWIDTH 7 0
BBX 8 11 0 -3
BITMAP
00222221
19022211
7B10EF60
AB104200
AB101000
AB102220
9E121201
6FC61151
08E91520
00DFB100
00330000
ENDCHAR
STARTCHAR Egrave
ENCODING 200
SWIDTH 754 0
DWIDTH 8 0
BBX 8 12 0 -1
BITMAP
00553100
0999BC70
1F500000
0C112421
5D021101
8D10BC90
8D122110
8D105620
8D108621
8D021101
8E444441
7FFFFE50
ENDCHAR
STARTCHAR Eacute
ENCODING 201
SWIDTH 754 0
DWIDTH 8 0
BBX 8 12 0 -1
BITMAP
00012450
01ACB970
0A900040
0B143111
7D021101
8D10BC90
8D122110
8D105620
8D108621
8D021101
8E444441
7FFFFE50
ENDCHAR
STARTCHAR Ecircumflex
ENCODING 202
SWIDTH 754 0
DWIDTH 8 0
BBX 8 12 0 -1
BITMAP
00012200
01411120
0D98B840
0D222221
6D021101
8D10BC90
8D122110
8D105620
8D108621
8D021101
8E444441
7FFFFE50
ENDCHAR
STARTCHAR Edieresis
ENCODING 203
SWIDTH 754 0
DWIDTH 8 0
BBX 8 12 0 -1
BITMAP
00213120
09418110
2F509000
2E666662
4D021101
8D10BC90
8D122110
8D105620
8D108621
8D021101
8E444441
7FFFFE50
ENDCHAR
STARTCHAR Igrave
ENCODING 204
SWIDTH 705 0
DWIDTH 7 0
BBX 7 12 0 -1
BITMAP
01642100
1C79BC40
5F100000
3B113510
8B112220
AFF02830
27F02200
05F02200
05802220
5A112120
BC444430
AFFFFA10
ENDCHAR
STARTCHAR Iacute
ENCODING 205
SWIDTH 705 0
DWIDTH 7 0
BBX 7 12 0 -1
BITMAP
00023520
05CCA730
4F100220
5B432020
7B112220
AFF02830
27F02200
05F02200
05802220
5A112120
BC444430
AFFFFA10
ENDCHAR
STARTCHAR Icircumflex
ENCODING 206
SWIDTH 705 0
DWIDTH 7 0
BBX 7 12 0 -1
BITMAP
00012100
03111110
3E69A620
5B222220
8B112220
AFF02830
27F02200
05F02200
05802220
5A112120
BC444430
AFFFFA10
ENDCHAR
STARTCHAR Idieresis
ENCODING 207
SWIDTH 705 0
DWIDTH 7 0
BBX 7 12 0 -1
BITMAP
02123110
2B126120
8D027000
8D666650
8B112220
AFF02830
27F02200
05F02200
05802220
5A112120
BC444430
AFFFFA10
ENDCHAR
STARTCHAR Eth
ENCODING 208
SWIDTH 856 0
DWIDTH 9 0
BBX 10 9 -1 -1
BITMAP
0072222220
06E0211111
07E01BC102
0A5131D112
1F5011D112
0FE01AB102
08E0211111
07F4444520
06FFFFC400
ENDCHAR
STARTCHAR Ntilde
ENCODING 209
SWIDTH 853 0
DWIDTH 9 0
BBX 9 12 0 -1
BITMAP
0012112000
01A1220100
08D3311000
0923EC2210
7D124B1010
8D10231010
8D10111010
8D10812010
8D10E52010
8D10EB1010
8E44BD4410
7FE49FD300
ENDCHAR
STARTCHAR Ograve
ENCODING 210
SWIDTH 837 0
DWIDTH 8 0
BBX 9 12 0 -1
BITMAP
008CA86000
08D7ACD000
0AA5775000
0520135200
4B10002100
9B10E91110
AB10DA1110
AB10CA1110
AB11A82100
9E12221200
6FC6456100
08EFEA2000
ENDCHAR
STARTCHAR Oacute
ENCODING 211
SWIDTH 837 0
DWIDTH 8 0
BBX 9 12 0 -1
BITMAP
00279BC000
04ECB97000
0AA5779000
0815310200
4B10002100
9B10E91110
AB10DA1110
AB10CA1110
AB11A82100
9E12221200
6FC6456100
08EFEA2000
ENDCHAR
STARTCHAR Ocircumflex
ENCODING 212
SWIDTH 837 0
DWIDTH 8 0
BBX 9 12 0 -1
BITMAP
0002221000
0171112000
0AD7A96000
0962222300
4C10002200
9B10E91110
AB10DA1110
AB10CA1110
AB11A82100
9E12221200
6FC6456100
08EFEA2000
ENDCHAR
STARTCHAR Otilde
ENCODING 213
SWIDTH 837 0
DWIDTH 8 0
BBX 9 12 0 -1
BITMAP
0012112000
03A1221000
0AC3312000
0994333200
4D10002200
9B10E91110
AB10DA1110
AB10CA1110
AB11A82110
9D12221200
6FC6456200
08EFEA2000
ENDCHAR
STARTCHAR Odieresis
ENCODING 214
SWIDTH 837 0
DWIDTH 8 0
BBX 9 12 0 -1
BITMAP
0031321100
0971711100
0E80720100
0AB8667200
4D10002200
9B10E91110
AB10DA1110
AB10CA1110
AB11A82110
9D02221200
6FC6456200
08EFEB2000
ENDCHAR
STARTCHAR multiply
ENCODING 215
SWIDTH 834 0
DWIDTH 8 0
BBX 8 8 0 0
BITMAP
00110010
03202302
2E811111
2DF43120
03811111
0A30B603
3FE5FF71
06405B10
ENDCHAR
STARTCHAR Oslash
ENCODING 216
SWIDTH 837 0
DWIDTH 8 0
BBX 9 11 0 -2
BITMAP
0000021100
0024443200
1910145100
7B22B42110
AB23932110
AB22592110
AB354B2100
AE15221200
7F50456200
1FCBEA2000
1970000000
ENDCHAR
STARTCHAR Ugrave
ENCODING 217
SWIDTH 846 0
DWIDTH 8 0
BBX 9 12 0 -1
BITMAP
0035320000
04C7ACB000
0BB0000000
0920A74210
8C10AB2010
9C10CB2010
9C10CB2010
9C10CB2010
9C11542110
9E11221200
6FC6456200
08DFEB2000
ENDCHAR
STARTCHAR Uacute
ENCODING 218
SWIDTH 846 0
DWIDTH 8 0
BBX 9 12 0 -1
BITMAP
0000245000
008CBA7200
07D0004000
0815691210
8C10AB2010
9C10CB2010
9C10CB2010
9C10CB2010
9C11542110
9E11221200
6FC6456200
08DFEB2000
ENDCHAR
STARTCHAR Ucircumflex
ENCODING 219
SWIDTH 846 0
DWIDTH 8 0
BBX 9 12 0 -1
BITMAP
0001210000
0060111000
08EAED9100
0922CC2210
8C10AB2010
9C10CB2010
9C10CB2010
9C10CB2010
9C11762110
9E11221200
6FC6456200
08DFEB2000
ENDCHAR
STARTCHAR Udieresis
ENCODING 220
SWIDTH 846 0
DWIDTH 8 0
BBX 9 12 0 -1
BITMAP
0031221100
0781621100
0D90720000
1C67FD6710
8C10BB1010
9C10CB2010
9C10CB2010
9C10CB2010
9C11652110
9E11221200
6FC6456200
08DFEB2000
ENDCHAR
STARTCHAR Yacute
ENCODING 221
SWIDTH 805 0
DWIDTH 8 0
BBX 8 12 0 -1
BITMAP
00012450
01ACB970
0AA00040
18026712
B911C811
C911D621
CD122112
AF902110
2EF52110
05F81200
00DA4300
00CFC100
ENDCHAR
STARTCHAR Thorn
ENCODING 222
SWIDTH 792 0
DWIDTH 8 0
BBX 8 9 0 -1
BITMAP
07221000
7D101111
8D122212
8D10E611
8D108311
8D122211
8D100131
8E44EC20
7FE72000
ENDCHAR
STARTCHAR germandbls
ENCODING 223
SWIDTH 859 0
DWIDTH 9 0
BBX 9 9 0 -1
BITMAP
0722222100
7D02111200
8D01A11200
8D01C12110
8D01A00210
8D01DE1210
8D01A22010
8E44B44400
7FECFE8000
ENDCHAR
STARTCHAR agrave
ENCODING 224
SWIDTH 830 0
DWIDTH 8 0
BBX 8 12 0 -1
BITMAP
00475310
05C7ACC0
0AB00000
06C13540
03711101
0A317202
1D00D602
6B111121
AA101111
BA12FA11
BC44CC44
AFD2AFD2
ENDCHAR
STARTCHAR aacute
ENCODING 225
SWIDTH 830 0
DWIDTH 8 0
BBX 8 12 0 -1
BITMAP
00012450
01ACB970
09B00040
0AC43110
06911101
0A317202
1D00D602
6B111121
AA101111
BA12FA11
BC44CC44
AFD2AFD2
ENDCHAR
STARTCHAR acircumflex
ENCODING 226
SWIDTH 830 0
DWIDTH 8 0
BBX 8 12 0 -1
BITMAP
00002210
00401120
08D8CB70
0AD00020
05811101
0A317202
1C00D601
6B111121
AA101111
BA12FA11
BC44CC44
AFD2AFD2
ENDCHAR
STARTCHAR atilde
ENCODING 227
SWIDTH 830 0
DWIDTH 8 0
BBX 8 12 0 -1
BITMAP
00121120
01812220
0AB33130
0AF65540
05911111
0A417202
1D00D602
6B111121
AA101111
BA12FA11
BC44CC44
AFD2AFD2
ENDCHAR
STARTCHAR adieresis
ENCODING 228
SWIDTH 830 0
DWIDTH 8 0
BBX 8 12 0 -1
BITMAP
00213211
06717111
0E708101
0EF76660
06A11111
0A417201
1D00D601
6B111121
AA101111
BA12FA11
BC44CC44
AFD2AFD2
ENDCHAR
STARTCHAR aring
ENCODING 229
SWIDTH 830 0
DWIDTH 8 0
BBX 8 12 0 -1
BITMAP
00012210
00612220
08A2B521
0BC14320
0A811101
0B317202
1D00D602
6B111121
AA101111
BA12FA11
BC44CC44
AFD2AFD2
ENDCHAR
STARTCHAR ae
ENCODING 230
SWIDTH 1105 0
DWIDTH 11 0
BBX 11 9 0 -1
BITMAP
005222222220
068111211120
0C319812CC30
2D00C7222100
7B2222228800
AA1010128320
BA12F8111120
BC44DA444430
AFD2CFFFFB10
ENDCHAR
STARTCHAR ccedilla
ENCODING 231
SWIDTH 728 0
DWIDTH 7 0
BBX 8 11 0 -3
BITMAP
00222221
19022211
7B10EF60
AB104200
AB101000
AB102220
9E121201
6FC61151
08E91520
00DFB100
00330000
ENDCHAR
STARTCHAR egrave
ENCODING 232
SWIDTH 754 0
DWIDTH 8 0
BBX 8 12 0 -1
BITMAP
00553100
0999BC70
1F500000
0C112421
5D021101
8D10BC90
8D122110
8D105620
8D108621
8D021101
8E444441
7FFFFE50
ENDCHAR
STARTCHAR eacute
ENCODING 233
SWIDTH 754 0
DWIDTH 8 0
BBX 8 12 0 -1
BITMAP
00012450
01ACB970
0A900040
0B143111
7D021101
8D10BC90
8D122110
8D105620
8D108621
8D021101
8E444441
7FFFFE50
ENDCHAR
STARTCHAR ecircumflex
ENCODING 234
SWIDTH 754 0
DWIDTH 8 0
BBX 8 12 0 -1
BITMAP
00012200
01411120
0D98B840
0D222221
6D021101
8D10BC90
8D122110
8D105620
8D108621
8D021101
8E444441
7FFFFE50
ENDCHAR
STARTCHAR edieresis
ENCODING 235
SWIDTH 754 0
DWIDTH 8 0
BBX 8 12 0 -1
BITMAP
00213120
09418110
2F509000
2E666662
4D021101
8D10BC90
8D122110
8D105620
8D108621
8D021101
8E444441
7FFFFE50
ENDCHAR
STARTCHAR igrave
ENCODING 236
SWIDTH 705 0
DWIDTH 7 0
BBX 7 12 0 -1
BITMAP
01642100
1C79BC40
5F100000
3B113510
8B112220
AFF02830
27F02200
05F02200
05802220
5A112120
BC444430
AFFFFA10
ENDCHAR
STARTCHAR iacute
ENCODING 237
SWIDTH 705 0
DWIDTH 7 0
BBX 7 12 0 -1
BITMAP
00023520
05CCA730
4F100220
5B432020
7B112220
AFF02830
27F02200
05F02200
05802220
5A112120
BC444430
AFFFFA10
ENDCHAR
STARTCHAR icircumflex
ENCODING 238
SWIDTH 705 0
DWIDTH 7 0
BBX 7 12 0 -1
BITMAP
00012100
03111110
3E69A620
5B222220
8B112220
AFF02830
27F02200
05F02200
05802220
5A112120
BC444430
AFFFFA10
ENDCHAR
STARTCHAR idieresis
ENCODING 239
SWIDTH 705 0
DWIDTH 7 0
BBX 7 12 0 -1
BITMAP
02123110
2B126120
8D027000
8D666650
8B112220
AFF02830
27F02200
05F02200
05802220
5A112120
BC444430
AFFFFA10
ENDCHAR
STARTCHAR eth
ENCODING 240
SWIDTH 856 0
DWIDTH 9 0
BBX 10 9 -1 -1
BITMAP
0072222220
06E0211111
07E01BC102
0A5131D112
1F5011D112
0FE01AB102
08E0211111
07F4444520
06FFFFC400
ENDCHAR
STARTCHAR ntilde
ENCODING 241
SWIDTH 853 0
DWIDTH 9 0
BBX 9 12 0 -1
BITMAP
0012112000
01A1220100
08D3311000
0923EC2210
7D124B1010
8D10231010
8D10111010
8D10812010
8D10E52010
8D10EB1010
8E44BD4410
7FE49FD300
ENDCHAR
STARTCHAR ograve
ENCODING 242
SWIDTH 837 0
DWIDTH 8 0
BBX 9 12 0 -1
BITMAP
008CA86000
08D7ACD000
0AA5775000
0520135200
4B10002100
9B10E91110
AB10DA1110
AB10CA1110
AB11A82100
9E12221200
6FC6456100
08EFEA2000
ENDCHAR
STARTCHAR oacute
ENCODING 243
SWIDTH 837 0
DWIDTH 8 0
BBX 9 12 0 -1
BITMAP
00279BC000
04ECB97000
0AA5779000
0815310200
4B10002100
9B10E91110
AB10DA1110
AB10CA1110
AB11A82100
9E12221200
6FC6456100
08EFEA2000
ENDCHAR
STARTCHAR ocircumflex
ENCODING 244
SWIDTH 837 0
DWIDTH 8 0
BBX 9 12 0 -1
BITMAP
0002221000
0171112000
0AD7A96000
0962222300
4C10002200
9B10E91110
AB10DA1110
AB10CA1110
AB11A82100
9E12221200
6FC6456100
08EFEA2000
ENDCHAR
STARTCHAR otilde
ENCODING 245
SWIDTH 837 0
DWIDTH 8 0
BBX 9 12 0 -1
BITMAP
0012112000
03A1221000
0AC3312000
0994333200
4D10002200
9B10E91110
AB10DA1110
AB10CA1110
AB11A82110
9D12221200
6FC6456200
08EFEA2000
ENDCHAR
STARTCHAR odieresis
ENCODING 246
SWIDTH 837 0
DWIDTH 8 0
BBX 9 12 0 -1
BITMAP
0031321100
0971711100
0E80720100
0AB8667200
4D10002200
9B10E91110
AB10DA1110
AB10CA1110
AB11A82110
9D02221200
6FC6456200
08EFEB2000
ENDCHAR
STARTCHAR divide
ENCODING 247
SWIDTH 834 0
DWIDTH 8 0
BBX 8 9 0 -2
BITMAP
00032200
008A1010
02786622
3C022221
8FBA67B5
48CA1060
00BB0110
00BFF500
00232000
ENDCHAR
STARTCHAR oslash
ENCODING 248
SWIDTH 837 0
DWIDTH 8 0
BBX 9 11 0 -2
BITMAP
0000021100
0024443200
1910145100
7B22B42110
AB23932110
AB22592110
AB354B2100
AE15221200
7F50456200
1FCBEA2000
1970000000
ENDCHAR
STARTCHAR ugrave
ENCODING 249
SWIDTH 846 0
DWIDTH 8 0
BBX 9 12 0 -1
BITMAP
0035320000
04C7ACB000
0BB0000000
0920A74210
8C10AB2010
9C10CB2010
9C10CB2010
9C10CB2010
9C11542110
9E11221200
6FC6456200
08DFEB2000
ENDCHAR
STARTCHAR uacute
ENCODING 250
SWIDTH 846 0
DWIDTH 8 0
BBX 9 12 0 -1
BITMAP
0000245000
008CBA7200
07D0004000
0815691210
8C10AB2010
9C10CB2010
9C10CB2010
9C10CB2010
9C11542110
9E11221200
6FC6456200
08DFEB2000
ENDCHAR
STARTCHAR ucircumflex
ENCODING 251
SWIDTH 846 0
DWIDTH 8 0
BBX 9 12 0 -1
BITMAP
0001210000
0060111000
08EAED9100
0922CC2210
8C10AB2010
9C10CB2010
9C10CB2010
9C10CB2010
9C11762110
9E11221200
6FC6456200
08DFEB2000
ENDCHAR
STARTCHAR udieresis
ENCODING 252
SWIDTH 846 0
DWIDTH 8 0
BBX 9 12 0 -1
BITMAP
0031221100
0781621100
0D90720000
1C67FD6710
8C10BB1010
9C10CB2010
9C10CB2010
9C10CB2010
9C11652110
9E11221200
6FC6456200
08DFEB2000
ENDCHAR
STARTCHAR yacute
ENCODING 253
SWIDTH 805 0
DWIDTH 8 0
BBX 8 12 0 -1
BITMAP
00012450
01ACB970
0AA00040
18026712
B911C811
C911D621
CD122112
AF902110
2EF52110
05F81200
00DA4300
00CFC100
ENDCHAR
STARTCHAR thorn
ENCODING 254
SWIDTH 792 0
DWIDTH 8 0
BBX 8 9 0 -1
BITMAP
07221000
7D101111
8D122212
8D10E611
8D108311
8D122211
8D100131
8E44EC20
7FE72000
ENDCHAR
STARTCHAR ydieresis
ENCODING 255
SWIDTH 805 0
DWIDTH 8 0
BBX 8 12 0 -1
BITMAP
00313120
0A518111
1F509000
2C68FB66
B912C811
C911D621
CC023111
9F812110
1EF42110
05F81200
00DA4300
00CFC100
ENDCHAR
STARTCHAR Amacron
ENCODING 256
SWIDTH 830 0
DWIDTH 8 0
BBX 8 12 0 -1
BITMAP
00211120
02911110
0AB00010
0AF76650
05A11111
0A417202
1D00D601
6B111121
AA101111
BA12FA11
BC44CC44
AFD2AFD2
ENDCHAR
STARTCHAR amacron
ENCODING 257
SWIDTH 830 0
DWIDTH 8 0
BBX 8 12 0 -1
BITMAP
00211120
02911110
0AB00010
0AF76650
05A11111
0A417202
1D00D601
6B111121
AA101111
BA12FA11
BC44CC44
AFD2AFD2
ENDCHAR
STARTCHAR Abreve
ENCODING 258
SWIDTH 830 0
DWIDTH 8 0
BBX 8 12 0 -1
BITMAP
00221320
05A11210
0BE40100
08F66650
03911112
0A417203
1D00D602
6B111122
AA101111
BA12FA11
BC44CC44
AFD2AFD2
ENDCHAR
STARTCHAR abreve
ENCODING 259
SWIDTH 830 0
DWIDTH 8 0
BBX 8 12 0 -1
BITMAP
00221320
05A11210
0BE40100
08F66650
03911112
0A417203
1D00D602
6B111122
AA101111
BA12FA11
BC44CC44
AFD2AFD2
ENDCHAR
STARTCHAR Aogonek
ENCODING 260
SWIDTH 830 0
DWIDTH 8 0
BBX 8 12 0 -4
BITMAP
00322220
03811101
0A317202
1D00D602
6B111121
AA101111
BA12FA21
BC44C922
AFD2B723
0000DA12
0000DFF6
00001320
ENDCHAR
STARTCHAR aogonek
ENCODING 261
SWIDTH 830 0
DWIDTH 8 0
BBX 8 12 0 -4
BITMAP
00322220
03811101
0A317202
1D00D602
6B111121
AA101111
BA12FA21
BC44C922
AFD2B723
0000DA12
0000DFF6
00001320
ENDCHAR
STARTCHAR Cacute
ENCODING 262
SWIDTH 728 0
DWIDTH 7 0
BBX 8 12 0 -1
BITMAP
00002450
009CBA71
08C00040
09833111
07022211
5B10EF60
9B104200
AB101000
AB102220
AE021101
7FB54431
1AEFFD30
ENDCHAR
STARTCHAR cacute
ENCODING 263
SWIDTH 728 0
DWIDTH 7 0
BBX 8 12 0 -1
BITMAP
00002450
009CBA71
08C00040
09833111
07022211
5B10EF60
9B104200
AB101000
AB102220
AE021101
7FB54431
1AEFFD30
ENDCHAR
STARTCHAR Ccircumflex
ENCODING 264
SWIDTH 728 0
DWIDTH 7 0
BBX 8 12 0 -1
BITMAP
00012200
00411120
0BA7B840
0D932221
08022211
5B10EF60
9B104200
AB101000
AB102220
AE021101
7FB54431
1AEFFD30
ENDCHAR
STARTCHAR ccircumflex
ENCODING 265
SWIDTH 728 0
DWIDTH 7 0
BBX 8 12 0 -1
BITMAP
00012200
00411120
0BA7B840
0D932221
08022211
5B10EF60
9B104200
AB101000
AB102220
AE021101
7FB54431
1AEFFD30
ENDCHAR
STARTCHAR Cdotaccent
ENCODING 266
SWIDTH 728 0
DWIDTH 7 0
BBX 8 12 0 -1
BITMAP
00021200
00781100
00C90000
00732221
19022211
7B10EF60
AB104200
AB101000
AB102220
9E021101
6FB54431
09EFFD30
ENDCHAR
STARTCHAR cdotaccent
ENCODING 267
SWIDTH 728 0
DWIDTH 7 0
BBX 8 12 0 -1
BITMAP
00021200
00781100
00C90000
00732221
19022211
7B10EF60
AB104200
AB101000
AB102220
9E021101
6FB54431
09EFFD30
ENDCHAR
STARTCHAR Ccaron
ENCODING 268
SWIDTH 728 0
DWIDTH 7 0
BBX 8 12 0 -1
BITMAP
01612230
0C812110
0DE71510
07932221
07022211
6B10EF60
9B104200
AB101000
AB102220
AE021101
7FB54431
1AEFFD30
ENDCHAR
STARTCHAR ccaron
ENCODING 269
SWIDTH 728 0
DWIDTH 7 0
BBX 8 12 0 -1
BITMAP
01612230
0C812110
0DE71510
07932221
07022211
6B10EF60
9B104200
AB101000
AB102220
AE021101
7FB54431
1AEFFD30
ENDCHAR
STARTCHAR Dcaron
ENCODING 270
SWIDTH 846 0
DWIDTH 8 0
BBX 9 12 0 -1
BITMAP
0071222100
07C1221100
09F9232000
0811112200
6D02111100
8D10862010
8D10CC2010
8D10BC2010
8D10662010
8D02111100
8E44445200
7FFFFC3000
ENDCHAR
STARTCHAR dcaron
ENCODING 271
SWIDTH 846 0
DWIDTH 8 0
BBX 9 12 0 -1
BITMAP
0071222100
07C1221100
09F9232000
0811112200
6D02111100
8D10862010
8D10CC2010
8D10BC2010
8D10662010
8D02111100
8E44445200
7FFFFC3000
ENDCHAR
STARTCHAR Dcroat
ENCODING 272
SWIDTH 856 0
DWIDTH 9 0
BBX 10 9 -1 -1
BITMAP
0072222220
06E0211111
07E01BC102
0A5131D112
1F5011D112
0FE01AB102
08E0211111
07F4444520
06FFFFC400
ENDCHAR
STARTCHAR dcroat
ENCODING 273
SWIDTH 856 0
DWIDTH 9 0
BBX 10 9 -1 -1
BITMAP
0072222220
06E0211111
07E01BC102
0A5131D112
1F5011D112
0FE01AB102
08E0211111
07F4444520
06FFFFC400
ENDCHAR
STARTCHAR Emacron
ENCODING 274
SWIDTH 754 0
DWIDTH 8 0
BBX 8 12 0 -1
BITMAP
00211110
06611110
0E700000
0D222221
5D021101
8D10BC90
8D122110
8D105620
8D108621
8D021101
8E444441
7FFFFE50
ENDCHAR
STARTCHAR emacron
ENCODING 275
SWIDTH 754 0
DWIDTH 8 0
BBX 8 12 0 -1
BITMAP
00211110
06611110
0E700000
0D222221
5D021101
8D10BC90
8D122110
8D105620
8D108621
8D021101
8E444441
7FFFFE50
ENDCHAR
STARTCHAR Ebreve
ENCODING 276
SWIDTH 754 0
DWIDTH 8 0
BBX 8 12 0 -1
BITMAP
00321320
08721210
0EC30100
0A222221
6D021101
8D10BC90
8D122110
8D105620
8D108621
8D021101
8E444441
7FFFFE50
ENDCHAR
STARTCHAR ebreve
ENCODING 277
SWIDTH 754 0
DWIDTH 8 0
BBX 8 12 0 -1
BITMAP
00321320
08721210
0EC30100
0A222221
6D021101
8D10BC90
8D122110
8D105620
8D108621
8D021101
8E444441
7FFFFE50
ENDCHAR
STARTCHAR Edotaccent
ENCODING 278
SWIDTH 754 0
DWIDTH 8 0
BBX 8 12 0 -1
BITMAP
00031100
00B41100
02F40000
07222221
7D021101
8D10BC90
8D122110
8D105620
8D108621
8D021101
8E444441
7FFFFE50
ENDCHAR
STARTCHAR edotaccent
ENCODING 279
SWIDTH 754 0
DWIDTH 8 0
BBX 8 12 0 -1
BITMAP
00031100
00B41100
02F40000
07222221
7D021101
8D10BC90
8D122110
8D105620
8D108621
8D021101
8E444441
7FFFFE50
ENDCHAR
STARTCHAR Eogonek
ENCODING 280
SWIDTH 754 0
DWIDTH 8 0
BBX 8 12 0 -4
BITMAP
07222221
7D021101
8D10BC90
8D122110
8D105620
8D108621
8D021201
8E443122
7FFFB241
0009D212
0008FF90
00003300
ENDCHAR
STARTCHAR eogonek
ENCODING 281
SWIDTH 754 0
DWIDTH 8 0
BBX 8 12 0 -4
BITMAP
07222221
7D021101
8D10BC90
8D122110
8D105620
8D108621
8D021201
8E443122
7FFFB241
0009D212
0008FF90
00003300
ENDCHAR
STARTCHAR Ecaron
ENCODING 282
SWIDTH 754 0
DWIDTH 8 0
BBX 8 12 0 -1
BITMAP
01612230
0C712110
0EE71510
0A222221
6D021101
8D10BC90
8D122110
8D105620
8D108621
8D021101
8E444441
7FFFFE50
ENDCHAR
STARTCHAR ecaron
ENCODING 283
SWIDTH 754 0
DWIDTH 8 0
BBX 8 12 0 -1
BITMAP
01612230
0C712110
0EE71510
0A222221
6D021101
8D10BC90
8D122110
8D105620
8D108621
8D021101
8E444441
7FFFFE50
ENDCHAR
STARTCHAR Gcircumflex
ENCODING 284
SWIDTH 808 0
DWIDTH 8 0
BBX 8 12 0 -1
BITMAP
00001210
00401111
05E8CB71
08700002
06022211
5B20EF60
9B204522
AB20A711
AB207311
AE021111
7FB54443
1AEFFFB1
ENDCHAR
STARTCHAR gcircumflex
ENCODING 285
SWIDTH 808 0
DWIDTH 8 0
BBX 8 12 0 -1
BITMAP
00001210
00401111
05E8CB71
08700002
06022211
5B20EF60
9B204522
AB20A711
AB207311
AE021111
7FB54443
1AEFFFB1
ENDCHAR
STARTCHAR Gbreve
ENCODING 286
SWIDTH 808 0
DWIDTH 8 0
BBX 8 12 0 -1
BITMAP
00221321
05B11211
0AE41100
06932221
06022212
6B20EF70
9B204522
AB20A711
AB207311
AE021111
7FB54443
1AEFFFB1
ENDCHAR
STARTCHAR gbreve
ENCODING 287
SWIDTH 808 0
DWIDTH 8 0
BBX 8 12 0 -1
BITMAP
00221321
05B11211
0AE41100
06932221
06022212
6B20EF70
9B204522
AB20A711
AB207311
AE021111
7FB54443
1AEFFFB1
ENDCHAR
STARTCHAR Gdotaccent
ENCODING 288
SWIDTH 808 0
DWIDTH 8 0
BBX 8 12 0 -1
BITMAP
00021110
004B1020
00AC0010
00532221
08022212
6B20EF70
AB204522
AB20A711
AB207311
AE021111
7FB54443
1AEFFFB1
ENDCHAR
STARTCHAR gdotaccent
ENCODING 289
SWIDTH 808 0
DWIDTH 8 0
BBX 8 12 0 -1
BITMAP
00021110
004B1020
00AC0010
00532221
08022212
6B20EF70
AB204522
AB20A711
AB207311
AE021111
7FB54443
1AEFFFB1
ENDCHAR
STARTCHAR Gcommaaccent
ENCODING 290
SWIDTH 808 0
DWIDTH 8 0
BBX 8 13 0 -5
BITMAP
00233321
09100112
7B20EF70
AB204522
AB20A711
AC107311
AF321111
7FFB77B8
09EB11B1
008B0220
009D3410
007FD500
00372000
ENDCHAR
STARTCHAR gcommaaccent
ENCODING 291
SWIDTH 808 0
DWIDTH 8 0
BBX 8 13 0 -5
BITMAP
00233321
09100112
7B20EF70
AB204522
AB20A711
AC107311
AF321111
7FFB77B8
09EB11B1
008B0220
009D3410
007FD500
00372000
ENDCHAR
STARTCHAR Hcircumflex
ENCODING 292
SWIDTH 859 0
DWIDTH 9 0
BBX 9 12 0 -1
BITMAP
0001221000
0061221100
07D5984100
0922BC2210
7D10AC1020
8D10661020
8D12223020
8D10111020
8D10DC1020
8D10BC1020
8E44AD4410
7FE48FE300
ENDCHAR
STARTCHAR hcircumflex
ENCODING 293
SWIDTH 859 0
DWIDTH 9 0
BBX 9 12 0 -1
BITMAP
0001221000
0061221100
07D5984100
0922BC2210
7D10AC1020
8D10661020
8D12223020
8D10111020
8D10DC1020
8D10BC1020
8E44AD4410
7FE48FE300
ENDCHAR
STARTCHAR Hbar
ENCODING 294
SWIDTH 879 0
DWIDTH 9 0
BBX 9 9 0 -1
BITMAP
0622162210
5B01380120
9713222220
EE01AB0130
AE01000110
7E03222110
7E01CE0110
7F439E4410
6FE46FE400
ENDCHAR
STARTCHAR hbar
ENCODING 295
SWIDTH 879 0
DWIDTH 9 0
BBX 9 9 0 -1
BITMAP
0622162210
5B01380120
9713222220
EE01AB0130
AE01000110
7E03222110
7E01CE0110
7F439E4410
6FE46FE400
ENDCHAR
STARTCHAR Itilde
ENCODING 296
SWIDTH 705 0
DWIDTH 7 0
BBX 7 12 0 -1
BITMAP
00221210
09122110
4F341100
5B222220
8B112220
AFF02830
27F02200
05F02200
05802220
5A112120
BC444430
AFFFFA10
ENDCHAR
STARTCHAR itilde
ENCODING 297
SWIDTH 705 0
DWIDTH 7 0
BBX 7 12 0 -1
BITMAP
00221210
09122110
4F341100
5B222220
8B112220
AFF02830
27F02200
05F02200
05802220
5A112120
BC444430
AFFFFA10
ENDCHAR
STARTCHAR Imacron
ENCODING 298
SWIDTH 705 0
DWIDTH 7 0
BBX 7 12 0 -1
BITMAP
01211110
0B111010
4F200000
5D666650
7B112220
AFF02830
27F02200
05F02200
05802220
5A112120
BC444430
AFFFFA10
ENDCHAR
STARTCHAR imacron
ENCODING 299
SWIDTH 705 0
DWIDTH 7 0
BBX 7 12 0 -1
BITMAP
01211110
0B111010
4F200000
5D666650
7B112220
AFF02830
27F02200
05F02200
05802220
5A112120
BC444430
AFFFFA10
ENDCHAR
STARTCHAR Ibreve
ENCODING 300
SWIDTH 705 0
DWIDTH 7 0
BBX 7 12 0 -1
BITMAP
01212210
2D111110
6F711100
2B222220
8B112220
AFF02830
27F02200
05F02200
05802220
5A112120
BC444430
AFFFFA10
ENDCHAR
STARTCHAR ibreve
ENCODING 301
SWIDTH 705 0
DWIDTH 7 0
BBX 7 12 0 -1
BITMAP
01212210
2D111110
6F711100
2B222220
8B112220
AFF02830
27F02200
05F02200
05802220
5A112120
BC444430
AFFFFA10
ENDCHAR
STARTCHAR Iogonek
ENCODING 302
SWIDTH 705 0
DWIDTH 7 0
BBX 7 12 0 -4
BITMAP
17222220
AB112220
AFF02830
27F02200
05F02200
05802220
5A112220
BC441240
AFFF3340
003F6120
002FFE30
00024100
ENDCHAR
STARTCHAR iogonek
ENCODING 303
SWIDTH 705 0
DWIDTH 7 0
BBX 7 12 0 -4
BITMAP
17222220
AB112220
AFF02830
27F02200
05F02200
05802220
5A112220
BC441240
AFFF3340
003F6120
002FFE30
00024100
ENDCHAR
STARTCHAR Idotaccent
ENCODING 304
SWIDTH 705 0
DWIDTH 7 0
BBX 7 12 0 -1
BITMAP
00121100
02D01200
05F10000
17222220
AB112220
AFF02830
27F02200
05F02200
05802220
5A112120
BC444430
AFFFFA10
ENDCHAR
STARTCHAR dotlessi
ENCODING 305
SWIDTH 705 0
DWIDTH 7 0
BBX 7 9 0 -1
BITMAP
17222220
AB112220
AFF02830
27F02200
05F02200
05802220
5A112120
BC444430
AFFFFA10
ENDCHAR
STARTCHAR IJ
ENCODING 306
SWIDTH 844 0
DWIDTH 8 0
BBX 9 9 0 -1
BITMAP
0722272200
7D10CA2110
8D10DA2110
8D10DA2110
8FA7EA2110
4A82842100
3C01111100
8E44445100
7FFFFB2000
ENDCHAR
STARTCHAR ij
ENCODING 307
SWIDTH 844 0
DWIDTH 8 0
BBX 9 9 0 -1
BITMAP
0722272200
7D10CA2110
8D10DA2110
8D10DA2110
8FA7EA2110
4A82842100
3C01111100
8E44445100
7FFFFB2000
ENDCHAR
STARTCHAR Jcircumflex
ENCODING 308
SWIDTH 788 0
DWIDTH 8 0
BBX 9 12 0 -1
BITMAP
0000122100
0006111110
004F8BC920
004BD20300
0004F12100
0004F12100
0216F12100
7814F12100
C921702100
CB02220200
9FA5464000
1AEFD60000
ENDCHAR
STARTCHAR jcircumflex
ENCODING 309
SWIDTH 788 0
DWIDTH 8 0
BBX 9 12 0 -1
BITMAP
0000122100
0006111110
004F8BC920
004BD20300
0004F12100
0004F12100
0216F12100
7814F12100
C921702100
CB02220200
9FA5464000
1AEFD60000
ENDCHAR
STARTCHAR Kcommaaccent
ENCODING 310
SWIDTH 846 0
DWIDTH 8 0
BBX 9 13 0 -5
BITMAP
0722252300
7D10C11200
8D10521100
8D12221100
8D10542010
8D10DB2010
8D10BB1010
8E46764310
7FFE11D300
00AB011000
009D341000
007FD50000
0037200000
ENDCHAR
STARTCHAR kcommaaccent
ENCODING 311
SWIDTH 846 0
DWIDTH 8 0
BBX 9 13 0 -5
BITMAP
0722252300
7D10C11200
8D10521100
8D12221100
8D10542010
8D10DB2010
8D10BB1010
8E46764310
7FFE11D300
00AB011000
009D341000
007FD50000
0037200000
ENDCHAR
STARTCHAR kgreenlandic
ENCODING 312
SWIDTH 846 0
DWIDTH 8 0
BBX 9 9 0 -1
BITMAP
0722252300
7D10C11200
8D10521100
8D12221100
8D10542010
8D10DB2010
8D10CB1010
8E43BD4310
7FE49FE300
ENDCHAR
STARTCHAR Lacute
ENCODING 313
SWIDTH 795 0
DWIDTH 8 0
BBX 8 12 0 -1
BITMAP
00134600
09CBA720
7D000400
7C644100
7D101000
8D101000
8D101311
8D10A711
8D107411
8D021111
8E444443
7FFFFFB1
ENDCHAR
STARTCHAR lacute
ENCODING 314
SWIDTH 795 0
DWIDTH 8 0
BBX 8 12 0 -1
BITMAP
00134600
09CBA720
7D000400
7C644100
7D101000
8D101000
8D101311
8D10A711
8D107411
8D021111
8E444443
7FFFFFB1
ENDCHAR
STARTCHAR Lcommaaccent
ENCODING 315
SWIDTH 795 0
DWIDTH 8 0
BBX 8 13 0 -5
BITMAP
07221000
7D101000
8D101000
8D101311
8D10A711
8D107411
8D021111
8FBA77B8
7FF911B1
00A90210
00BC3400
009FD400
00472000
ENDCHAR
STARTCHAR lcommaaccent
ENCODING 316
SWIDTH 795 0
DWIDTH 8 0
BBX 8 13 0 -5
BITMAP
07221000
7D101000
8D101000
8D101311
8D10A711
8D107411
8D021111
8FBA77B8
7FF911B1
00A90210
00BC3400
009FD400
00472000
ENDCHAR
STARTCHAR Lcaron
ENCODING 317
SWIDTH 795 0
DWIDTH 8 0
BBX 8 9 0 -1
BITMAP
07223522
7D10D522
8D10D521
8D10DC61
8D10A711
8D107411
8D021111
8E444443
7FFFFFB1
ENDCHAR
STARTCHAR lcaron
ENCODING 318
SWIDTH 795 0
DWIDTH 8 0
BBX 8 9 0 -1
BITMAP
07223522
7D10D522
8D10D521
8D10DC61
8D10A711
8D107411
8D021111
8E444443
7FFFFFB1
ENDCHAR
STARTCHAR Ldot
ENCODING 319
SWIDTH 795 0
DWIDTH 8 0
BBX 8 9 0 -1
BITMAP
07221000
7D102322
8D10B612
8D10D823
8D10DC82
8D106511
8D021111
8E444443
7FFFFFB1
ENDCHAR
STARTCHAR ldot
ENCODING 320
SWIDTH 795 0
DWIDTH 8 0
BBX 8 9 0 -1
BITMAP
07221000
7D102322
8D10B612
8D10D823
8D10DC82
8D106511
8D021111
8E444443
7FFFFFB1
ENDCHAR
STARTCHAR Lslash
ENCODING 321
SWIDTH 805 0
DWIDTH 8 0
BBX 9 9 -1 -1
BITMAP
0072220000
06E0120000
07C0121000
0951304110
1F901B9110
0DE0175110
07E0211210
07F4444430
06FFFFFC10
ENDCHAR
STARTCHAR lslash
ENCODING 322
SWIDTH 805 0
DWIDTH 8 0
BBX 9 9 -1 -1
BITMAP
0072220000
06E0120000
07C0121000
0951304110
1F901B9110
0DE0175110
07E0211210
07F4444430
06FFFFFC10
ENDCHAR
STARTCHAR Nacute
ENCODING 323
SWIDTH 853 0
DWIDTH 9 0
BBX 9 12 0 -1
BITMAP
0000245100
007CBA7200
06E0003000
0813691210
7D124B1010
8D10231010
8D10111010
8D10812010
8D10E52010
8D10EB1010
8E44BD4410
7FE49FD300
ENDCHAR
STARTCHAR nacute
ENCODING 324
SWIDTH 853 0
DWIDTH 9 0
BBX 9 12 0 -1
BITMAP
0000245100
007CBA7200
06E0003000
0813691210
7D124B1010
8D10231010
8D10111010
8D10812010
8D10E52010
8D10EB1010
8E44BD4410
7FE49FD300
ENDCHAR
STARTCHAR Ncommaaccent
ENCODING 325
SWIDTH 853 0
DWIDTH 9 0
BBX 9 13 0 -5
BITMAP
0722272210
7D124B1010
8D10231010
8D10111010
8D10812010
8D10E52010
8D10EB1010
8E46764410
7FFE11D300
00AB012000
008D341000
007FD50000
0037300000
ENDCHAR
STARTCHAR ncommaaccent
ENCODING 326
SWIDTH 853 0
DWIDTH 9 0
BBX 9 13 0 -5
BITMAP
0722272210
7D124B1010
8D10231010
8D10111010
8D10812010
8D10E52010
8D10EB1010
8E46764410
7FFE11D300
00AB012000
008D341000
007FD50000
0037300000
ENDCHAR
STARTCHAR Ncaron
ENCODING 327
SWIDTH 853 0
DWIDTH 9 0
BBX 9 12 0 -1
BITMAP
0031123000
08B1221000
0AF9241000
0923BA2210
7D124B1010
8D10231010
8D10111010
8D10812010
8D10E52010
8D10EB1010
8E44BD4410
7FE49FD300
ENDCHAR
STARTCHAR ncaron
ENCODING 328
SWIDTH 853 0
DWIDTH 9 0
BBX 9 12 0 -1
BITMAP
0031123000
08B1221000
0AF9241000
0923BA2210
7D124B1010
8D10231010
8D10111010
8D10812010
8D10E52010
8D10EB1010
8E44BD4410
7FE49FD300
ENDCHAR
STARTCHAR napostrophe
ENCODING 329
SWIDTH 853 0
DWIDTH 9 0
BBX 9 13 0 -1
BITMAP
0211000000
5A11100000
AE62100000
9D11000000
8E55285510
7D125B1010
8D10231010
8D10111010
8D10812010
8D10E52010
8D10EB1010
8E44BD4410
7FE49FD300
ENDCHAR
STARTCHAR Eng
ENCODING 330
SWIDTH 846 0
DWIDTH 8 0
BBX 9 10 0 -2
BITMAP
0033343100
0911002100
6C10D92110
9C10DA2010
9C10CA2010
9C10CA2010
9C10B72110
9D44A11200
8FEDC56200
0009EB3000
ENDCHAR
STARTCHAR eng
ENCODING 331
SWIDTH 846 0
DWIDTH 8 0
BBX 9 10 0 -2
BITMAP
0033343100
0911002100
6C10D92110
9C10DA2010
9C10CA2010
9C10CA2010
9C10B72110
9D44A11200
8FEDC56200
0009EB3000
ENDCHAR
STARTCHAR Omacron
ENCODING 332
SWIDTH 837 0
DWIDTH 8 0
BBX 9 12 0 -1
BITMAP
0021112000
05B1111000
0AC0001000
08B8666100
4D10002200
9B10E91110
AB10DA1110
AB10CA1110
AB11A82110
9D02221200
6FC6456200
08EFEB2000
ENDCHAR
STARTCHAR omacron
ENCODING 333
SWIDTH 837 0
DWIDTH 8 0
BBX 9 12 0 -1
BITMAP
0021112000
05B1111000
0AC0001000
08B8666100
4D10002200
9B10E91110
AB10DA1110
AB10CA1110
AB11A82110
9D02221200
6FC6456200
08EFEB2000
ENDCHAR
STARTCHAR Obreve
ENCODING 334
SWIDTH 837 0
DWIDTH 8 0
BBX 9 12 0 -1
BITMAP
0032132000
07A1111100
0AE4113000
05B7563100
3D10002200
9B10E91110
AB10DA1110
AB10CA1110
AB11A82110
9D02221200
6FC6456200
08EFEB2000
ENDCHAR
STARTCHAR obreve
ENCODING 335
SWIDTH 837 0
DWIDTH 8 0
BBX 9 12 0 -1
BITMAP
0032132000
07A1111100
0AE4113000
05B7563100
3D10002200
9B10E91110
AB10DA1110
AB10CA1110
AB11A82110
9D02221200
6FC6456200
08EFEB2000
ENDCHAR
STARTCHAR Ohungarumlaut
ENCODING 336
SWIDTH 837 0
DWIDTH 8 0
BBX 9 13 0 -1
BITMAP
0013222100
01C1390100
06D1671100
0AA0A40100
09B8666200
4D10002200
9B10E91110
AB10DA1110
AB10CA1110
AB11A82110
9D02221200
6FC6456200
08EFEB2000
ENDCHAR
STARTCHAR ohungarumlaut
ENCODING 337
SWIDTH 837 0
DWIDTH 8 0
BBX 9 13 0 -1
BITMAP
0013222100
01C1390100
06D1671100
0AA0A40100
09B8666200
4D10002200
9B10E91110
AB10DA1110
AB10CA1110
AB11A82110
9D02221200
6FC6456200
08EFEB2000
ENDCHAR
STARTCHAR OE
ENCODING 338
SWIDTH 1115 0
DWIDTH 11 0
BBX 11 9 0 -1
BITMAP
002222222220
190222211110
7B10F812CC40
AB10F8222010
AB10F8116510
AB1074128420
AE0211211110
7FB544444430
1AEFFFFFFC10
ENDCHAR
STARTCHAR oe
ENCODING 339
SWIDTH 1115 0
DWIDTH 11 0
BBX 11 9 0 -1
BITMAP
002222222220
190222211110
7B10F812CC40
AB10F8222010
AB10F8116510
AB1074128420
AE0211211110
7FB544444430
1AEFFFFFFC10
ENDCHAR
STARTCHAR Racute
ENCODING 340
SWIDTH 843 0
DWIDTH 8 0
BBX 9 12 0 -1
BITMAP
0002466000
01BCB97000
0AA0005000
0926421100
6D11310100
8D10E42100
8D10412300
8D12222110
8D10ED1110
8D10BD0010
8E438E4410
7FE37FE400
ENDCHAR
STARTCHAR racute
ENCODING 341
SWIDTH 843 0
DWIDTH 8 0
BBX 9 12 0 -1
BITMAP
0002466000
01BCB97000
0AA0005000
0926421100
6D11310100
8D10E42100
8D10412300
8D12222110
8D10ED1110
8D10BD0010
8E438E4410
7FE37FE400
ENDCHAR
STARTCHAR Rcommaaccent
ENCODING 342
SWIDTH 843 0
DWIDTH 8 0
BBX 9 13 0 -5
BITMAP
0723332100
7D10102100
8D10E42200
8D12532200
8D10101010
8D10ED1110
8D10BD0010
8E45673410
7FFE11C400
009C011000
008E332000
006FD60000
0037300000
ENDCHAR
STARTCHAR rcommaaccent
ENCODING 343
SWIDTH 843 0
DWIDTH 8 0
BBX 9 13 0 -5
BITMAP
0723332100
7D10102100
8D10E42200
8D12532200
8D10101010
8D10ED1110
8D10BD0010
8E45673410
7FFE11C400
009C011000
008E332000
006FD60000
0037300000
ENDCHAR
STARTCHAR Rcaron
ENCODING 344
SWIDTH 843 0
DWIDTH 8 0
BBX 9 12 0 -1
BITMAP
0071222100
08C1221000
09F9242000
0800000100
7D11310100
8D10E42100
8D10412300
8D12222110
8D10ED1110
8D10BD0010
8E438E4410
7FE37FE400
ENDCHAR
STARTCHAR rcaron
ENCODING 345
SWIDTH 843 0
DWIDTH 8 0
BBX 9 12 0 -1
BITMAP
0071222100
08C1221000
09F9242000
0800000100
7D11310100
8D10E42100
8D10412300
8D12222110
8D10ED1110
8D10BD0010
8E438E4410
7FE37FE400
ENDCHAR
STARTCHAR Sacute
ENCODING 346
SWIDTH 750 0
DWIDTH 8 0
BBX 8 12 0 -1
BITMAP
00013530
02BCB850
0E600030
0F332020
08011120
8A20BD60
BB111021
BF731211
4CAA9011
49111201
BC444430
AFFFE600
ENDCHAR
STARTCHAR sacute
ENCODING 347
SWIDTH 750 0
DWIDTH 8 0
BBX 8 12 0 -1
BITMAP
00013530
02BCB850
0E600030
0F332020
08011120
8A20BD60
BB111021
BF731211
4CAA9011
49111201
BC444430
AFFFE600
ENDCHAR
STARTCHAR Scircumflex
ENCODING 348
SWIDTH 750 0
DWIDTH 8 0
BBX 8 12 0 -1
BITMAP
00012100
02311120
0D88B730
1F722230
19011120
8A20BD60
BB111021
BF731211
4CAA9011
49111201
BC444430
AFFFE600
ENDCHAR
STARTCHAR scircumflex
ENCODING 349
SWIDTH 750 0
DWIDTH 8 0
BBX 8 12 0 -1
BITMAP
00012100
02311120
0D88B730
1F722230
19011120
8A20BD60
BB111021
BF731211
4CAA9011
49111201
BC444430
AFFFE600
ENDCHAR
STARTCHAR Scedilla
ENCODING 350
SWIDTH 750 0
DWIDTH 8 0
BBX 8 11 0 -3
BITMAP
01222230
29021120
9A10AD60
BB111011
AF731211
3CAA9011
49112201
BC611530
AFF11400
05FF5000
01420000
ENDCHAR
STARTCHAR scedilla
ENCODING 351
SWIDTH 750 0
DWIDTH 8 0
BBX 8 11 0 -3
BITMAP
01222230
29021120
9A10AD60
BB111011
AF731211
3CAA9011
49112201
BC611530
AFF11400
05FF5000
01420000
ENDCHAR
STARTCHAR Scaron
ENCODING 352
SWIDTH 750 0
DWIDTH 8 0
BBX 8 12 0 -1
BITMAP
02512220
0D612110
0FE61510
09722230
17011120
9A20BD60
BB111021
AF731211
4CAA9011
49111201
BC444430
AFFFE600
ENDCHAR
STARTCHAR scaron
ENCODING 353
SWIDTH 750 0
DWIDTH 8 0
BBX 8 12 0 -1
BITMAP
02512220
0D612110
0FE61510
09722230
17011120
9A20BD60
BB111021
AF731211
4CAA9011
49111201
BC444430
AFFFE600
ENDCHAR
STARTCHAR Tcommaaccent
ENCODING 354
SWIDTH 756 0
DWIDTH 8 0
BBX 8 13 0 -5
BITMAP
26334322
D7102012
EFF426B1
25F42300
02F42200
02F42200
02F41200
02FA7400
01F42100
01E41200
01F83200
00EE9000
00760000
ENDCHAR
STARTCHAR tcommaaccent
ENCODING 355
SWIDTH 756 0
DWIDTH 8 0
BBX 8 13 0 -5
BITMAP
26334322
D7102012
EFF426B1
25F42300
02F42200
02F42200
02F41200
02FA7400
01F42100
01E41200
01F83200
00EE9000
00760000
ENDCHAR
STARTCHAR Tcaron
ENCODING 356
SWIDTH 756 0
DWIDTH 8 0
BBX 8 12 0 -1
BITMAP
03512220
0E512110
1FD61500
27222222
D7222212
EFF426B1
25F42300
02F42200
02F42200
02F41200
02F74300
01FFA000
ENDCHAR
STARTCHAR tcaron
ENCODING 357
SWIDTH 756 0
DWIDTH 8 0
BBX 8 12 0 -1
BITMAP
03512220
0E512110
1FD61500
27222222
D7222212
EFF426B1
25F42300
02F42200
02F42200
02F41200
02F74300
01FFA000
ENDCHAR
STARTCHAR Tbar
ENCODING 358
SWIDTH 756 0
DWIDTH 8 0
BBX 8 9 0 -1
BITMAP
25222222
D7112111
EEC325A1
68922330
1C213110
4FA22440
2BF41200
02F74300
01FFA100
ENDCHAR
STARTCHAR tbar
ENCODING 359
SWIDTH 756 0
DWIDTH 8 0
BBX 8 9 0 -1
BITMAP
25222222
D7112111
EEC325A1
68922330
1C213110
4FA22440
2BF41200
02F74300
01FFA100
ENDCHAR
STARTCHAR Utilde
ENCODING 360
SWIDTH 846 0
DWIDTH 8 0
BBX 9 12 0 -1
BITMAP
0012112000
0291221100
09C3311000
0922EC2210
8C10AB2010
9C10CB2010
9C10CB2010
9C10CB2010
9C11542110
9E11221200
6FC6456200
08DFEB2000
ENDCHAR
STARTCHAR utilde
ENCODING 361
SWIDTH 846 0
DWIDTH 8 0
BBX 9 12 0 -1
BITMAP
0012112000
0291221100
09C3311000
0922EC2210
8C10AB2010
9C10CB2010
9C10CB2010
9C10CB2010
9C11542110
9E11221200
6FC6456200
08DFEB2000
ENDCHAR
STARTCHAR Umacron
ENCODING 362
SWIDTH 846 0
DWIDTH 8 0
BBX 9 12 0 -1
BITMAP
0021112000
02A0111100
09C0000000
0867FD6710
5C10BB1010
9C10CB2010
9C10CB2010
9C10CB2010
9C11652110
9E11221200
6FC6456200
08DFEB2000
ENDCHAR
STARTCHAR umacron
ENCODING 363
SWIDTH 846 0
DWIDTH 8 0
BBX 9 12 0 -1
BITMAP
0021112000
02A0111100
09C0000000
0867FD6710
5C10BB1010
9C10CB2010
9C10CB2010
9C10CB2010
9C11652110
9E11221200
6FC6456200
08DFEB2000
ENDCHAR
STARTCHAR Ubreve
ENCODING 364
SWIDTH 846 0
DWIDTH 8 0
BBX 9 12 0 -1
BITMAP
0022132100
05B1121100
0AE4110000
0822EC2210
7C10AB1010
9C10CB2010
9C10CB2010
9C10CB2010
9C11652110
9E12221200
6FC6456200
08DFEB2000
ENDCHAR
STARTCHAR ubreve
ENCODING 365
SWIDTH 846 0
DWIDTH 8 0
BBX 9 12 0 -1
BITMAP
0022132100
05B1121100
0AE4110000
0822EC2210
7C10AB1010
9C10CB2010
9C10CB2010
9C10CB2010
9C11652110
9E12221200
6FC6456200
08DFEB2000
ENDCHAR
STARTCHAR Uring
ENCODING 366
SWIDTH 846 0
DWIDTH 8 0
BBX 9 14 0 -1
BITMAP
0002222000
0071222100
07B2A72200
0AB1321100
0AE4110000
0822EC2210
8C10AB1010
9C10CB2010
9C10CB2010
9C10CB2010
9C11BB2110
9E11331200
6FC6456200
08DFEB2000
ENDCHAR
STARTCHAR uring
ENCODING 367
SWIDTH 846 0
DWIDTH 8 0
BBX 9 14 0 -1
BITMAP
0002222000
0071222100
07B2A72200
0AB1321100
0AE4110000
0822EC2210
8C10AB1010
9C10CB2010
9C10CB2010
9C10CB2010
9C11BB2110
9E11331200
6FC6456200
08DFEB2000
ENDCHAR
STARTCHAR Uhungarumlaut
ENCODING 368
SWIDTH 846 0
DWIDTH 8 0
BBX 9 13 0 -1
BITMAP
0003222200
00932A0100
03E2581100
06C0860000
0867FD6710
6C10AB1010
9C10CB2010
9C10CB2010
9C10CB2010
9C11652110
9E11221200
6FC6456200
08DFEB2000
ENDCHAR
STARTCHAR uhungarumlaut
ENCODING 369
SWIDTH 846 0
DWIDTH 8 0
BBX 9 13 0 -1
BITMAP
0003222200
00932A0100
03E2581100
06C0860000
0867FD6710
6C10AB1010
9C10CB2010
9C10CB2010
9C10CB2010
9C11652110
9E11221200
6FC6456200
08DFEB2000
ENDCHAR
STARTCHAR Uogonek
ENCODING 370
SWIDTH 846 0
DWIDTH 8 0
BBX 9 12 0 -4
BITMAP
0722272210
8C10AB2010
9C10CB2010
9C10CB2010
9C10CB2010
9C11552110
9E11221300
6FD7227400
0AFE224000
007F312000
006FFB1000
0003300000
ENDCHAR
STARTCHAR uogonek
ENCODING 371
SWIDTH 846 0
DWIDTH 8 0
BBX 9 12 0 -4
BITMAP
0722272210
8C10AB2010
9C10CB2010
9C10CB2010
9C10CB2010
9C11552110
9E11221300
6FD7227400
0AFE224000
007F312000
006FFB1000
0003300000
ENDCHAR
STARTCHAR Wcircumflex
ENCODING 372
SWIDTH 931 0
DWIDTH 9 0
BBX 9 12 0 -1
BITMAP
0001222000
0044121200
02F6796200
1822ADB220
9B201AA110
AB2037A110
AB20506110
AB20221110
AD11232110
9F222B1110
5F948F4410
0DFA6FE400
ENDCHAR
STARTCHAR wcircumflex
ENCODING 373
SWIDTH 931 0
DWIDTH 9 0
BBX 9 12 0 -1
BITMAP
0001222000
0044121200
02F6796200
1822ADB220
9B201AA110
AB2037A110
AB20506110
AB20221110
AD11232110
9F222B1110
5F948F4410
0DFA6FE400
ENDCHAR
STARTCHAR Ycircumflex
ENCODING 374
SWIDTH 805 0
DWIDTH 8 0
BBX 8 12 0 -1
BITMAP
00012100
01511110
0BCBEC70
1824C922
B911C811
C911D621
CD124112
AF902110
2EF52110
05F81200
00DA4300
00CFC100
ENDCHAR
STARTCHAR ycircumflex
ENCODING 375
SWIDTH 805 0
DWIDTH 8 0
BBX 8 12 0 -1
BITMAP
00012100
01511110
0BCBEC70
1824C922
B911C811
C911D621
CD124112
AF902110
2EF52110
05F81200
00DA4300
00CFC100
ENDCHAR
STARTCHAR Ydieresis
ENCODING 376
SWIDTH 805 0
DWIDTH 8 0
BBX 8 12 0 -1
BITMAP
00313120
0A518111
1F509000
2C68FB66
B912C811
C911D621
CC023111
9F812110
1EF42110
05F81200
00DA4300
00CFC100
ENDCHAR
STARTCHAR Zacute
ENCODING 377
SWIDTH 760 0
DWIDTH 8 0
BBX 8 12 0 -1
BITMAP
00013540
02BCB960
0D700040
0C242011
8C122201
9FFD1211
13931110
03511200
19111221
99111111
CB444441
BFFFFF60
ENDCHAR
STARTCHAR zacute
ENCODING 378
SWIDTH 760 0
DWIDTH 8 0
BBX 8 12 0 -1
BITMAP
00013540
02BCB960
0D700040
0C242011
8C122201
9FFD1211
13931110
03511200
19111221
99111111
CB444441
BFFFFF60
ENDCHAR
STARTCHAR Zdotaccent
ENCODING 379
SWIDTH 760 0
DWIDTH 8 0
BBX 8 12 0 -1
BITMAP
00031100
00A51100
01F50000
07222221
8C122201
9FFD1211
13931110
03511200
19111221
99111111
CB444441
BFFFFF60
ENDCHAR
STARTCHAR zdotaccent
ENCODING 380
SWIDTH 760 0
DWIDTH 8 0
BBX 8 12 0 -1
BITMAP
00031100
00A51100
01F50000
07222221
8C122201
9FFD1211
13931110
03511200
19111221
99111111
CB444441
BFFFFF60
ENDCHAR
STARTCHAR Zcaron
ENCODING 381
SWIDTH 760 0
DWIDTH 8 0
BBX 8 12 0 -1
BITMAP
03512220
0E512110
1FD61510
0A222221
7C122201
9FFD1211
13931110
03511200
19111221
99111111
CB444441
BFFFFF60
ENDCHAR
STARTCHAR zcaron
ENCODING 382
SWIDTH 760 0
DWIDTH 8 0
BBX 8 12 0 -1
BITMAP
03512220
0E512110
1FD61510
0A222221
7C122201
9FFD1211
13931110
03511200
19111221
99111111
CB444441
BFFFFF60
ENDCHAR
STARTCHAR Schwa
ENCODING 399
SWIDTH 815 0
DWIDTH 8 0
BBX 8 9 0 -1
BITMAP
02633331
0D700012
0EEEE811
29122221
AA100011
BA10D821
AD022212
8FB64561
1AEFEA10
ENDCHAR
STARTCHAR florin
ENCODING 402
SWIDTH 674 0
DWIDTH 7 0
BBX 7 9 0 -1
BITMAP
00021220
00902430
03701620
27122120
B9001000
CEA10400
69110000
CB451000
BFC40000
ENDCHAR
STARTCHAR Ohorn
ENCODING 416
SWIDTH 847 0
DWIDTH 8 0
BBX 9 11 0 -1
BITMAP
0000001210
0000007020
0022224220
1910002110
7B20E91110
AB20DA1110
AB20CA1110
AB11A81100
AD12221200
8FC6456100
1AEFEA1000
ENDCHAR
STARTCHAR ohorn
ENCODING 417
SWIDTH 847 0
DWIDTH 8 0
BBX 9 11 0 -1
BITMAP
0000001210
0000007020
0022224220
1910002110
7B20E91110
AB20DA1110
AB20CA1110
AB11A81100
AD12221200
8FC6456100
1AEFEA1000
ENDCHAR
STARTCHAR Uhorn
ENCODING 431
SWIDTH 856 0
DWIDTH 9 0
BBX 9 11 0 -1
BITMAP
0000002210
000002A010
07222A1220
8C10AB2120
9C10CB2010
9C10CB2010
9C10CB2010
9C11542110
9E11221200
7FC6456200
08EFEB2000
ENDCHAR
STARTCHAR uhorn
ENCODING 432
SWIDTH 856 0
DWIDTH 9 0
BBX 9 11 0 -1
BITMAP
0000002210
000002A010
07222A1220
8C10AB2120
9C10CB2010
9C10CB2010
9C10CB2010
9C11542110
9E11221200
7FC6456200
08EFEB2000
ENDCHAR
STARTCHAR Acaron
ENCODING 461
SWIDTH 830 0
DWIDTH 8 0
BBX 8 12 0 -1
BITMAP
00712230
08B12210
0AF91420
06D22220
03811101
0A317202
1D00D602
6B111121
AA101111
BA12FA11
BC44CC44
AFD2AFD2
ENDCHAR
STARTCHAR acaron
ENCODING 462
SWIDTH 830 0
DWIDTH 8 0
BBX 8 12 0 -1
BITMAP
00712230
08B12210
0AF91420
06D22220
03811101
0A317202
1D00D602
6B111121
AA101111
BA12FA11
BC44CC44
AFD2AFD2
ENDCHAR
STARTCHAR Icaron
ENCODING 463
SWIDTH 705 0
DWIDTH 7 0
BBX 7 12 0 -1
BITMAP
05222220
3F122110
5FC42400
2A222220
9B112220
AFF02830
27F02200
05F02200
05802220
5A112120
BC444430
AFFFFA10
ENDCHAR
STARTCHAR icaron
ENCODING 464
SWIDTH 705 0
DWIDTH 7 0
BBX 7 12 0 -1
BITMAP
05222220
3F122110
5FC42400
2A222220
9B112220
AFF02830
27F02200
05F02200
05802220
5A112120
BC444430
AFFFFA10
ENDCHAR
STARTCHAR Ocaron
ENCODING 465
SWIDTH 837 0
DWIDTH 8 0
BBX 9 12 0 -1
BITMAP
0171223000
09B1221000
09F9243000
0484222100
2C10002200
9B10E91110
AB10DA1110
AB10CA1110
AB11A82110
9E12221200
6FC6456200
08EFEA2000
ENDCHAR
STARTCHAR ocaron
ENCODING 466
SWIDTH 837 0
DWIDTH 8 0
BBX 9 12 0 -1
BITMAP
0171223000
09B1221000
09F9243000
0484222100
2C10002200
9B10E91110
AB10DA1110
AB10CA1110
AB11A82110
9E12221200
6FC6456200
08EFEA2000
ENDCHAR
STARTCHAR Ucaron
ENCODING 467
SWIDTH 846 0
DWIDTH 8 0
BBX 9 12 0 -1
BITMAP
0041122100
06C1221100
09F9232000
0822BB2210
8C10AB2010
9C10CB2010
9C10CB2010
9C10CB2010
9C11542110
9E11221200
6FC6456200
08DFEB2000
ENDCHAR
STARTCHAR ucaron
ENCODING 468
SWIDTH 846 0
DWIDTH 8 0
BBX 9 12 0 -1
BITMAP
0041122100
06C1221100
09F9232000
0822BB2210
8C10AB2010
9C10CB2010
9C10CB2010
9C10CB2010
9C11542110
9E11221200
6FC6456200
08DFEB2000
ENDCHAR
STARTCHAR Udieresismacron
ENCODING 469
SWIDTH 846 0
DWIDTH 8 0
BBX 9 14 0 -1
BITMAP
0022222000
05B1221100
0AC5865100
0A81621100
0D90720000
1C67FD6710
9C10BB1010
9C10CB2010
9C10CB2010
9C10CB2010
9C11652110
9E11221200
5FC6456200
08DFEB2000
ENDCHAR
STARTCHAR udieresismacron
ENCODING 470
SWIDTH 846 0
DWIDTH 8 0
BBX 9 14 0 -1
BITMAP
0022222000
05B1221100
0AC5865100
0A81621100
0D90720000
1C67FD6710
9C10BB1010
9C10CB2010
9C10CB2010
9C10CB2010
9C11652110
9E11221200
5FC6456200
08DFEB2000
ENDCHAR
STARTCHAR Udieresisacute
ENCODING 471
SWIDTH 846 0
DWIDTH 8 0
BBX 9 14 0 -1
BITMAP
00019D4000
002D842000
0048261100
0781421100
0D90720000
1C67FD6710
8C10BB1010
9C10CB2010
9C10CB2010
9C10CB2010
9C11652110
9E11221200
5FC6456200
08DFEB2000
ENDCHAR
STARTCHAR udieresisacute
ENCODING 472
SWIDTH 846 0
DWIDTH 8 0
BBX 9 14 0 -1
BITMAP
00019D4000
002D842000
0048261100
0781421100
0D90720000
1C67FD6710
8C10BB1010
9C10CB2010
9C10CB2010
9C10CB2010
9C11652110
9E11221200
5FC6456200
08DFEB2000
ENDCHAR
STARTCHAR Udieresiscaron
ENCODING 473
SWIDTH 846 0
DWIDTH 8 0
BBX 9 15 0 -1
BITMAP
0011000000
02A3222100
09D3223000
07C8883100
0781621100
0D90720000
1C67FD6710
8C10BB1010
9C10CB2010
9C10CB2010
9C10CB2010
9C11652110
9E11221200
5FC6456200
08DFEB2000
ENDCHAR
STARTCHAR udieresiscaron
ENCODING 474
SWIDTH 846 0
DWIDTH 8 0
BBX 9 15 0 -1
BITMAP
0011000000
02A3222100
09D3223000
07C8883100
0781621100
0D90720000
1C67FD6710
8C10BB1010
9C10CB2010
9C10CB2010
9C10CB2010
9C11652110
9E11221200
5FC6456200
08DFEB2000
ENDCHAR
STARTCHAR Udieresisgrave
ENCODING 475
SWIDTH 846 0
DWIDTH 8 0
BBX 9 14 0 -1
BITMAP
001AD80000
009C470000
0085341100
0781601100
0D90720000
1C67FD6710
8C10BB1010
9C10CB2010
9C10CB2010
9C10CB2010
9C11652110
9E11221200
6FC6456200
08DFEB2000
ENDCHAR
STARTCHAR udieresisgrave
ENCODING 476
SWIDTH 846 0
DWIDTH 8 0
BBX 9 14 0 -1
BITMAP
001AD80000
009C470000
0085341100
0781601100
0D90720000
1C67FD6710
8C10BB1010
9C10CB2010
9C10CB2010
9C10CB2010
9C11652110
9E11221200
6FC6456200
08DFEB2000
ENDCHAR
STARTCHAR Gcaron
ENCODING 486
SWIDTH 808 0
DWIDTH 8 0
BBX 8 12 0 -1
BITMAP
01612230
0A912210
0CF81410
06932221
07022212
6B20EF70
9B204522
AB20A711
AB207311
AE021111
7FB54443
1AEFFFB1
ENDCHAR
STARTCHAR gcaron
ENCODING 487
SWIDTH 808 0
DWIDTH 8 0
BBX 8 12 0 -1
BITMAP
01612230
0A912210
0CF81410
06932221
07022212
6B20EF70
9B204522
AB20A711
AB207311
AE021111
7FB54443
1AEFFFB1
ENDCHAR
STARTCHAR Scommaaccent
ENCODING 536
SWIDTH 750 0
DWIDTH 8 0
BBX 8 13 0 -5
BITMAP
01233330
29200020
9A20AC50
BB022210
AF731011
3CAA9012
49111221
BEB97950
AFF52200
00E50300
00E83300
00DEA100
00660000
ENDCHAR
STARTCHAR scommaaccent
ENCODING 537
SWIDTH 750 0
DWIDTH 8 0
BBX 8 13 0 -5
BITMAP
01233330
29200020
9A20AC50
BB022210
AF731011
3CAA9012
49111221
BEB97950
AFF52200
00E50300
00E83300
00DEA100
00660000
ENDCHAR
STARTCHAR uni021A
ENCODING 538
SWIDTH 756 0
DWIDTH 8 0
BBX 8 13 0 -5
BITMAP
26334322
D7102012
EFF426B1
25F42300
02F42200
02F42200
02F41200
02FA7400
01F42100
01E41200
01F83200
00EE9000
00760000
ENDCHAR
STARTCHAR uni021B
ENCODING 539
SWIDTH 756 0
DWIDTH 8 0
BBX 8 13 0 -5
BITMAP
26334322
D7102012
EFF426B1
25F42300
02F42200
02F42200
02F41200
02FA7400
01F42100
01E41200
01F83200
00EE9000
00760000
ENDCHAR
STARTCHAR dotlessj
ENCODING 567
SWIDTH 788 0
DWIDTH 8 0
BBX 8 9 0 -1
BITMAP
00005322
0003F121
0004F121
0216F121
7814F121
C9217021
CB022202
9FA54640
1AEFD600
ENDCHAR
STARTCHAR ascript
ENCODING 593
SWIDTH 846 0
DWIDTH 8 0
BBX 8 9 0 -1
BITMAP
00333431
09110022
7B10E911
AB10EA11
AB10CA11
AB109811
AD011121
8FB54444
1BEFFFD2
ENDCHAR
STARTCHAR schwa
ENCODING 601
SWIDTH 815 0
DWIDTH 8 0
BBX 8 9 0 -1
BITMAP
02633331
0D700012
0EEEE811
29122221
AA100011
BA10D821
AD022212
8FB64561
1AEFEA10
ENDCHAR
STARTCHAR gscript
ENCODING 609
SWIDTH 815 0
DWIDTH 8 0
BBX 8 11 0 -3
BITMAP
00322221
08021112
7A11E722
BA108422
BC021132
AF600022
3EFED622
05711212
0E811131
0EFFFD30
03443000
ENDCHAR
STARTCHAR commaturnedmod
ENCODING 699
SWIDTH 600 0
DWIDTH 6 0
BBX 4 6 1 2
BITMAP
0333
5845
D722
E812
DFE3
2420
ENDCHAR
STARTCHAR apostrophemod
ENCODING 700
SWIDTH 600 0
DWIDTH 6 0
BBX 4 6 1 4
BITMAP
0322
7722
E703
CA33
BFB1
5610
ENDCHAR
STARTCHAR ringhalfright
ENCODING 702
SWIDTH 412 0
DWIDTH 4 0
BBX 5 6 0 2
BITMAP
263300
DF6210
981210
982300
EFC100
330000
ENDCHAR
STARTCHAR ringhalfleft
ENCODING 703
SWIDTH 412 0
DWIDTH 4 0
BBX 5 6 0 2
BITMAP
043300
872500
D72300
EB3210
CFF500
132000
ENDCHAR
STARTCHAR circumflex
ENCODING 710
SWIDTH 600 0
DWIDTH 6 0
BBX 6 4 0 7
BITMAP
001220
161112
BA5964
CB9DD2
ENDCHAR
STARTCHAR caron
ENCODING 711
SWIDTH 600 0
DWIDTH 6 0
BBX 6 5 0 6
BITMAP
052000
694223
DC5254
AFFE80
036100
ENDCHAR
STARTCHAR verticallinemod
ENCODING 712
SWIDTH 456 0
DWIDTH 5 0
BBX 5 6 0 2
BITMAP
072220
8C2020
9C2020
9C1120
9FF800
243000
ENDCHAR
STARTCHAR firsttonechinese
ENCODING 713
SWIDTH 600 0
DWIDTH 6 0
BBX 6 4 0 6
BITMAP
021112
891112
DFFFE5
344420
ENDCHAR
STARTCHAR secondtonechinese
ENCODING 714
SWIDTH 600 0
DWIDTH 6 0
BBX 6 4 0 6
BITMAP
011112
471112
DC9BB3
886510
ENDCHAR
STARTCHAR fourthtonechinese
ENCODING 715
SWIDTH 600 0
DWIDTH 6 0
BBX 6 4 0 6
BITMAP
041111
A81112
DFDBA4
257970
ENDCHAR
STARTCHAR verticallinelowmod
ENCODING 716
SWIDTH 456 0
DWIDTH 5 0
BBX 5 6 0 -3
BITMAP
072220
8C2020
9C2020
9C1120
9FF800
243000
ENDCHAR
STARTCHAR breve
ENCODING 728
SWIDTH 600 0
DWIDTH 6 0
BBX 6 5 0 6
BITMAP
032132
781722
DD4234
BFFFA0
167500
ENDCHAR
STARTCHAR dotaccent
ENCODING 729
SWIDTH 600 0
DWIDTH 6 0
BBX 4 5 1 6
BITMAP
0212
6811
D801
DFE3
3420
ENDCHAR
STARTCHAR ring
ENCODING 730
SWIDTH 600 0
DWIDTH 6 0
BBX 6 7 0 6
BITMAP
002221
051222
972D42
D82212
ED4233
BFFFA0
167400
ENDCHAR
STARTCHAR ogonek
ENCODING 731
SWIDTH 600 0
DWIDTH 6 0
BBX 5 5 1 -4
BITMAP
032100
692200
CB1110
CFF700
133000
ENDCHAR
STARTCHAR tilde
ENCODING 732
SWIDTH 600 0
DWIDTH 6 0
BBX 6 5 0 6
BITMAP
012112
271221
C93303
DFFFD2
446720
ENDCHAR
STARTCHAR hungarumlaut
ENCODING 733
SWIDTH 600 0
DWIDTH 6 0
BBX 7 6 -1 6
BITMAP
00221320
04809310
0C51D210
0F32C010
3FEDFB10
04224100
ENDCHAR
STARTCHAR gravecmb
ENCODING 768
SWIDTH 100 0
DWIDTH 1 0
BBX 7 4 -3 6
BITMAP
03211100
3E111020
5FECA810
14689200
ENDCHAR
STARTCHAR acutecmb
ENCODING 769
SWIDTH 100 0
DWIDTH 1 0
BBX 7 4 -3 6
BITMAP
00211110
1A111020
5F9AC800
39763000
ENDCHAR
STARTCHAR circumflexcmb
ENCODING 770
SWIDTH 100 0
DWIDTH 1 0
BBX 7 4 -3 7
BITMAP
00122100
05222120
4F478420
5EABE800
ENDCHAR
STARTCHAR tildecmb
ENCODING 771
SWIDTH 100 0
DWIDTH 1 0
BBX 7 5 -3 6
BITMAP
00221110
08122110
4F341120
5FFFF700
24475000
ENDCHAR
STARTCHAR uni0304
ENCODING 772
SWIDTH 600 0
DWIDTH 6 0
BBX 6 4 0 6
BITMAP
021112
891112
DFFFE5
344420
ENDCHAR
STARTCHAR brevecmb
ENCODING 774
SWIDTH 100 0
DWIDTH 1 0
BBX 7 5 -3 6
BITMAP
01223210
1D126120
6F732410
3FFFE300
03762000
ENDCHAR
STARTCHAR dotaccentcmb
ENCODING 775
SWIDTH 100 0
DWIDTH 1 0
BBX 5 5 -2 6
BITMAP
012110
1C0110
6F0010
6FF900
144000
ENDCHAR
STARTCHAR dieresiscmb
ENCODING 776
SWIDTH 100 0
DWIDTH 1 0
BBX 7 5 -3 6
BITMAP
02123110
2B127120
8D027010
8FFFFB10
14234100
ENDCHAR
STARTCHAR hookcmb
ENCODING 777
SWIDTH 100 0
DWIDTH 1 0
BBX 5 6 -2 6
BITMAP
022220
1D1220
6F9320
3D9750
0EFB00
032000
ENDCHAR
STARTCHAR ringcmb
ENCODING 778
SWIDTH 100 0
DWIDTH 1 0
BBX 7 7 -3 6
BITMAP
00122200
04222120
2E26B120
6F212120
6F832410
3FFFE300
03762000
ENDCHAR
STARTCHAR hungarumlautcmb
ENCODING 779
SWIDTH 100 0
DWIDTH 1 0
BBX 7 6 -3 6
BITMAP
00221220
0570B210
0D42D110
1F13B010
4FEDFA00
14224000
ENDCHAR
STARTCHAR caroncmb
ENCODING 780
SWIDTH 100 0
DWIDTH 1 0
BBX 7 5 -3 6
BITMAP
01500000
1D342220
5F743520
3EFFC300
01640000
ENDCHAR
STARTCHAR horncmb
ENCODING 795
SWIDTH 100 0
DWIDTH 1 0
BBX 5 4 -2 5
BITMAP
003210
091110
4E3100
7D7000
ENDCHAR
STARTCHAR dotbelowcmb
ENCODING 803
SWIDTH 100 0
DWIDTH 1 0
BBX 5 5 -2 -5
BITMAP
012110
1C0110
6F0010
6FF900
144000
ENDCHAR
STARTCHAR dieresisbelowcmb
ENCODING 804
SWIDTH 100 0
DWIDTH 1 0
BBX 7 5 -3 -4
BITMAP
02123110
2B127120
8D027010
8FFFFB10
14234100
ENDCHAR
STARTCHAR commaaccent
ENCODING 806
SWIDTH 600 0
DWIDTH 6 0
BBX 4 6 1 -5
BITMAP
0322
7722
E703
CA33
BFB1
5610
ENDCHAR
STARTCHAR cedillacmb
ENCODING 807
SWIDTH 100 0
DWIDTH 1 0
BBX 5 5 -2 -3
BITMAP
014110
0C2120
3D1200
8FE400
241000
ENDCHAR
STARTCHAR ogonekcmb
ENCODING 808
SWIDTH 100 0
DWIDTH 1 0
BBX 5 5 -2 -4
BITMAP
003210
0B5320
1F7120
1FFE30
024100
ENDCHAR
STARTCHAR brevebelowcmb
ENCODING 814
SWIDTH 100 0
DWIDTH 1 0
BBX 7 5 -3 -5
BITMAP
01223210
1D126120
6F732410
3FFFE300
03762000
ENDCHAR
STARTCHAR macronbelowcmb
ENCODING 817
SWIDTH 100 0
DWIDTH 1 0
BBX 7 4 -3 -5
BITMAP
01211110
2D111120
5FFFFB10
14444000
ENDCHAR
STARTCHAR uni0394
ENCODING 916
SWIDTH 830 0
DWIDTH 8 0
BBX 8 10 0 -2
BITMAP
00021110
01801110
09821111
0D42A221
2F11D621
5C21F921
9A202121
AB011112
AFFFFFE5
13333320
ENDCHAR
STARTCHAR uni03A9
ENCODING 937
SWIDTH 877 0
DWIDTH 9 0
BBX 9 10 0 -2
BITMAP
0002222000
0231221200
1D02442010
6E02CD1110
7E029D1110
7F129D1110
6902562020
C811451120
DFFEFFFC20
2331233100
ENDCHAR
STARTCHAR uni03BC
ENCODING 956
SWIDTH 813 0
DWIDTH 8 0
BBX 8 9 0 -2
BITMAP
02220222
4B006701
9C20E721
9C20F721
9C209421
9C222210
9C200001
9E77D910
7CB10000
ENDCHAR
STARTCHAR pi
ENCODING 960
SWIDTH 821 0
DWIDTH 8 0
BBX 8 8 0 -2
BITMAP
05111112
7C111121
9C20C621
9C20F721
9C20F721
9C00F802
9FF6DFE3
13202310
ENDCHAR
STARTCHAR Ddotbelow
ENCODING 7692
SWIDTH 846 0
DWIDTH 8 0
BBX 9 12 0 -4
BITMAP
0722222100
7D02111100
8D10862010
8D10CC2010
8D10BC2010
8D10662010
8D02111400
8FBA67B300
7FFB003000
008C211000
00AFF70000
0023200000
ENDCHAR
STARTCHAR ddotbelow
ENCODING 7693
SWIDTH 846 0
DWIDTH 8 0
BBX 9 12 0 -4
BITMAP
0722222100
7D02111100
8D10862010
8D10CC2010
8D10BC2010
8D10662010
8D02111400
8FBA67B300
7FFB003000
008C211000
00AFF70000
0023200000
ENDCHAR
STARTCHAR Dlinebelow
ENCODING 7694
SWIDTH 846 0
DWIDTH 8 0
BBX 9 12 0 -4
BITMAP
0722222200
7D02111100
8D10862010
8D10CC2010
8D10BC2010
8D10662010
8D02111110
8D00000200
7FB9998000
07C1222000
0AFFFF7000
0233320000
ENDCHAR
STARTCHAR dlinebelow
ENCODING 7695
SWIDTH 846 0
DWIDTH 8 0
BBX 9 12 0 -4
BITMAP
0722222200
7D02111100
8D10862010
8D10CC2010
8D10BC2010
8D10662010
8D02111110
8D00000200
7FB9998000
07C1222000
0AFFFF7000
0233320000
ENDCHAR
STARTCHAR Gmacron
ENCODING 7712
SWIDTH 808 0
DWIDTH 8 0
BBX 8 12 0 -1
BITMAP
00111121
01B01102
08D00001
08D86662
07122212
5B20EF70
9B204522
AB20A711
AB207311
AD021111
7FB54443
1AEFFFB1
ENDCHAR
STARTCHAR gmacron
ENCODING 7713
SWIDTH 808 0
DWIDTH 8 0
BBX 8 12 0 -1
BITMAP
00111121
01B01102
08D00001
08D86662
07122212
5B20EF70
9B204522
AB20A711
AB207311
AD021111
7FB54443
1AEFFFB1
ENDCHAR
STARTCHAR Hdotbelow
ENCODING 7716
SWIDTH 859 0
DWIDTH 9 0
BBX 9 12 0 -4
BITMAP
0722272210
7D10AC1020
8D10661020
8D12223020
8D10111020
8D10DC1020
8D10BC1020
8E44AD4410
7FE668D300
006C212000
009FF80000
0013200000
ENDCHAR
STARTCHAR hdotbelow
ENCODING 7717
SWIDTH 859 0
DWIDTH 9 0
BBX 9 12 0 -4
BITMAP
0722272210
7D10AC1020
8D10661020
8D12223020
8D10111020
8D10DC1020
8D10BC1020
8E44AD4410
7FE668D300
006C212000
009FF80000
0013200000
ENDCHAR
STARTCHAR Hbrevebelow
ENCODING 7722
SWIDTH 859 0
DWIDTH 9 0
BBX 9 12 0 -4
BITMAP
0722272210
7D10AC1020
8D10661020
8D12223020
8D10111020
8D10DC1020
8D10BC1020
8D00BC0200
7FC6AC7200
07D2221000
07FECB2000
0057610000
ENDCHAR
STARTCHAR hbrevebelow
ENCODING 7723
SWIDTH 859 0
DWIDTH 9 0
BBX 9 12 0 -4
BITMAP
0722272210
7D10AC1020
8D10661020
8D12223020
8D10111020
8D10DC1020
8D10BC1020
8D00BC0200
7FC6AC7200
07D2221000
07FECB2000
0057610000
ENDCHAR
STARTCHAR Ldotbelow
ENCODING 7734
SWIDTH 795 0
DWIDTH 8 0
BBX 8 12 0 -4
BITMAP
07221000
7D101000
8D101000
8D101311
8D10A711
8D107411
8D021111
8FB967B7
7FF901B1
00AA2200
00BFF600
00232000
ENDCHAR
STARTCHAR ldotbelow
ENCODING 7735
SWIDTH 795 0
DWIDTH 8 0
BBX 8 12 0 -4
BITMAP
07221000
7D101000
8D101000
8D101311
8D10A711
8D107411
8D021111
8FB967B7
7FF901B1
00AA2200
00BFF600
00232000
ENDCHAR
STARTCHAR Ldotbelowmacron
ENCODING 7736
SWIDTH 795 0
DWIDTH 8 0
BBX 8 15 0 -4
BITMAP
00211120
06811120
0D900010
1D66ED20
8D105200
8D101000
8D101311
8D10A711
8D107411
8D021111
8FB967B7
7FF901B1
00AA2200
00BFF600
00232000
ENDCHAR
STARTCHAR ldotbelowmacron
ENCODING 7737
SWIDTH 795 0
DWIDTH 8 0
BBX 8 15 0 -4
BITMAP
00211120
06811120
0D900010
1D66ED20
8D105200
8D101000
8D101311
8D10A711
8D107411
8D021111
8FB967B7
7FF901B1
00AA2200
00BFF600
00232000
ENDCHAR
STARTCHAR Llinebelow
ENCODING 7738
SWIDTH 795 0
DWIDTH 8 0
BBX 8 12 0 -4
BITMAP
07221000
7D101000
8D101000
8D101311
8D10A711
8D107411
8D021111
8F966685
7F811120
0B911120
0DFFFD20
02444100
ENDCHAR
STARTCHAR llinebelow
ENCODING 7739
SWIDTH 795 0
DWIDTH 8 0
BBX 8 12 0 -4
BITMAP
07221000
7D101000
8D101000
8D101311
8D10A711
8D107411
8D021111
8F966685
7F811120
0B911120
0DFFFD20
02444100
ENDCHAR
STARTCHAR Mdotbelow
ENCODING 7746
SWIDTH 949 0
DWIDTH 9 0
BBX 10 12 0 -4
BITMAP
0722104220
7D12191211
8D10232111
8D10221111
8D10808111
8D10EEA111
8D104BA111
8E431BC440
7FE426CD30
001D422000
002FFD2000
0003310000
ENDCHAR
STARTCHAR mdotbelow
ENCODING 7747
SWIDTH 949 0
DWIDTH 9 0
BBX 10 12 0 -4
BITMAP
0722104220
7D12191211
8D10232111
8D10221111
8D10808111
8D10EEA111
8D104BA111
8E431BC440
7FE426CD30
001D422000
002FFD2000
0003310000
ENDCHAR
STARTCHAR Ndotaccent
ENCODING 7748
SWIDTH 853 0
DWIDTH 9 0
BBX 9 12 0 -1
BITMAP
0002111000
004B102000
009C001000
0723ED2210
7D115B1010
8D10031010
8D10001010
8D10802010
8D10E52010
8D10EB1010
8E44BD4410
7FE49FD300
ENDCHAR
STARTCHAR ndotaccent
ENCODING 7749
SWIDTH 853 0
DWIDTH 9 0
BBX 9 12 0 -1
BITMAP
0002111000
004B102000
009C001000
0723ED2210
7D115B1010
8D10031010
8D10001010
8D10802010
8D10E52010
8D10EB1010
8E44BD4410
7FE49FD300
ENDCHAR
STARTCHAR Ndotbelow
ENCODING 7750
SWIDTH 853 0
DWIDTH 9 0
BBX 9 12 0 -4
BITMAP
0722272210
7D124B1010
8D10231010
8D10111010
8D10812010
8D10E52010
8D10EB1010
8E44BD4410
7FE668D300
006C212000
009FF80000
0013200000
ENDCHAR
STARTCHAR ndotbelow
ENCODING 7751
SWIDTH 853 0
DWIDTH 9 0
BBX 9 12 0 -4
BITMAP
0722272210
7D124B1010
8D10231010
8D10111010
8D10812010
8D10E52010
8D10EB1010
8E44BD4410
7FE668D300
006C212000
009FF80000
0013200000
ENDCHAR
STARTCHAR Nlinebelow
ENCODING 7752
SWIDTH 853 0
DWIDTH 9 0
BBX 9 12 0 -4
BITMAP
0722272210
7D124B1010
8D10231010
8D10111010
8D10812010
8D10E52010
8D10EB1010
8D00CC0010
7FC6797400
07D1111100
08FFFF7000
0144420000
ENDCHAR
STARTCHAR nlinebelow
ENCODING 7753
SWIDTH 853 0
DWIDTH 9 0
BBX 9 12 0 -4
BITMAP
0722272210
7D124B1010
8D10231010
8D10111010
8D10812010
8D10E52010
8D10EB1010
8D00CC0010
7FC6797400
07D1111100
08FFFF7000
0144420000
ENDCHAR
STARTCHAR Rdotbelow
ENCODING 7770
SWIDTH 843 0
DWIDTH 8 0
BBX 9 12 0 -4
BITMAP
0722222100
7D11310100
8D10E42100
8D10412300
8D12222110
8D10ED1110
8D10BD0010
8E438E4410
7FE558D400
005D112000
008FF90000
0013300000
ENDCHAR
STARTCHAR rdotbelow
ENCODING 7771
SWIDTH 843 0
DWIDTH 8 0
BBX 9 12 0 -4
BITMAP
0722222100
7D11310100
8D10E42100
8D10412300
8D12222110
8D10ED1110
8D10BD0010
8E438E4410
7FE558D400
005D112000
008FF90000
0013300000
ENDCHAR
STARTCHAR Rdotbelowmacron
ENCODING 7772
SWIDTH 843 0
DWIDTH 8 0
BBX 9 15 0 -4
BITMAP
0021111000
0751111000
0F60001000
1E66673100
4D11310200
8D10E42100
8D10412300
8D12222110
8D10ED1110
8D10BD0010
8E438E4410
7FE558D400
005D112000
008FF90000
0013300000
ENDCHAR
STARTCHAR rdotbelowmacron
ENCODING 7773
SWIDTH 843 0
DWIDTH 8 0
BBX 9 15 0 -4
BITMAP
0021111000
0751111000
0F60001000
1E66673100
4D11310200
8D10E42100
8D10412300
8D12222110
8D10ED1110
8D10BD0010
8E438E4410
7FE558D400
005D112000
008FF90000
0013300000
ENDCHAR
STARTCHAR Rlinebelow
ENCODING 7774
SWIDTH 843 0
DWIDTH 8 0
BBX 9 12 0 -4
BITMAP
0723332100
7D10102100
8D10E42100
8D10412300
8D12122110
8D10651110
8D10DD1110
8D00AD0010
7FC67A7400
08C1112100
09FFFF6000
0244420000
ENDCHAR
STARTCHAR rlinebelow
ENCODING 7775
SWIDTH 843 0
DWIDTH 8 0
BBX 9 12 0 -4
BITMAP
0723332100
7D10102100
8D10E42100
8D10412300
8D12122110
8D10651110
8D10DD1110
8D00AD0010
7FC67A7400
08C1112100
09FFFF6000
0244420000
ENDCHAR
STARTCHAR Sdotaccent
ENCODING 7776
SWIDTH 750 0
DWIDTH 8 0
BBX 8 12 0 -1
BITMAP
00031100
00A51100
01F50000
02722230
29011120
9A20BD60
BB111021
AF731211
3CAA9011
49111201
BC444430
AFFFE600
ENDCHAR
STARTCHAR sdotaccent
ENCODING 7777
SWIDTH 750 0
DWIDTH 8 0
BBX 8 12 0 -1
BITMAP
00031100
00A51100
01F50000
02722230
29011120
9A20BD60
BB111021
AF731211
3CAA9011
49111201
BC444430
AFFFE600
ENDCHAR
STARTCHAR Sdotbelow
ENCODING 7778
SWIDTH 750 0
DWIDTH 8 0
BBX 8 12 0 -4
BITMAP
01222230
29011120
9A20AC60
BB111010
AF731211
3CAA9012
49111221
BEB86850
AFF50100
00E62200
01FFD200
00331000
ENDCHAR
STARTCHAR sdotbelow
ENCODING 7779
SWIDTH 750 0
DWIDTH 8 0
BBX 8 12 0 -4
BITMAP
01222230
29011120
9A20AC60
BB111010
AF731211
3CAA9012
49111221
BEB86850
AFF50100
00E62200
01FFD200
00331000
ENDCHAR
STARTCHAR Tdotbelow
ENCODING 7788
SWIDTH 756 0
DWIDTH 8 0
BBX 8 12 0 -4
BITMAP
26222222
D7222212
EFF426B1
25F42300
02F42200
02F42200
02F41200
02F96400
01F40200
01E52200
02FFC100
00331000
ENDCHAR
STARTCHAR tdotbelow
ENCODING 7789
SWIDTH 756 0
DWIDTH 8 0
BBX 8 12 0 -4
BITMAP
26222222
D7222212
EFF426B1
25F42300
02F42200
02F42200
02F41200
02F96400
01F40200
01E52200
02FFC100
00331000
ENDCHAR
STARTCHAR Tlinebelow
ENCODING 7790
SWIDTH 756 0
DWIDTH 8 0
BBX 8 12 0 -4
BITMAP
26334322
D7102012
EFF426B1
25F42300
02F42200
02F42200
02F42200
02F40200
02B88410
0D611120
1FFFFD20
03443100
ENDCHAR
STARTCHAR tlinebelow
ENCODING 7791
SWIDTH 756 0
DWIDTH 8 0
BBX 8 12 0 -4
BITMAP
26334322
D7102012
EFF426B1
25F42300
02F42200
02F42200
02F42200
02F40200
02B88410
0D611120
1FFFFD20
03443100
ENDCHAR
STARTCHAR Wgrave
ENCODING 7808
SWIDTH 931 0
DWIDTH 9 0
BBX 9 12 0 -1
BITMAP
0005421000
01C79BC500
04F2000000
0721AA5020
8B201AA110
AB2037A110
AB20506110
AB20221110
AD11232110
9F222B1110
5F948F4410
0DFA6FE400
ENDCHAR
STARTCHAR wgrave
ENCODING 7809
SWIDTH 931 0
DWIDTH 9 0
BBX 9 12 0 -1
BITMAP
0005421000
01C79BC500
04F2000000
0721AA5020
8B201AA110
AB2037A110
AB20506110
AB20221110
AD11232110
9F222B1110
5F948F4410
0DFA6FE400
ENDCHAR
STARTCHAR Wacute
ENCODING 7810
SWIDTH 931 0
DWIDTH 9 0
BBX 9 12 0 -1
BITMAP
0000135300
003CCA8500
01E5001300
0722568120
8B201AA110
AB2037A110
AB20506110
AB20221110
AD11232110
9F222B1110
5F948F4410
0DFA6FE400
ENDCHAR
STARTCHAR wacute
ENCODING 7811
SWIDTH 931 0
DWIDTH 9 0
BBX 9 12 0 -1
BITMAP
0000135300
003CCA8500
01E5001300
0722568120
8B201AA110
AB2037A110
AB20506110
AB20221110
AD11232110
9F222B1110
5F948F4410
0DFA6FE400
ENDCHAR
STARTCHAR Wdieresis
ENCODING 7812
SWIDTH 931 0
DWIDTH 9 0
BBX 9 12 0 -1
BITMAP
0012231100
01C0081100
06F0090000
0667FFD670
6B103BA110
AB2037A110
AB20506110
AB20221210
AC11232110
9F222B1110
5F948F4410
0EFA6FE400
ENDCHAR
STARTCHAR wdieresis
ENCODING 7813
SWIDTH 931 0
DWIDTH 9 0
BBX 9 12 0 -1
BITMAP
0012231100
01C0081100
06F0090000
0667FFD670
6B103BA110
AB2037A110
AB20506110
AB20221210
AC11232110
9F222B1110
5F948F4410
0EFA6FE400
ENDCHAR
STARTCHAR Ydotaccent
ENCODING 7822
SWIDTH 805 0
DWIDTH 8 0
BBX 8 12 0 -1
BITMAP
00021200
00781200
00D80200
1624FA22
B912D811
C911D621
CD124112
AF912110
2EF52110
05F81200
00DA4300
00CFC100
ENDCHAR
STARTCHAR ydotaccent
ENCODING 7823
SWIDTH 805 0
DWIDTH 8 0
BBX 8 12 0 -1
BITMAP
00021200
00781200
00D80200
1624FA22
B912D811
C911D621
CD124112
AF912110
2EF52110
05F81200
00DA4300
00CFC100
ENDCHAR
STARTCHAR Zdotbelow
ENCODING 7826
SWIDTH 760 0
DWIDTH 8 0
BBX 8 12 0 -4
BITMAP
07222221
8C122201
9FFC1211
13821110
03311200
18111221
99111111
CEB868B3
BFF60460
00D72200
00FFE400
00331000
ENDCHAR
STARTCHAR zdotbelow
ENCODING 7827
SWIDTH 760 0
DWIDTH 8 0
BBX 8 12 0 -4
BITMAP
07222221
8C122201
9FFC1211
13821110
03311200
18111221
99111111
CEB868B3
BFF60460
00D72200
00FFE400
00331000
ENDCHAR
STARTCHAR tdieresis
ENCODING 7831
SWIDTH 756 0
DWIDTH 8 0
BBX 8 12 0 -1
BITMAP
01213120
1C218110
4F209000
58222222
E7222212
EFF426B1
25F42300
02F42200
02F42200
02F41200
02F74300
01FFA000
ENDCHAR
STARTCHAR Germandbls
ENCODING 7838
SWIDTH 859 0
DWIDTH 9 0
BBX 9 9 0 -1
BITMAP
0722222100
7D02111200
8D01A11200
8D01C12110
8D01A00210
8D01DE1210
8D01A22010
8E44B44400
7FECFE8000
ENDCHAR
STARTCHAR Adotbelow
ENCODING 7840
SWIDTH 830 0
DWIDTH 8 0
BBX 8 12 0 -4
BITMAP
00322220
03811101
0A317202
1D00D602
6B111121
AA101111
BA12FA11
BC44CC44
AFD569D2
008A2210
00BFF700
00232000
ENDCHAR
STARTCHAR adotbelow
ENCODING 7841
SWIDTH 830 0
DWIDTH 8 0
BBX 8 12 0 -4
BITMAP
00322220
03811101
0A317202
1D00D602
6B111121
AA101111
BA12FA11
BC44CC44
AFD569D2
008A2210
00BFF700
00232000
ENDCHAR
STARTCHAR Ahookabove
ENCODING 7842
SWIDTH 830 0
DWIDTH 8 0
BBX 8 13 0 -1
BITMAP
00032210
00962220
00FD6220
009E6710
00722220
03811101
0A317202
1D00D602
6B111121
AA101111
BA12FA11
BC44CC44
AFD2AFD2
ENDCHAR
STARTCHAR ahookabove
ENCODING 7843
SWIDTH 830 0
DWIDTH 8 0
BBX 8 13 0 -1
BITMAP
00032210
00962220
00FD6220
009E6710
00722220
03811101
0A317202
1D00D602
6B111121
AA101111
BA12FA11
BC44CC44
AFD2AFD2
ENDCHAR
STARTCHAR Acircumflexacute
ENCODING 7844
SWIDTH 830 0
DWIDTH 8 0
BBX 8 14 0 -1
BITMAP
000007B4
0001B831
00029132
00501110
08D8CB70
0AD00020
05811101
0A317202
1C00D601
6B111121
AA101111
BA12FA11
BC44CC44
AFD2AFD2
ENDCHAR
STARTCHAR acircumflexacute
ENCODING 7845
SWIDTH 830 0
DWIDTH 8 0
BBX 8 14 0 -1
BITMAP
000007B4
0001B831
00029132
00501110
08D8CB70
0AD00020
05811101
0A317202
1C00D601
6B111121
AA101111
BA12FA11
BC44CC44
AFD2AFD2
ENDCHAR
STARTCHAR Acircumflexgrave
ENCODING 7846
SWIDTH 830 0
DWIDTH 8 0
BBX 8 14 0 -1
BITMAP
00002840
0002E592
00049410
00501130
08D8CB70
0AD00020
05811101
0A317202
1C00D601
6B111121
AA101111
BA12FA11
BC44CC44
AFD2AFD2
ENDCHAR
STARTCHAR acircumflexgrave
ENCODING 7847
SWIDTH 830 0
DWIDTH 8 0
BBX 8 14 0 -1
BITMAP
00002840
0002E592
00049410
00501130
08D8CB70
0AD00020
05811101
0A317202
1C00D601
6B111121
AA101111
BA12FA11
BC44CC44
AFD2AFD2
ENDCHAR
STARTCHAR Acircumflexhookabove
ENCODING 7848
SWIDTH 830 0
DWIDTH 8 0
BBX 9 15 0 -1
BITMAP
0000122100
0001DB4110
0002EB5830
000248D900
0070111000
09D8CB7000
0AD0002000
0581110100
0A31720200
1C00D60100
6B11112100
AA10111100
BA12FA1100
BC44CC4400
AFD2AFD200
ENDCHAR
STARTCHAR acircumflexhookabove
ENCODING 7849
SWIDTH 830 0
DWIDTH 8 0
BBX 9 15 0 -1
BITMAP
0000122100
0001DB4110
0002EB5830
000248D900
0070111000
09D8CB7000
0AD0002000
0581110100
0A31720200
1C00D60100
6B11112100
AA10111100
BA12FA1100
BC44CC4400
AFD2AFD200
ENDCHAR
STARTCHAR Acircumflextilde
ENCODING 7850
SWIDTH 830 0
DWIDTH 8 0
BBX 8 15 0 -1
BITMAP
00122120
01812220
09B33030
0AFC7830
04801110
08D8CB70
0AD00020
05811101
0A317202
1C00D601
6B111121
AA101111
BA12FA11
BC44CC44
AFD2AFD2
ENDCHAR
STARTCHAR acircumflextilde
ENCODING 7851
SWIDTH 830 0
DWIDTH 8 0
BBX 8 15 0 -1
BITMAP
00122120
01812220
09B33030
0AFC7830
04801110
08D8CB70
0AD00020
05811101
0A317202
1C00D601
6B111121
AA101111
BA12FA11
BC44CC44
AFD2AFD2
ENDCHAR
STARTCHAR Acircumflexdotbelow
ENCODING 7852
SWIDTH 830 0
DWIDTH 8 0
BBX 8 15 0 -4
BITMAP
00002210
00401120
08D8CB70
0AD00020
05811101
0A317202
1C00D601
6B111121
AA101111
BA12FA11
BC44CC44
AFD569D2
008A2210
00BFF700
00232000
ENDCHAR
STARTCHAR acircumflexdotbelow
ENCODING 7853
SWIDTH 830 0
DWIDTH 8 0
BBX 8 15 0 -4
BITMAP
00002210
00401120
08D8CB70
0AD00020
05811101
0A317202
1C00D601
6B111121
AA101111
BA12FA11
BC44CC44
AFD569D2
008A2210
00BFF700
00232000
ENDCHAR
STARTCHAR Abreveacute
ENCODING 7854
SWIDTH 830 0
DWIDTH 8 0
BBX 8 14 0 -1
BITMAP
00006A50
000A8320
00383200
05912210
0BE40100
08F66650
03911112
0A417203
1D00D602
6B111122
AA101111
BA12FA11
BC44CC44
AFD2AFD2
ENDCHAR
STARTCHAR abreveacute
ENCODING 7855
SWIDTH 830 0
DWIDTH 8 0
BBX 8 14 0 -1
BITMAP
00006A50
000A8320
00383200
05912210
0BE40100
08F66650
03911112
0A417203
1D00D602
6B111122
AA101111
BA12FA11
BC44CC44
AFD2AFD2
ENDCHAR
STARTCHAR Abrevegrave
ENCODING 7856
SWIDTH 830 0
DWIDTH 8 0
BBX 8 14 0 -1
BITMAP
002B9200
01E54400
02D12120
08A12110
0BE40100
08F66650
03911112
0A417203
1D00D602
6B111122
AA101111
BA12FA11
BC44CC44
AFD2AFD2
ENDCHAR
STARTCHAR abrevegrave
ENCODING 7857
SWIDTH 830 0
DWIDTH 8 0
BBX 8 14 0 -1
BITMAP
002B9200
01E54400
02D12120
08A12110
0BE40100
08F66650
03911112
0A417203
1D00D602
6B111122
AA101111
BA12FA11
BC44CC44
AFD2AFD2
ENDCHAR
STARTCHAR Abrevehookabove
ENCODING 7858
SWIDTH 830 0
DWIDTH 8 0
BBX 8 15 0 -1
BITMAP
00021200
006C6220
009F3230
0038CB40
05916310
0BE40100
08F66650
03911112
0A417203
1D00D602
6B111122
AA101111
BA12FA11
BC44CC44
AFD2AFD2
ENDCHAR
STARTCHAR abrevehookabove
ENCODING 7859
SWIDTH 830 0
DWIDTH 8 0
BBX 8 15 0 -1
BITMAP
00021200
006C6220
009F3230
0038CB40
05916310
0BE40100
08F66650
03911112
0A417203
1D00D602
6B111122
AA101111
BA12FA11
BC44CC44
AFD2AFD2
ENDCHAR
STARTCHAR Abrevetilde
ENCODING 7860
SWIDTH 830 0
DWIDTH 8 0
BBX 8 15 0 -1
BITMAP
00121120
02912220
0AB11020
0AD8D950
09A12210
0BE40100
07F66650
03911112
0A417203
1D00D602
6B111122
AA101111
BA12FA11
BC44CC44
AFD2AFD2
ENDCHAR
STARTCHAR abrevetilde
ENCODING 7861
SWIDTH 830 0
DWIDTH 8 0
BBX 8 15 0 -1
BITMAP
00121120
02912220
0AB11020
0AD8D950
09A12210
0BE40100
07F66650
03911112
0A417203
1D00D602
6B111122
AA101111
BA12FA11
BC44CC44
AFD2AFD2
ENDCHAR
STARTCHAR Abrevedotbelow
ENCODING 7862
SWIDTH 830 0
DWIDTH 8 0
BBX 8 15 0 -4
BITMAP
00221320
05A11210
0BE40100
08F66650
03911112
0A417203
1D00D602
6B111122
AA101111
BA12FA11
BC44CC44
AFD569D2
008A2210
00BFF700
00232000
ENDCHAR
STARTCHAR abrevedotbelow
ENCODING 7863
SWIDTH 830 0
DWIDTH 8 0
BBX 8 15 0 -4
BITMAP
00221320
05A11210
0BE40100
08F66650
03911112
0A417203
1D00D602
6B111122
AA101111
BA12FA11
BC44CC44
AFD569D2
008A2210
00BFF700
00232000
ENDCHAR
STARTCHAR Edotbelow
ENCODING 7864
SWIDTH 754 0
DWIDTH 8 0
BBX 8 12 0 -4
BITMAP
07222221
7D021101
8D10BC90
8D122110
8D105620
8D108621
8D021101
8FB868B3
7FF60470
00D72300
00FFE500
00331000
ENDCHAR
STARTCHAR edotbelow
ENCODING 7865
SWIDTH 754 0
DWIDTH 8 0
BBX 8 12 0 -4
BITMAP
07222221
7D021101
8D10BC90
8D122110
8D105620
8D108621
8D021101
8FB868B3
7FF60470
00D72300
00FFE500
00331000
ENDCHAR
STARTCHAR Ehookabove
ENCODING 7866
SWIDTH 754 0
DWIDTH 8 0
BBX 8 13 0 -1
BITMAP
00122200
01C22210
04FB4210
01CB7500
07222221
7D021101
8D10BC90
8D122110
8D105620
8D108621
8D021101
8E444441
7FFFFE50
ENDCHAR
STARTCHAR ehookabove
ENCODING 7867
SWIDTH 754 0
DWIDTH 8 0
BBX 8 13 0 -1
BITMAP
00122200
01C22210
04FB4210
01CB7500
07222221
7D021101
8D10BC90
8D122110
8D105620
8D108621
8D021101
8E444441
7FFFFE50
ENDCHAR
STARTCHAR Etilde
ENCODING 7868
SWIDTH 754 0
DWIDTH 8 0
BBX 8 12 0 -1
BITMAP
00221120
05612120
0E742010
1D222221
8D021101
8D10BC90
8D122110
8D105620
8D108621
8D021101
8E444441
7FFFFE50
ENDCHAR
STARTCHAR etilde
ENCODING 7869
SWIDTH 754 0
DWIDTH 8 0
BBX 8 12 0 -1
BITMAP
00221120
05612120
0E742010
1D222221
8D021101
8D10BC90
8D122110
8D105620
8D108621
8D021101
8E444441
7FFFFE50
ENDCHAR
STARTCHAR Ecircumflexacute
ENCODING 7870
SWIDTH 754 0
DWIDTH 8 0
BBX 8 14 0 -1
BITMAP
000018B1
0002D521
00057350
01411110
0D98B840
0D222221
6D021101
8D10BC90
8D122110
8D105620
8D108621
8D021101
8E444441
7FFFFE50
ENDCHAR
STARTCHAR ecircumflexacute
ENCODING 7871
SWIDTH 754 0
DWIDTH 8 0
BBX 8 14 0 -1
BITMAP
000018B1
0002D521
00057350
01411110
0D98B840
0D222221
6D021101
8D10BC90
8D122110
8D105620
8D108621
8D021101
8E444441
7FFFFE50
ENDCHAR
STARTCHAR Ecircumflexgrave
ENCODING 7872
SWIDTH 754 0
DWIDTH 8 0
BBX 8 14 0 -1
BITMAP
00004730
0006C690
00085310
02511020
0D98B840
0D222221
6D021101
8D10BC90
8D122110
8D105620
8D108621
8D021101
8E444441
7FFFFE50
ENDCHAR
STARTCHAR ecircumflexgrave
ENCODING 7873
SWIDTH 754 0
DWIDTH 8 0
BBX 8 14 0 -1
BITMAP
00004730
0006C690
00085310
02511020
0D98B840
0D222221
6D021101
8D10BC90
8D122110
8D105620
8D108621
8D021101
8E444441
7FFFFE50
ENDCHAR
STARTCHAR Ecircumflexhookabove
ENCODING 7874
SWIDTH 754 0
DWIDTH 8 0
BBX 8 15 0 -1
BITMAP
00002120
0004E832
0006E869
00236AE5
04611120
0E98B840
0D222221
7D021101
8D10BC90
8D122110
8D105620
8D108621
8D021101
8E444441
7FFFFE50
ENDCHAR
STARTCHAR ecircumflexhookabove
ENCODING 7875
SWIDTH 754 0
DWIDTH 8 0
BBX 8 15 0 -1
BITMAP
00002120
0004E832
0006E869
00236AE5
04611120
0E98B840
0D222221
7D021101
8D10BC90
8D122110
8D105620
8D108621
8D021101
8E444441
7FFFFE50
ENDCHAR
STARTCHAR Ecircumflextilde
ENCODING 7876
SWIDTH 754 0
DWIDTH 8 0
BBX 8 15 0 -1
BITMAP
00221120
03612220
0D732030
0FFB6910
07611110
0C98B840
0D222221
6D021101
8D10BC90
8D122110
8D105620
8D108621
8D021101
8E444441
7FFFFE50
ENDCHAR
STARTCHAR ecircumflextilde
ENCODING 7877
SWIDTH 754 0
DWIDTH 8 0
BBX 8 15 0 -1
BITMAP
00221120
03612220
0D732030
0FFB6910
07611110
0C98B840
0D222221
6D021101
8D10BC90
8D122110
8D105620
8D108621
8D021101
8E444441
7FFFFE50
ENDCHAR
STARTCHAR Ecircumflexdotbelow
ENCODING 7878
SWIDTH 754 0
DWIDTH 8 0
BBX 8 15 0 -4
BITMAP
00012200
01411120
0D98B840
0D222221
6D021101
8D10BC90
8D122110
8D105620
8D108621
8D021101
8FB869A2
7FF40640
01E52200
02FFD300
00331000
ENDCHAR
STARTCHAR ecircumflexdotbelow
ENCODING 7879
SWIDTH 754 0
DWIDTH 8 0
BBX 8 15 0 -4
BITMAP
00012200
01411120
0D98B840
0D222221
6D021101
8D10BC90
8D122110
8D105620
8D108621
8D021101
8FB869A2
7FF40640
01E52200
02FFD300
00331000
ENDCHAR
STARTCHAR Ihookabove
ENCODING 7880
SWIDTH 705 0
DWIDTH 7 0
BBX 7 13 0 -1
BITMAP
00222100
04A12200
0AF73200
05F88300
18222220
AB112220
AFF02830
27F02200
05F02200
05802220
5A112120
BC444430
AFFFFA10
ENDCHAR
STARTCHAR ihookabove
ENCODING 7881
SWIDTH 705 0
DWIDTH 7 0
BBX 7 13 0 -1
BITMAP
00222100
04A12200
0AF73200
05F88300
18222220
AB112220
AFF02830
27F02200
05F02200
05802220
5A112120
BC444430
AFFFFA10
ENDCHAR
STARTCHAR Idotbelow
ENCODING 7882
SWIDTH 705 0
DWIDTH 7 0
BBX 7 12 0 -4
BITMAP
17222220
AB112220
AFF02830
27F02200
05F02200
05802220
5A112120
BEB76A80
AFF00810
04F22200
05FFB100
01330000
ENDCHAR
STARTCHAR idotbelow
ENCODING 7883
SWIDTH 705 0
DWIDTH 7 0
BBX 7 12 0 -4
BITMAP
17222220
AB112220
AFF02830
27F02200
05F02200
05802220
5A112120
BEB76A80
AFF00810
04F22200
05FFB100
01330000
ENDCHAR
STARTCHAR Odotbelow
ENCODING 7884
SWIDTH 837 0
DWIDTH 8 0
BBX 9 13 0 -5
BITMAP
0022222100
0802221200
7B10C82110
AB10EA1110
AB10CA1110
AB10C91110
AC11002100
9F32221100
4FFA456000
02AA101000
00BB111000
00AFF50000
0023200000
ENDCHAR
STARTCHAR odotbelow
ENCODING 7885
SWIDTH 837 0
DWIDTH 8 0
BBX 9 13 0 -5
BITMAP
0022222100
0802221200
7B10C82110
AB10EA1110
AB10CA1110
AB10C91110
AC11002100
9F32221100
4FFA456000
02AA101000
00BB111000
00AFF50000
0023200000
ENDCHAR
STARTCHAR Ohookabove
ENCODING 7886
SWIDTH 837 0
DWIDTH 8 0
BBX 9 13 0 -1
BITMAP
0003221000
0096222000
00FE622000
009E671000
0242222200
2B10002200
9B10E91110
AB10DA1110
AB10CA1110
AB11A82110
AE12221200
6FC6456200
08EFEA2000
ENDCHAR
STARTCHAR ohookabove
ENCODING 7887
SWIDTH 837 0
DWIDTH 8 0
BBX 9 13 0 -1
BITMAP
0003221000
0096222000
00FE622000
009E671000
0242222200
2B10002200
9B10E91110
AB10DA1110
AB10CA1110
AB11A82110
AE12221200
6FC6456200
08EFEA2000
ENDCHAR
STARTCHAR Ocircumflexacute
ENCODING 7888
SWIDTH 837 0
DWIDTH 8 0
BBX 9 15 0 -1
BITMAP
0000002100
00002DF600
0001E81000
0012288300
03A0111000
0AD7A96000
0962222300
4C10002200
9B10E91110
AB10DA1110
AB10CA1110
AB11A82100
9E12221200
6FC6456100
08EFEA2000
ENDCHAR
STARTCHAR ocircumflexacute
ENCODING 7889
SWIDTH 837 0
DWIDTH 8 0
BBX 9 15 0 -1
BITMAP
0000002100
00002DF600
0001E81000
0012288300
03A0111000
0AD7A96000
0962222300
4C10002200
9B10E91110
AB10DA1110
AB10CA1110
AB11A82100
9E12221200
6FC6456100
08EFEA2000
ENDCHAR
STARTCHAR Ocircumflexgrave
ENCODING 7890
SWIDTH 837 0
DWIDTH 8 0
BBX 9 14 0 -1
BITMAP
00005EA100
0004F58300
00122A6100
0390112000
0AD7A96000
0962222300
4C10002200
9B10E91110
AB10DA1110
AB10CA1110
AB11A82100
9E12221200
6FC6456100
08EFEA2000
ENDCHAR
STARTCHAR ocircumflexgrave
ENCODING 7891
SWIDTH 837 0
DWIDTH 8 0
BBX 9 14 0 -1
BITMAP
00005EA100
0004F58300
00122A6100
0390112000
0AD7A96000
0962222300
4C10002200
9B10E91110
AB10DA1110
AB10CA1110
AB11A82100
9E12221200
6FC6456100
08EFEA2000
ENDCHAR
STARTCHAR Ocircumflexhookabove
ENCODING 7892
SWIDTH 837 0
DWIDTH 8 0
BBX 9 15 0 -1
BITMAP
0000122100
0001DB5110
0002EB5730
001458EA00
03A0111000
0AD7A96000
0962222300
4C10002200
9B10E91110
AB10DA1110
AB10CA1110
AB11A82100
9E12221200
6FC6456100
08EFEA2000
ENDCHAR
STARTCHAR ocircumflexhookabove
ENCODING 7893
SWIDTH 837 0
DWIDTH 8 0
BBX 9 15 0 -1
BITMAP
0000122100
0001DB5110
0002EB5730
001458EA00
03A0111000
0AD7A96000
0962222300
4C10002200
9B10E91110
AB10DA1110
AB10CA1110
AB11A82100
9E12221200
6FC6456100
08EFEA2000
ENDCHAR
STARTCHAR Ocircumflextilde
ENCODING 7894
SWIDTH 837 0
DWIDTH 8 0
BBX 9 15 0 -1
BITMAP
0012212000
0181221000
09C3303000
0AFC784000
05A0111000
09D7A96000
0962222300
4C10002200
9B10E91110
AB10DA1110
AB10CA1110
AB11A82100
9E12221200
6FC6456100
08EFEA2000
ENDCHAR
STARTCHAR ocircumflextilde
ENCODING 7895
SWIDTH 837 0
DWIDTH 8 0
BBX 9 15 0 -1
BITMAP
0012212000
0181221000
09C3303000
0AFC784000
05A0111000
09D7A96000
0962222300
4C10002200
9B10E91110
AB10DA1110
AB10CA1110
AB11A82100
9E12221200
6FC6456100
08EFEA2000
ENDCHAR
STARTCHAR Ocircumflexdotbelow
ENCODING 7896
SWIDTH 837 0
DWIDTH 8 0
BBX 9 16 0 -5
BITMAP
0001220000
0053223000
06B1011000
0AD7A96000
0962222300
4C10002200
9B10E91110
AB10DA1110
AB10CA1110
AC11A82100
9E32221200
4FFA456000
02AA101000
00BB111000
00AFF50000
0023200000
ENDCHAR
STARTCHAR ocircumflexdotbelow
ENCODING 7897
SWIDTH 837 0
DWIDTH 8 0
BBX 9 16 0 -5
BITMAP
0001220000
0053223000
06B1011000
0AD7A96000
0962222300
4C10002200
9B10E91110
AB10DA1110
AB10CA1110
AC11A82100
9E32221200
4FFA456000
02AA101000
00BB111000
00AFF50000
0023200000
ENDCHAR
STARTCHAR Ohornacute
ENCODING 7898
SWIDTH 847 0
DWIDTH 8 0
BBX 9 12 0 -1
BITMAP
0000352000
02AC976210
0E50004020
0C43304220
4D10002110
9B20E91110
AB20DA1110
AB20CA1110
AB11A81100
AE12221200
8FC6456100
1AEFEA1000
ENDCHAR
STARTCHAR ohornacute
ENCODING 7899
SWIDTH 847 0
DWIDTH 8 0
BBX 9 12 0 -1
BITMAP
0000352000
02AC976210
0E50004020
0C43304220
4D10002110
9B20E91110
AB20DA1110
AB20CA1110
AB11A81100
AE12221200
8FC6456100
1AEFEA1000
ENDCHAR
STARTCHAR Ohorngrave
ENCODING 7900
SWIDTH 847 0
DWIDTH 8 0
BBX 9 12 0 -1
BITMAP
05EFEB4000
2F868A8210
2F50004020
0581232220
2C10002110
9B20E91110
AB20DA1110
AB20CA1110
AB11A81100
AE12221200
8FC6456100
1AEFEA1000
ENDCHAR
STARTCHAR ohorngrave
ENCODING 7901
SWIDTH 847 0
DWIDTH 8 0
BBX 9 12 0 -1
BITMAP
05EFEB4000
2F868A8210
2F50004020
0581232220
2C10002110
9B20E91110
AB20DA1110
AB20CA1110
AB11A81100
AE12221200
8FC6456100
1AEFEA1000
ENDCHAR
STARTCHAR Ohornhookabove
ENCODING 7902
SWIDTH 847 0
DWIDTH 8 0
BBX 9 13 0 -1
BITMAP
0003221000
00B6222000
00CE613210
008E579020
0241014220
2B10002110
8B20E91110
AB20DA1110
AB20CA1110
AB11A81100
AE12221200
8FC6456100
1AEFEA1000
ENDCHAR
STARTCHAR ohornhookabove
ENCODING 7903
SWIDTH 847 0
DWIDTH 8 0
BBX 9 13 0 -1
BITMAP
0003221000
00B6222000
00CE613210
008E579020
0241014220
2B10002110
8B20E91110
AB20DA1110
AB20CA1110
AB11A81100
AE12221200
8FC6456100
1AEFEA1000
ENDCHAR
STARTCHAR Ohorntilde
ENCODING 7904
SWIDTH 847 0
DWIDTH 8 0
BBX 9 12 0 -1
BITMAP
0022222000
0761103210
0F74205020
0A82014220
3C10002110
9B20E91110
AB20DA1110
AB20CA1110
AB11A81100
AE12221200
8FC6456100
1AEFEA1000
ENDCHAR
STARTCHAR ohorntilde
ENCODING 7905
SWIDTH 847 0
DWIDTH 8 0
BBX 9 12 0 -1
BITMAP
0022222000
0761103210
0F74205020
0A82014220
3C10002110
9B20E91110
AB20DA1110
AB20CA1110
AB11A81100
AE12221200
8FC6456100
1AEFEA1000
ENDCHAR
STARTCHAR Ohorndotbelow
ENCODING 7906
SWIDTH 847 0
DWIDTH 8 0
BBX 9 13 0 -4
BITMAP
0000003210
0021122220
0800014210
7B10C82110
AB20EA1110
AB20CA1110
AB10C92110
AC02221100
9F30000100
4FFA456000
02BB211000
00BFF90000
0023200000
ENDCHAR
STARTCHAR ohorndotbelow
ENCODING 7907
SWIDTH 847 0
DWIDTH 8 0
BBX 9 13 0 -4
BITMAP
0000003210
0021122220
0800014210
7B10C82110
AB20EA1110
AB20CA1110
AB10C92110
AC02221100
9F30000100
4FFA456000
02BB211000
00BFF90000
0023200000
ENDCHAR
STARTCHAR Udotbelow
ENCODING 7908
SWIDTH 846 0
DWIDTH 8 0
BBX 9 12 0 -4
BITMAP
0722272210
7C10AB2010
9C10CB2010
9C10CB2010
9C10CB2010
9C11542010
9D01221100
8F50000100
2EFB456000
01AB211000
00AFF90000
0023200000
ENDCHAR
STARTCHAR udotbelow
ENCODING 7909
SWIDTH 846 0
DWIDTH 8 0
BBX 9 12 0 -4
BITMAP
0722272210
7C10AB2010
9C10CB2010
9C10CB2010
9C10CB2010
9C11542010
9D01221100
8F50000100
2EFB456000
01AB211000
00AFF90000
0023200000
ENDCHAR
STARTCHAR Uhookabove
ENCODING 7910
SWIDTH 846 0
DWIDTH 8 0
BBX 9 13 0 -1
BITMAP
0002221000
004A122000
00AF732000
005F883000
0722CC2210
8C10AB2010
9C10CB2010
9C10CB2010
9C10CB2010
9C11542110
9E11221200
6FC6456200
08DFEB2000
ENDCHAR
STARTCHAR uhookabove
ENCODING 7911
SWIDTH 846 0
DWIDTH 8 0
BBX 9 13 0 -1
BITMAP
0002221000
004A122000
00AF732000
005F883000
0722CC2210
8C10AB2010
9C10CB2010
9C10CB2010
9C10CB2010
9C11542110
9E11221200
6FC6456200
08DFEB2000
ENDCHAR
STARTCHAR Uhornacute
ENCODING 7912
SWIDTH 856 0
DWIDTH 9 0
BBX 9 12 0 -1
BITMAP
0001453000
02BC977210
0E50017010
1D237B1220
8C10AB2120
9C10CB2010
9C10CB2010
9C10CB2010
9C11542110
9E11221200
7FC6456200
08EFEB2000
ENDCHAR
STARTCHAR uhornacute
ENCODING 7913
SWIDTH 856 0
DWIDTH 9 0
BBX 9 12 0 -1
BITMAP
0001453000
02BC977210
0E50017010
1D237B1220
8C10AB2120
9C10CB2010
9C10CB2010
9C10CB2010
9C11542110
9E11221200
7FC6456200
08EFEB2000
ENDCHAR
STARTCHAR Uhorngrave
ENCODING 7914
SWIDTH 856 0
DWIDTH 9 0
BBX 9 12 0 -1
BITMAP
03CDB83000
1E98AC9210
2F40006010
1C10A62220
8C10AB2120
9C10CB2010
9C10CB2010
9C10CB2010
9C11542110
9E11221200
7FC6456200
08EFEB2000
ENDCHAR
STARTCHAR uhorngrave
ENCODING 7915
SWIDTH 856 0
DWIDTH 9 0
BBX 9 12 0 -1
BITMAP
03CDB83000
1E98AC9210
2F40006010
1C10A62220
8C10AB2120
9C10CB2010
9C10CB2010
9C10CB2010
9C11542110
9E11221200
7FC6456200
08EFEB2000
ENDCHAR
STARTCHAR Uhornhookabove
ENCODING 7916
SWIDTH 856 0
DWIDTH 9 0
BBX 9 13 0 -1
BITMAP
0003221000
008A422000
009F524210
004F9CD010
0722CC1220
8C10AB2120
9C10CB2010
9C10CB2010
9C10CB2010
9C11542110
9E11221200
7FC6456200
08EFEB2000
ENDCHAR
STARTCHAR uhornhookabove
ENCODING 7917
SWIDTH 856 0
DWIDTH 9 0
BBX 9 13 0 -1
BITMAP
0003221000
008A422000
009F524210
004F9CD010
0722CC1220
8C10AB2120
9C10CB2010
9C10CB2010
9C10CB2010
9C11542110
9E11221200
7FC6456200
08EFEB2000
ENDCHAR
STARTCHAR Uhorntilde
ENCODING 7918
SWIDTH 856 0
DWIDTH 9 0
BBX 9 12 0 -1
BITMAP
0022111000
0751103210
1F64219010
1D22EC1220
9C10AB2120
9C10CB2010
9C10CB2010
9C10CB2010
9C11542110
9E11221200
6FC6456200
08EFEB2000
ENDCHAR
STARTCHAR uhorntilde
ENCODING 7919
SWIDTH 856 0
DWIDTH 9 0
BBX 9 12 0 -1
BITMAP
0022111000
0751103210
1F64219010
1D22EC1220
9C10AB2120
9C10CB2010
9C10CB2010
9C10CB2010
9C11542110
9E11221200
6FC6456200
08EFEB2000
ENDCHAR
STARTCHAR Uhorndotbelow
ENCODING 7920
SWIDTH 856 0
DWIDTH 9 0
BBX 9 13 0 -4
BITMAP
0000003210
0722251220
7C10AB2120
9C10CB2010
9C10CB2010
9C10CB2010
9C11542010
9D01221100
8F50000100
2EFB456000
01AB211000
00AFF90000
0023200000
ENDCHAR
STARTCHAR uhorndotbelow
ENCODING 7921
SWIDTH 856 0
DWIDTH 9 0
BBX 9 13 0 -4
BITMAP
0000003210
0722251220
7C10AB2120
9C10CB2010
9C10CB2010
9C10CB2010
9C11542010
9D01221100
8F50000100
2EFB456000
01AB211000
00AFF90000
0023200000
ENDCHAR
STARTCHAR Ygrave
ENCODING 7922
SWIDTH 805 0
DWIDTH 8 0
BBX 8 12 0 -1
BITMAP
00453100
07B8AC90
0E700010
19129422
B911C811
C911D621
CD122112
AF902110
2EF52110
05F81200
00DA4300
00CFC100
ENDCHAR
STARTCHAR ygrave
ENCODING 7923
SWIDTH 805 0
DWIDTH 8 0
BBX 8 12 0 -1
BITMAP
00453100
07B8AC90
0E700010
19129422
B911C811
C911D621
CD122112
AF902110
2EF52110
05F81200
00DA4300
00CFC100
ENDCHAR
STARTCHAR Ydotbelow
ENCODING 7924
SWIDTH 805 0
DWIDTH 8 0
BBX 8 12 0 -4
BITMAP
16232622
B911C811
C911D621
CD122112
8FA12110
0CF62110
02E81200
00DC6500
00C80200
00C92200
00DFE300
00231000
ENDCHAR
STARTCHAR ydotbelow
ENCODING 7925
SWIDTH 805 0
DWIDTH 8 0
BBX 8 12 0 -4
BITMAP
16232622
B911C811
C911D621
CD122112
8FA12110
0CF62110
02E81200
00DC6500
00C80200
00C92200
00DFE300
00231000
ENDCHAR
STARTCHAR Yhookabove
ENCODING 7926
SWIDTH 805 0
DWIDTH 8 0
BBX 8 13 0 -1
BITMAP
00032200
00A52120
01FD5210
00AD7500
1624B722
B911C811
C911D621
CD122112
AF902110
2EF52110
05F81200
00DA4300
00CFC100
ENDCHAR
STARTCHAR yhookabove
ENCODING 7927
SWIDTH 805 0
DWIDTH 8 0
BBX 8 13 0 -1
BITMAP
00032200
00A52120
01FD5210
00AD7500
1624B722
B911C811
C911D621
CD122112
AF902110
2EF52110
05F81200
00DA4300
00CFC100
ENDCHAR
STARTCHAR Ytilde
ENCODING 7928
SWIDTH 805 0
DWIDTH 8 0
BBX 8 12 0 -1
BITMAP
00121120
03812210
0C933010
1824E922
B911C811
C911D621
CD122112
AF902110
2EF52110
05F81200
00DA4300
00CFC100
ENDCHAR
STARTCHAR ytilde
ENCODING 7929
SWIDTH 805 0
DWIDTH 8 0
BBX 8 12 0 -1
BITMAP
00121120
03812210
0C933010
1824E922
B911C811
C911D621
CD122112
AF902110
2EF52110
05F81200
00DA4300
00CFC100
ENDCHAR
STARTCHAR enspace
ENCODING 8192
SWIDTH 500 0
DWIDTH 5 0
BBX 1 1 0 0
BITMAP
00
ENDCHAR
STARTCHAR emspace
ENCODING 8193
SWIDTH 1000 0
DWIDTH 10 0
BBX 1 1 0 0
BITMAP
00
ENDCHAR
STARTCHAR uni2002
ENCODING 8194
SWIDTH 500 0
DWIDTH 5 0
BBX 1 1 0 0
BITMAP
00
ENDCHAR
STARTCHAR uni2003
ENCODING 8195
SWIDTH 1000 0
DWIDTH 10 0
BBX 1 1 0 0
BITMAP
00
ENDCHAR
STARTCHAR space.tab_en
ENCODING 8199
SWIDTH 1100 0
DWIDTH 11 0
BBX 1 1 0 0
BITMAP
00
ENDCHAR
STARTCHAR uni2010
ENCODING 8208
SWIDTH 520 0
DWIDTH 5 0
BBX 6 5 0 1
BITMAP
022220
681211
D91120
DFFF50
244200
ENDCHAR
STARTCHAR figuredash
ENCODING 8210
SWIDTH 834 0
DWIDTH 8 0
BBX 8 5 0 1
BITMAP
02222222
3B022221
8D111112
8FFFFFE3
14444420
ENDCHAR
STARTCHAR endash
ENCODING 8211
SWIDTH 834 0
DWIDTH 8 0
BBX 8 5 0 1
BITMAP
02222222
3B022221
8D111112
8FFFFFE3
14444420
ENDCHAR
STARTCHAR emdash
ENCODING 8212
SWIDTH 1234 0
DWIDTH 12 0
BBX 12 5 0 1
BITMAP
022222222222
3B0222222221
8D1111111112
8FFFFFFFFFE3
144444444420
ENDCHAR
STARTCHAR horizontalbar
ENCODING 8213
SWIDTH 1234 0
DWIDTH 12 0
BBX 12 5 0 1
BITMAP
022222222222
3B0222222221
8D1111111112
8FFFFFFFFFE3
144444444420
ENDCHAR
STARTCHAR quoteleft
ENCODING 8216
SWIDTH 484 0
DWIDTH 5 0
BBX 5 6 0 2
BITMAP
023320
3A1620
AB1120
AB1120
AFFB10
243000
ENDCHAR
STARTCHAR quoteright
ENCODING 8217
SWIDTH 484 0
DWIDTH 5 0
BBX 5 6 0 2
BITMAP
062220
9B1220
AE7220
8D1220
7FC600
495000
ENDCHAR
STARTCHAR quotesinglbase
ENCODING 8218
SWIDTH 484 0
DWIDTH 5 0
BBX 5 6 0 -3
BITMAP
022210
6A1220
AE7220
8D1120
8FC700
484000
ENDCHAR
STARTCHAR quotedblleft
ENCODING 8220
SWIDTH 784 0
DWIDTH 8 0
BBX 8 6 0 2
BITMAP
02334332
4927B163
B9217111
CA118112
CFFEFFC2
24324310
ENDCHAR
STARTCHAR quotedblright
ENCODING 8221
SWIDTH 784 0
DWIDTH 8 0
BBX 8 6 0 2
BITMAP
16226222
A9127121
CD72A731
AB12C112
9FBAFC70
59439600
ENDCHAR
STARTCHAR quotedblbase
ENCODING 8222
SWIDTH 784 0
DWIDTH 8 0
BBX 8 6 0 -3
BITMAP
02223221
79127121
CD729731
AB11C112
9FCAFC70
48438500
ENDCHAR
STARTCHAR dagger
ENCODING 8224
SWIDTH 818 0
DWIDTH 8 0
BBX 8 9 0 -1
BITMAP
00272300
02772112
5A123222
BB442254
BFFB24E3
22AB2220
00AA1200
00BB4400
00BFD200
ENDCHAR
STARTCHAR daggerdbl
ENCODING 8225
SWIDTH 818 0
DWIDTH 8 0
BBX 8 9 0 -1
BITMAP
00282311
28123212
BC552255
BFFA23E5
27452133
9A123222
BC651275
8BEC45A1
00AFD200
ENDCHAR
STARTCHAR bullet
ENCODING 8226
SWIDTH 543 0
DWIDTH 5 0
BBX 6 6 0 0
BITMAP
021111
791212
C91212
CA1112
CFFF80
233300
ENDCHAR
STARTCHAR ellipsis
ENCODING 8230
SWIDTH 1210 0
DWIDTH 12 0
BBX 12 5 0 -1
BITMAP
022212221222
4A006500B001
AB028510D011
AC44B844E443
9FF9FFE9FFB1
ENDCHAR
STARTCHAR perthousand
ENCODING 8240
SWIDTH 1517 0
DWIDTH 15 0
BBX 16 9 0 -1
BITMAP
0233464210000000
58271D2100000000
C82A2A1000000000
C922171532352210
CD31451717172711
5EE8F2381A162912
0004D16810171012
0008C4BE779D7750
000AF77EE98EE900
ENDCHAR
STARTCHAR minute
ENCODING 8242
SWIDTH 456 0
DWIDTH 5 0
BBX 5 6 0 2
BITMAP
072220
7C1010
9B2010
AB1110
AFF600
242000
ENDCHAR
STARTCHAR second
ENCODING 8243
SWIDTH 766 0
DWIDTH 8 0
BBX 8 6 0 2
BITMAP
07227222
7C10B021
9B20B112
AB11D112
AFFCFF70
24214300
ENDCHAR
STARTCHAR guilsinglleft
ENCODING 8249
SWIDTH 663 0
DWIDTH 7 0
BBX 7 7 0 -1
BITMAP
00222210
07122110
7B118600
AD122110
8FC74210
18CFF600
00001000
ENDCHAR
STARTCHAR guilsinglright
ENCODING 8250
SWIDTH 663 0
DWIDTH 7 0
BBX 7 7 0 -1
BITMAP
08122100
6F022110
6FD81110
1C022110
6F147300
6FDA4000
11000000
ENDCHAR
STARTCHAR fraction
ENCODING 8260
SWIDTH 417 0
DWIDTH 4 0
BBX 6 9 -1 -1
BITMAP
002522
00D412
02F221
04E120
07B120
098120
0C6120
0F7410
2FE400
ENDCHAR
STARTCHAR zero.sups
ENCODING 8304
SWIDTH 656 0
DWIDTH 7 0
BBX 6 7 0 1
BITMAP
022221
461B31
961E42
961D32
961011
8C3122
2BED60
ENDCHAR
STARTCHAR foursuperior
ENCODING 8308
SWIDTH 608 0
DWIDTH 6 0
BBX 6 8 0 0
BITMAP
272732
C92C31
C92831
CC3221
AFFF31
037FC9
004FD2
000100
ENDCHAR
STARTCHAR five.sups
ENCODING 8309
SWIDTH 593 0
DWIDTH 6 0
BBX 6 8 0 0
BITMAP
183322
9C1482
9C1111
9EAA11
6B1111
AB1111
AFFF50
243200
ENDCHAR
STARTCHAR six.sups
ENCODING 8310
SWIDTH 628 0
DWIDTH 6 0
BBX 7 8 0 0
BITMAP
02333200
2A158300
9B211300
AB184210
AB100200
9E412100
3EFE6000
00100000
ENDCHAR
STARTCHAR seven.sups
ENCODING 8311
SWIDTH 577 0
DWIDTH 6 0
BBX 6 8 0 0
BITMAP
163332
B91111
DFF921
364211
2E2340
5F2200
5FE400
132000
ENDCHAR
STARTCHAR eight.sups
ENCODING 8312
SWIDTH 638 0
DWIDTH 6 0
BBX 7 8 0 0
BITMAP
01123200
1B174200
6D323300
6A100110
7A1B6110
BE412000
6EFE7000
00100000
ENDCHAR
STARTCHAR nine.sups
ENCODING 8313
SWIDTH 628 0
DWIDTH 6 0
BBX 6 8 0 0
BITMAP
022332
291A32
A91103
BC1103
9FB822
2E4232
3FFF80
033200
ENDCHAR
STARTCHAR parenleft.sups
ENCODING 8317
SWIDTH 434 0
DWIDTH 4 0
BBX 4 8 0 1
BITMAP
0111
2523
A422
B420
B420
B511
AA21
4DD3
ENDCHAR
STARTCHAR parenright.sups
ENCODING 8318
SWIDTH 435 0
DWIDTH 4 0
BBX 4 8 0 1
BITMAP
0210
9521
9F21
0E31
0E31
0C21
6522
9D70
ENDCHAR
STARTCHAR n.sups
ENCODING 8319
SWIDTH 673 0
DWIDTH 7 0
BBX 6 7 0 1
BITMAP
022231
371822
871D42
871C42
871C42
870C41
7E7AE5
ENDCHAR
STARTCHAR zero.sinf
ENCODING 8320
SWIDTH 656 0
DWIDTH 7 0
BBX 6 7 0 -1
BITMAP
022221
461B31
961E42
961D32
961011
8C3122
2BED60
ENDCHAR
STARTCHAR one.sinf
ENCODING 8321
SWIDTH 557 0
DWIDTH 6 0
BBX 6 8 0 -2
BITMAP
072320
7C0120
9FB120
2CB120
097121
9A1112
BFFFB1
244300
ENDCHAR
STARTCHAR two.sinf
ENCODING 8322
SWIDTH 585 0
DWIDTH 6 0
BBX 6 8 0 -2
BITMAP
072331
7E9721
7E7212
171151
A82741
D91112
DFFFC2
344310
ENDCHAR
STARTCHAR three.sinf
ENCODING 8323
SWIDTH 584 0
DWIDTH 6 0
BBX 6 8 0 -2
BITMAP
273321
BEA411
5E4231
2EB912
3A1111
BA1110
BFFF50
243200
ENDCHAR
STARTCHAR four.sinf
ENCODING 8324
SWIDTH 620 0
DWIDTH 6 0
BBX 6 8 0 -2
BITMAP
262732
D82D21
D82921
DB3221
BFFF21
137FB8
005FC1
000100
ENDCHAR
STARTCHAR five.sinf
ENCODING 8325
SWIDTH 593 0
DWIDTH 6 0
BBX 6 8 0 -2
BITMAP
183322
9C1482
9C1111
9EAA11
6B1111
AB1111
AFFF50
243200
ENDCHAR
STARTCHAR six.sinf
ENCODING 8326
SWIDTH 628 0
DWIDTH 6 0
BBX 7 8 0 -2
BITMAP
02333200
2A158300
9B211300
AB184210
AB100200
9E412100
3EFE6000
00100000
ENDCHAR
STARTCHAR seven.sinf
ENCODING 8327
SWIDTH 577 0
DWIDTH 6 0
BBX 6 8 0 -2
BITMAP
163332
B91111
DFF921
364211
2E2340
5F2200
5FE400
132000
ENDCHAR
STARTCHAR eight.sinf
ENCODING 8328
SWIDTH 638 0
DWIDTH 6 0
BBX 7 8 0 -2
BITMAP
01123200
1B174200
6D323300
6A100110
7A1B6110
BE412000
6EFE7000
00100000
ENDCHAR
STARTCHAR nine.sinf
ENCODING 8329
SWIDTH 628 0
DWIDTH 6 0
BBX 6 8 0 -2
BITMAP
022332
291A32
A91103
BC1103
9FB822
2E4232
3FFF80
033200
ENDCHAR
STARTCHAR parenleft.sinf
ENCODING 8333
SWIDTH 434 0
DWIDTH 4 0
BBX 4 8 0 -1
BITMAP
0111
2523
A422
B420
B420
B511
AA21
4DD3
ENDCHAR
STARTCHAR parenright.sinf
ENCODING 8334
SWIDTH 435 0
DWIDTH 4 0
BBX 4 8 0 -1
BITMAP
0210
9521
9F21
0E31
0E31
0C21
6522
9D70
ENDCHAR
STARTCHAR colonsign
ENCODING 8353
SWIDTH 728 0
DWIDTH 7 0
BBX 8 11 0 -3
BITMAP
00021210
00301150
04022321
5B10EF80
9B104200
AB102220
AE022201
8FB42131
2EFB6430
01BEF700
00212000
ENDCHAR
STARTCHAR lira
ENCODING 8356
SWIDTH 795 0
DWIDTH 8 0
BBX 8 9 0 -1
BITMAP
00322220
1B121110
6B117700
C9125000
E5221501
EB107511
AD021111
8E444443
7FFFFFB1
ENDCHAR
STARTCHAR naira
ENCODING 8358
SWIDTH 853 0
DWIDTH 9 0
BBX 9 9 0 -1
BITMAP
0722272210
7D123B1010
8A10221020
C900311130
E520B12110
EC10E72020
BD10EC1010
8E44BD4310
7FE49FD300
ENDCHAR
STARTCHAR peseta
ENCODING 8359
SWIDTH 812 0
DWIDTH 8 0
BBX 10 9 -1 -1
BITMAP
0082222200
08D0212210
09911E6310
1F91193133
0DD1211040
08D1111420
08D11DD300
08E4440000
07FE600000
ENDCHAR
STARTCHAR dong
ENCODING 8363
SWIDTH 782 0
DWIDTH 8 0
BBX 8 12 0 -4
BITMAP
00024222
003A1321
009DA113
04222311
5914A111
C817E111
D9111110
BE400120
4E9A9810
3E211120
5FFFFB10
13443000
ENDCHAR
STARTCHAR Euro
ENCODING 8364
SWIDTH 748 0
DWIDTH 7 0
BBX 8 9 0 -1
BITMAP
00322222
09211102
4D015681
AB113620
B8222110
DE014621
9F311102
4FD64441
09EFFE40
ENDCHAR
STARTCHAR peso
ENCODING 8369
SWIDTH 812 0
DWIDTH 8 0
BBX 9 9 0 -1
BITMAP
0822222100
8A00000110
C911E61210
E521621010
EC12110400
ED11112000
8D11DC1000
8E44400000
8FE6000000
ENDCHAR
STARTCHAR guarani
ENCODING 8370
SWIDTH 788 0
DWIDTH 8 0
BBX 8 11 0 -2
BITMAP
00021200
00471121
05122202
4B20AB81
9B219A21
AB219501
AC207211
9E222211
5FE71182
05DEA740
00697000
ENDCHAR
STARTCHAR cedi
ENCODING 8373
SWIDTH 728 0
DWIDTH 7 0
BBX 8 11 0 -3
BITMAP
00021140
00351070
05122221
5B10EF80
9B104200
AB102220
AE122101
8FD61041
2EFB1340
00BFE300
00232000
ENDCHAR
STARTCHAR indianrupee
ENCODING 8377
SWIDTH 713 0
DWIDTH 7 0
BBX 7 9 0 -1
BITMAP
17334330
AB211030
8C873240
BD861370
7A122120
BB110220
BFFF8220
244DB430
000CFC20
ENDCHAR
STARTCHAR turkishlira
ENCODING 8378
SWIDTH 795 0
DWIDTH 8 0
BBX 9 9 -1 -1
BITMAP
0072210000
09B2030000
0A53240000
1E83132110
1E720C9110
1EB2073210
0AB1112110
0AD4445400
09FFFD7000
ENDCHAR
STARTCHAR ruble
ENCODING 8381
SWIDTH 782 0
DWIDTH 8 0
BBX 8 9 0 -1
BITMAP
06222221
6D112211
8D10E611
8D103121
8D122212
8B106B60
A7223500
FE446000
8FE50000
ENDCHAR
STARTCHAR liter
ENCODING 8467
SWIDTH 749 0
DWIDTH 7 0
BBX 8 10 0 -2
BITMAP
00122200
04111120
4B116101
9B21A101
AB211210
AB207720
AC121120
9F721120
3EFFFA00
00233000
ENDCHAR
STARTCHAR uni2117
ENCODING 8471
SWIDTH 967 0
DWIDTH 10 0
BBX 10 12 0 -3
BITMAP
0000111000
0033343320
093ABBCB31
7B57211851
9B572C2651
AB57332751
AB57278E51
AC58273F41
9E49823921
5FC7434620
07DFFFC300
0001100000
ENDCHAR
STARTCHAR uni2120
ENCODING 8480
SWIDTH 1003 0
DWIDTH 10 0
BBX 10 7 0 1
BITMAP
0011111021
1622562622
B826B62222
CE73364642
8811564F42
DEDBFE7FD3
4540430520
ENDCHAR
STARTCHAR trademark
ENCODING 8482
SWIDTH 1003 0
DWIDTH 10 0
BBX 11 7 -1 1
BITMAP
002112110210
085122626220
1FF64F622220
03F64F646420
00F63F64F420
00FE6FE7FD30
004304305200
ENDCHAR
STARTCHAR Omega
ENCODING 8486
SWIDTH 877 0
DWIDTH 9 0
BBX 9 10 0 -2
BITMAP
0002222000
0231221200
1D02442010
6E02CD1110
7E029D1110
7F129D1110
6902562020
C811451120
DFFEFFFC20
2331233100
ENDCHAR
STARTCHAR estimated
ENCODING 8494
SWIDTH 815 0
DWIDTH 8 0
BBX 8 10 0 -2
BITMAP
00122220
03111212
4B116221
AA117411
BA222221
BA11BBB4
BC122221
9F611101
2DFFFF60
00233200
ENDCHAR
STARTCHAR onethird
ENCODING 8531
SWIDTH 1269 0
DWIDTH 13 0
BBX 13 9 0 -1
BITMAP
18232372200000
9F912C61200000
5DB12E41533200
09811E22E93300
39121912E22210
BA111715EA8110
BFFFE816700110
2443D94AA55400
0000EF6DFFC100
ENDCHAR
STARTCHAR twothirds
ENCODING 8532
SWIDTH 1269 0
DWIDTH 13 0
BBX 13 9 0 -1
BITMAP
18233472200000
8E752861200000
4B942B41533200
49156E22E93300
B8104612E22210
D9111415EA8110
DFFFF816700110
3443D94AA55400
0000EF6DFFC200
ENDCHAR
STARTCHAR oneeighth
ENCODING 8539
SWIDTH 1283 0
DWIDTH 13 0
BBX 13 9 0 -1
BITMAP
18332472200000
9FB12D61112200
4DB12F41411110
08613D21739110
39121914732220
BA11171624C110
BFFFD819300110
2443D94CA54400
0000EF7CFFB100
ENDCHAR
STARTCHAR threeeighths
ENCODING 8540
SWIDTH 1293 0
DWIDTH 13 0
BBX 13 9 0 -1
BITMAP
27332482200000
BFA42C82112200
5E422A52411120
2EB9163282A120
3A111622922220
BA11292533E110
BFFEBA17400110
2431BA4BB54400
0000CF7BFFB200
ENDCHAR
STARTCHAR fiveeighths
ENCODING 8541
SWIDTH 1303 0
DWIDTH 13 0
BBX 13 9 0 -1
BITMAP
18332382200000
9C135B91112200
9C111771412120
9EAA154181A110
6B111622A22220
AB112A1342E210
AFFEAB16510110
24329B4AC54500
0000BF8AEFC300
ENDCHAR
STARTCHAR seveneighths
ENCODING 8542
SWIDTH 1241 0
DWIDTH 12 0
BBX 13 9 0 -1
BITMAP
37343742100000
DFFA1921112100
35611814112200
0D32AA17274200
4F22C718323200
5F20E5171A6110
5FD3F22A100110
1314F46F745200
0005FC7EFE7000
ENDCHAR
STARTCHAR arrowleft
ENCODING 8592
SWIDTH 1100 0
DWIDTH 11 0
BBX 9 8 1 -1
BITMAP
0000021000
0001202000
0021222110
0912021120
6FD4218810
07FF918200
003CFA1000
0000500000
ENDCHAR
STARTCHAR arrowup
ENCODING 8593
SWIDTH 1100 0
DWIDTH 11 0
BBX 8 8 2 -1
BITMAP
00042000
00821200
04621110
19022220
9B821761
ABF41810
02F85100
01CC4000
ENDCHAR
STARTCHAR arrowright
ENCODING 8594
SWIDTH 1100 0
DWIDTH 11 0
BBX 9 8 1 -1
BITMAP
0001210000
002D211000
0337131200
3E01112020
6FAA132400
38AF244000
004F810000
0014000000
ENDCHAR
STARTCHAR arrowdown
ENCODING 8595
SWIDTH 1100 0
DWIDTH 11 0
BBX 8 8 2 -1
BITMAP
00431100
02F41200
15411221
DC122220
AF822110
1EF31100
04FD3000
00870000
ENDCHAR
STARTCHAR arrowupleft
ENCODING 8598
SWIDTH 1100 0
DWIDTH 11 0
BBX 7 8 2 -1
BITMAP
01210000
48112210
CB213120
AE122200
7F212120
4F7CD210
1D49E400
00001000
ENDCHAR
STARTCHAR arrowupright
ENCODING 8599
SWIDTH 1100 0
DWIDTH 11 0
BBX 7 8 2 -1
BITMAP
00000210
02121120
5E322220
5FA13220
07112110
9E39E410
5F86D300
01000000
ENDCHAR
STARTCHAR arrowdownright
ENCODING 8600
SWIDTH 1100 0
DWIDTH 11 0
BBX 7 8 2 -1
BITMAP
00100100
03123110
5C221120
9FB13220
09121210
5EA74120
38BEFE30
00002100
ENDCHAR
STARTCHAR arrowdownleft
ENCODING 8601
SWIDTH 1100 0
DWIDTH 11 0
BBX 7 8 2 -1
BITMAP
00100200
04425020
1F111120
4E122200
7B222020
A9146820
CFDB8200
21000000
ENDCHAR
STARTCHAR uni21AA
ENCODING 8618
SWIDTH 1100 0
DWIDTH 11 0
BBX 9 10 1 -2
BITMAP
0022222200
0722111200
4E14EED400
7E14B43000
7E14D01200
7F22223120
5FD8702220
07BDD05200
0007E50000
0005300000
ENDCHAR
STARTCHAR uni21AB
ENCODING 8619
SWIDTH 1100 0
DWIDTH 11 0
BBX 9 10 1 -2
BITMAP
0042222210
07B1111120
0AFEEEB220
024456E220
001207B220
0412322120
7F81247500
3DFC357000
008FF50000
0004600000
ENDCHAR
STARTCHAR uni21B0
ENCODING 8624
SWIDTH 1100 0
DWIDTH 11 0
BBX 9 10 1 -2
BITMAP
0000010000
0001220000
0011021000
0502322110
9F81153210
3DFC379110
008FFC9110
00034C9020
00000CFA00
0000023000
ENDCHAR
STARTCHAR uni21B1
ENCODING 8625
SWIDTH 1100 0
DWIDTH 11 0
BBX 9 9 1 -2
BITMAP
0002821000
000AC01200
0131232020
1D22711310
5F24C15100
5F24D40000
5F13200000
5FD3000000
1310000000
ENDCHAR
STARTCHAR uni21B2
ENCODING 8626
SWIDTH 1100 0
DWIDTH 11 0
BBX 9 10 1 -2
BITMAP
0000000100
0000027020
00001A9110
0001179110
0121153210
2902322210
AFC308B200
08FF841000
003DD30000
0000100000
ENDCHAR
STARTCHAR uni21B3
ENCODING 8627
SWIDTH 1100 0
DWIDTH 11 0
BBX 9 10 1 -2
BITMAP
0010000000
1802000000
8C11210000
8C16912000
8D13611210
8F41132020
4FFD912400
025C843000
000D910000
0001000000
ENDCHAR
STARTCHAR partialdiff
ENCODING 8706
SWIDTH 792 0
DWIDTH 8 0
BBX 8 10 0 -2
BITMAP
00111100
07611211
0F944021
0DA66221
18111131
9911E321
BA115121
BE412221
5FFEDB20
01554000
ENDCHAR
STARTCHAR Delta
ENCODING 8710
SWIDTH 830 0
DWIDTH 8 0
BBX 8 10 0 -2
BITMAP
00021110
01801110
09821111
0D42A221
2F11D621
5C21F921
9A202121
AB011112
AFFFFFE5
13333320
ENDCHAR
STARTCHAR product
ENCODING 8719
SWIDTH 859 0
DWIDTH 9 0
BBX 9 10 0 -2
BITMAP
0111111100
2A01112020
8D10431020
8D10DC1020
8D10BC1020
8D10BC1020
8D10BC1020
8D00BC0020
8FF79FF700
1320132000
ENDCHAR
STARTCHAR summation
ENCODING 8721
SWIDTH 750 0
DWIDTH 8 0
BBX 8 11 0 -3
BITMAP
01111110
2A011101
9C111441
9F411930
4FF52010
04D22110
03222210
59211102
CA111112
BFFFFF70
11111100
ENDCHAR
STARTCHAR minus
ENCODING 8722
SWIDTH 834 0
DWIDTH 8 0
BBX 8 4 0 1
BITMAP
03111112
4C022211
8FAAAAA4
48888850
ENDCHAR
STARTCHAR uni2215
ENCODING 8725
SWIDTH 417 0
DWIDTH 4 0
BBX 6 9 -1 -1
BITMAP
002522
00D412
02F221
04E120
07B120
098120
0C6120
0F7410
2FE400
ENDCHAR
STARTCHAR uni2219
ENCODING 8729
SWIDTH 464 0
DWIDTH 5 0
BBX 5 5 0 1
BITMAP
022210
690020
C91020
CB4420
BFF600
ENDCHAR
STARTCHAR radical
ENCODING 8730
SWIDTH 841 0
DWIDTH 8 0
BBX 9 11 0 -2
BITMAP
0000001210
0000054020
00001F1120
00115C2100
3611992200
E712962200
EF92321200
2CE1111100
07F6112000
01FFFC2000
0023310000
ENDCHAR
STARTCHAR infinity
ENCODING 8734
SWIDTH 978 0
DWIDTH 10 0
BBX 10 8 0 -1
BITMAP
0012112220
0612222212
8915536621
C918A28921
C922332321
CE43362231
6FFEDFFD30
0020022000
ENDCHAR
STARTCHAR integral
ENCODING 8747
SWIDTH 574 0
DWIDTH 6 0
BBX 7 12 -1 -3
BITMAP
00000210
00031120
00672130
00E61320
00F61200
00F61200
00F61200
00F51200
05512200
1F623100
1FFB2000
01000000
ENDCHAR
STARTCHAR approxequal
ENCODING 8776
SWIDTH 834 0
DWIDTH 8 0
BBX 8 7 0 0
BITMAP
00112111
07112211
7D354223
8EDACEB2
18021111
8D475333
7DBDFE80
ENDCHAR
STARTCHAR notequal
ENCODING 8800
SWIDTH 834 0
DWIDTH 8 0
BBX 8 8 0 -1
BITMAP
00134231
19022311
8D321133
8FFC13D3
19023211
8D311233
8FF94CD2
00DD5000
ENDCHAR
STARTCHAR lessequal
ENCODING 8804
SWIDTH 814 0
DWIDTH 8 0
BBX 8 10 0 -2
BITMAP
00000011
00122111
03221122
3E108C70
6F121221
6FB41111
1D222001
5F011111
6FFFFFB1
13333300
ENDCHAR
STARTCHAR greaterequal
ENCODING 8805
SWIDTH 814 0
DWIDTH 8 0
BBX 8 10 0 -2
BITMAP
01210000
1C112210
5F411112
4FFEA312
01762112
1C111341
5F101222
5F111112
5FFFFFC1
03333300
ENDCHAR
STARTCHAR block
ENCODING 9608
SWIDTH 1000 0
DWIDTH 10 0
BBX 12 11 -1 -2
BITMAP
6EEEEEEEEEE6
6FFFFFFFFFF6
6FFFFFFFFFF6
6FFFFFFFFFF6
6FFFFFFFFFF6
6FFFFFFFFFF6
6FFFFFFFFFF6
6FFFFFFFFFF6
6FFFFFFFFFF6
6FFFFFFFFFF6
4BBBBBBBBBB4
ENDCHAR
STARTCHAR blacksquare
ENCODING 9632
SWIDTH 1100 0
DWIDTH 11 0
BBX 7 6 2 0
BITMAP
06222220
5E022020
7E011020
7E012020
7F666620
4CCCC400
ENDCHAR
STARTCHAR blackuppointingtriangle
ENCODING 9650
SWIDTH 1100 0
DWIDTH 11 0
BBX 7 6 2 0
BITMAP
00042000
00920200
04712110
0A022020
7B666650
ACCCCB10
ENDCHAR
STARTCHAR whiteuppointingtriangle
ENCODING 9651
SWIDTH 1100 0
DWIDTH 11 0
BBX 6 5 3 1
BITMAP
003400
022030
040021
310004
333334
ENDCHAR
STARTCHAR blackrightpointingtriangle
ENCODING 9654
SWIDTH 1100 0
DWIDTH 11 0
BBX 7 8 2 -1
BITMAP
02200000
3C021000
7E020210
7E032020
7E013400
7E163000
7E600000
11000000
ENDCHAR
STARTCHAR whiterightpointingtriangle
ENCODING 9655
SWIDTH 1100 0
DWIDTH 11 0
BBX 6 7 3 0
BITMAP
130000
303200
300131
300013
300330
324100
020000
ENDCHAR
STARTCHAR blackdownpointingtriangle
ENCODING 9660
SWIDTH 1100 0
DWIDTH 11 0
BBX 7 6 2 0
BITMAP
37111130
DE123020
7F901200
0CF30100
04FD3000
00870000
ENDCHAR
STARTCHAR whitedownpointingtriangle
ENCODING 9661
SWIDTH 1100 0
DWIDTH 11 0
BBX 6 5 3 1
BITMAP
433335
220003
040030
013120
002300
ENDCHAR
STARTCHAR blackleftpointingtriangle
ENCODING 9664
SWIDTH 1100 0
DWIDTH 11 0
BBX 7 8 2 -1
BITMAP
00000110
00012020
00211120
09112120
6FE60120
06EFC320
0019FC10
00003100
ENDCHAR
STARTCHAR whiteleftpointingtriangle
ENCODING 9665
SWIDTH 1100 0
DWIDTH 11 0
BBX 6 7 3 0
BITMAP
000032
001413
032003
220003
023003
000333
000011
ENDCHAR
STARTCHAR blackdiamond
ENCODING 9670
SWIDTH 1100 0
DWIDTH 11 0
BBX 9 8 1 -1
BITMAP
0000120000
0002102000
0021120200
0440211110
1EE3110100
06FE311000
006FD20000
0005300000
ENDCHAR
STARTCHAR lozenge
ENCODING 9674
SWIDTH 831 0
DWIDTH 8 0
BBX 8 10 0 -2
BITMAP
00021110
00712120
06821111
0C22A321
4D10E721
8F328221
4F921211
0CF20020
05FFFA10
00333000
ENDCHAR
STARTCHAR uni25D6
ENCODING 9686
SWIDTH 546 0
DWIDTH 5 0
BBX 6 11 0 -2
BITMAP
0038CC
05EFFD
3EFFFD
9FFFFD
CFFFFD
DFFFFD
CFFFFD
8FFFFD
2DFFFD
03CFFD
001699
ENDCHAR
STARTCHAR uni25D7
ENCODING 9687
SWIDTH 546 0
DWIDTH 5 0
BBX 7 11 -1 -2
BITMAP
6DB50000
6FFFA100
6FFFF800
6FFFFE20
6FFFFF40
6FFFFF50
6FFFFF40
6FFFFD10
6FFFF700
6FFE8000
4A830000
ENDCHAR
STARTCHAR uni25DC
ENCODING 9692
SWIDTH 1280 0
DWIDTH 13 0
BBX 11 11 1 -2
BITMAP
000026ACDEA0
0018EFFFFFB0
01AFFFFFFFB0
08FFFFFFFFB0
2EFFFFFFFFB0
6FFFFFFFFFB0
AFFFFFFFFFB0
CFFFFFFFFFB0
DFFFFFFFFFB0
EFFFFFFFFFB0
ABBBBBBBBB80
ENDCHAR
STARTCHAR uni25DD
ENCODING 9693
SWIDTH 1280 0
DWIDTH 13 0
BBX 11 11 1 -2
BITMAP
CEDC95100000
EFFFFFD60000
EFFFFFFF8000
EFFFFFFFE500
EFFFFFFFFC00
EFFFFFFFFF40
EFFFFFFFFF70
EFFFFFFFFF90
EFFFFFFFFFA0
EFFFFFFFFFB0
ABBBBBBBBB80
ENDCHAR
STARTCHAR uni25DE
ENCODING 9694
SWIDTH 1280 0
DWIDTH 13 0
BBX 11 11 1 -2
BITMAP
DEEEEEEEEEA0
EFFFFFFFFFB0
EFFFFFFFFFA0
EFFFFFFFFF90
EFFFFFFFFF60
EFFFFFFFFE30
EFFFFFFFFB00
EFFFFFFFE400
EFFFFFFE6000
EFFFFEB40000
ABA963000000
ENDCHAR
STARTCHAR uni25DF
ENCODING 9695
SWIDTH 1280 0
DWIDTH 13 0
BBX 11 11 1 -2
BITMAP
CEEEEEEEEEA0
EFFFFFFFFFB0
DFFFFFFFFFB0
CFFFFFFFFFB0
9FFFFFFFFFB0
5FFFFFFFFFB0
1DFFFFFFFFB0
06FFFFFFFFB0
008EFFFFFFB0
0005CFFFFFB0
00000479AB80
ENDCHAR
STARTCHAR uni261A
ENCODING 9754
SWIDTH 1100 0
DWIDTH 11 0
BBX 9 8 1 -1
BITMAP
0000000110
0321113310
BC94100210
79F9100210
00DC100210
00AFBAB520
003787FD20
0000002100
ENDCHAR
STARTCHAR uni261B
ENCODING 9755
SWIDTH 1100 0
DWIDTH 11 0
BBX 9 8 1 -1
BITMAP
0110000000
3903111220
BA01002950
BA01004700
BA01013000
BB1CAA2000
BF97720000
1100000000
ENDCHAR
STARTCHAR uni261C
ENCODING 9756
SWIDTH 1100 0
DWIDTH 11 0
BBX 8 6 2 1
BITMAP
00000022
3333334A
2352003A
0042003A
0043003A
0013335A
ENDCHAR
STARTCHAR uni261D
ENCODING 9757
SWIDTH 1100 0
DWIDTH 11 0
BBX 6 9 3 -1
BITMAP
030000
033000
036200
123561
120022
030003
253343
688888
011111
ENDCHAR
STARTCHAR uni261E
ENCODING 9758
SWIDTH 1100 0
DWIDTH 11 0
BBX 8 7 2 0
BITMAP
13000000
75433334
75101443
75101500
75102500
67433200
01000000
ENDCHAR
STARTCHAR uni261F
ENCODING 9759
SWIDTH 1100 0
DWIDTH 11 0
BBX 6 9 3 -1
BITMAP
244443
555556
163354
030003
031103
045433
000233
000053
000010
ENDCHAR
STARTCHAR uni27A1
ENCODING 10145
SWIDTH 650 0
DWIDTH 7 0
BBX 8 15 -1 -4
BITMAP
0B800000
0CE50000
6EFD2000
6FFFB100
6FFFF800
6FFFFE50
6FFFFFD2
6FFFFFF4
6FFFFFC1
6FFFFE30
6FFFF600
6FFF9000
4EFC1000
0CE30000
08500000
ENDCHAR
STARTCHAR uni2B1B
ENCODING 11035
SWIDTH 1280 0
DWIDTH 13 0
BBX 11 11 1 -2
BITMAP
CEEEEEEEEEA0
EFFFFFFFFFB0
EFFFFFFFFFB0
EFFFFFFFFFB0
EFFFFFFFFFB0
EFFFFFFFFFB0
EFFFFFFFFFB0
EFFFFFFFFFB0
EFFFFFFFFFB0
EFFFFFFFFFB0
ABBBBBBBBB80
ENDCHAR
STARTCHAR uni2B24
ENCODING 11044
SWIDTH 1280 0
DWIDTH 13 0
BBX 13 13 0 -3
BITMAP
00000231000000
0006CEEEB40000
009FFFFFFE7000
06FFFFFFFFE400
0DFFFFFFFFFA00
3EFFFFFFFFFD00
3FFFFFFFFFFD10
3EFFFFFFFFFD00
0DFFFFFFFFFA00
06FFFFFFFFE400
009FFFFFFE7000
0006CEEEB40000
00000231000000
ENDCHAR
STARTCHAR A.salt
ENCODING 57600
SWIDTH 836 0
DWIDTH 8 0
BBX 8 10 0 -2
BITMAP
00122220
03212212
3C116321
8C10F911
9C104311
9C122231
9C10D811
9C01DA02
9FF6BFE4
13202310
ENDCHAR
STARTCHAR Agrave.salt
ENCODING 57601
SWIDTH 836 0
DWIDTH 8 0
BBX 8 12 0 -2
BITMAP
00411110
07B11110
0AFA7560
05312212
3C116322
8C10F911
9C104311
9C122231
9C10D811
9C01DA02
9FF6BFE4
13202310
ENDCHAR
STARTCHAR Aacute.salt
ENCODING 57602
SWIDTH 836 0
DWIDTH 8 0
BBX 8 12 0 -2
BITMAP
00011121
02A01101
08E55870
07312212
3C116322
8C10F911
9C104311
9C122231
9C10D811
9C01DA02
9FF6BFE4
13202310
ENDCHAR
STARTCHAR Acircumflex.salt
ENCODING 57603
SWIDTH 836 0
DWIDTH 8 0
BBX 8 12 0 -2
BITMAP
00121220
02912210
0AD79860
09312212
3C116322
8C10F911
9C104311
9C122231
9C10D811
9C01DA02
9FF6BFE4
13202310
ENDCHAR
STARTCHAR Atilde.salt
ENCODING 57604
SWIDTH 836 0
DWIDTH 8 0
BBX 8 12 0 -2
BITMAP
00122120
03912110
0AD75450
08312212
3C116321
8C10F911
9C104311
9C122231
9C10D811
9C01DA02
9FF6BFE4
13202310
ENDCHAR
STARTCHAR Adieresis.salt
ENCODING 57605
SWIDTH 836 0
DWIDTH 8 0
BBX 8 12 0 -2
BITMAP
00313211
09717111
0EC67561
0A312212
3C116322
8C10F911
9C104311
9C122231
9C10D811
9C01DA02
9FF6BFE4
13202310
ENDCHAR
STARTCHAR Aring.salt
ENCODING 57606
SWIDTH 836 0
DWIDTH 8 0
BBX 8 12 0 -2
BITMAP
00112220
03825320
0BA29421
0B323312
3C116321
8C10F911
9C104311
9C122231
9C10D811
9C01DA02
9FF6BFE4
13202310
ENDCHAR
STARTCHAR Amacron.salt
ENCODING 57607
SWIDTH 836 0
DWIDTH 8 0
BBX 8 12 0 -2
BITMAP
00111120
03A11110
0AE64460
08312212
3C116322
8C10F911
9C104311
9C122231
9C10D811
9C01DA02
9FF6BFE4
13202310
ENDCHAR
STARTCHAR Abreve.salt
ENCODING 57608
SWIDTH 836 0
DWIDTH 8 0
BBX 8 12 0 -2
BITMAP
00523521
09C22220
0AF84540
05312212
3C116322
8C10F911
9C104311
9C122231
9C10D811
9C01DA02
9FF6BFE4
13202310
ENDCHAR
STARTCHAR Aogonek.salt
ENCODING 57609
SWIDTH 836 0
DWIDTH 8 0
BBX 8 12 0 -4
BITMAP
00122220
03212212
3C116321
8C10F911
9C104311
9C122231
9C10D811
9C01D922
9FF6C724
1320EA33
0000CFE3
00000100
ENDCHAR
STARTCHAR E.salt
ENCODING 57610
SWIDTH 743 0
DWIDTH 7 0
BBX 8 10 0 -2
BITMAP
00011110
03211101
3B114541
9B217740
AB211110
AB21B910
AC111111
8F711101
2DFFFF70
00233200
ENDCHAR
STARTCHAR Egrave.salt
ENCODING 57611
SWIDTH 743 0
DWIDTH 7 0
BBX 8 12 0 -2
BITMAP
01411110
0C711110
0EFB8640
06411101
3B114541
9B217740
AB211110
AB21B910
AC111111
8F711101
2DFFFF70
00233200
ENDCHAR
STARTCHAR Eacute.salt
ENCODING 57612
SWIDTH 743 0
DWIDTH 7 0
BBX 8 12 0 -2
BITMAP
00111120
03811120
0BD78A50
09411101
3B114541
9B217740
AB211110
AB21B910
AC111111
8F711101
2DFFFF70
00233200
ENDCHAR
STARTCHAR Ecircumflex.salt
ENCODING 57613
SWIDTH 743 0
DWIDTH 7 0
BBX 8 12 0 -2
BITMAP
00112210
04712120
0DC9C950
0A411101
3B114541
9B217740
AB211110
AB21B910
AC111111
8F711101
2DFFFF70
00233200
ENDCHAR
STARTCHAR Edieresis.salt
ENCODING 57614
SWIDTH 743 0
DWIDTH 7 0
BBX 8 12 0 -2
BITMAP
00313110
0A618001
0FC7A651
0B411101
3B114541
9B217740
AB211110
AB21B910
AC111111
8F711101
2DFFFF70
00233200
ENDCHAR
STARTCHAR Emacron.salt
ENCODING 57615
SWIDTH 743 0
DWIDTH 7 0
BBX 8 12 0 -2
BITMAP
00111110
04911110
0BD76650
08411101
3B114541
9B217740
AB211110
AB21B910
AC111111
8F711101
2DFFFF70
00233200
ENDCHAR
STARTCHAR Ebreve.salt
ENCODING 57616
SWIDTH 743 0
DWIDTH 7 0
BBX 8 12 0 -2
BITMAP
01524430
0BA22220
0BF96630
05411101
3B114541
9B217740
AB211110
AB21B910
AC111111
8F711101
2DFFFF70
00233200
ENDCHAR
STARTCHAR Edotaccent.salt
ENCODING 57617
SWIDTH 743 0
DWIDTH 7 0
BBX 8 12 0 -2
BITMAP
00041200
00991200
00CB6510
03311101
3B114541
9B217740
AB211110
AB21B910
AC111111
8F711101
2DFFFF70
00233200
ENDCHAR
STARTCHAR Eogonek.salt
ENCODING 57618
SWIDTH 743 0
DWIDTH 7 0
BBX 8 12 0 -4
BITMAP
00011110
02211101
3B114541
9B217740
AB211110
AB21B910
AC111111
8F711301
2DFFA241
002CC321
0009FF50
00001000
ENDCHAR
STARTCHAR Ecaron.salt
ENCODING 57619
SWIDTH 743 0
DWIDTH 7 0
BBX 8 12 0 -2
BITMAP
01622220
0BA12220
0BFB6830
03411101
3B114541
9B217740
AB211110
AB21B910
AC111111
8F711101
2DFFFF70
00233200
ENDCHAR
STARTCHAR I.salt
ENCODING 57620
SWIDTH 471 0
DWIDTH 5 0
BBX 5 10 0 -2
BITMAP
011100
2A0020
8D1120
8D1120
8D1120
8D1120
8D1120
8D0020
8FF800
132000
ENDCHAR
STARTCHAR Igrave.salt
ENCODING 57621
SWIDTH 471 0
DWIDTH 5 0
BBX 6 12 0 -2
BITMAP
041110
981111
DE9760
5C0020
8D1120
8D1120
8D1120
8D1120
8D1120
8D0020
8FF800
132000
ENDCHAR
STARTCHAR Iacute.salt
ENCODING 57622
SWIDTH 471 0
DWIDTH 5 0
BBX 6 12 0 -2
BITMAP
011120
581111
CD7950
8D0020
8D1120
8D1120
8D1120
8D1120
8D1120
8D0020
8FF800
132000
ENDCHAR
STARTCHAR Icircumflex.salt
ENCODING 57623
SWIDTH 471 0
DWIDTH 5 0
BBX 5 12 0 -2
BITMAP
021220
931120
EBBB60
6C0020
8D1120
8D1120
8D1120
8D1120
8D1120
8D0020
8FF800
132000
ENDCHAR
STARTCHAR Idieresis.salt
ENCODING 57624
SWIDTH 471 0
DWIDTH 5 0
BBX 6 12 0 -2
BITMAP
122311
D12711
FA7981
6C0020
8D1120
8D1120
8D1120
8D1120
8D1120
8D0020
8FF800
132000
ENDCHAR
STARTCHAR Itilde.salt
ENCODING 57625
SWIDTH 471 0
DWIDTH 5 0
BBX 5 12 0 -2
BITMAP
022220
921210
DA8640
5B0020
8D1120
8D1120
8D1120
8D1120
8D1120
8D0020
8FF800
132000
ENDCHAR
STARTCHAR Imacron.salt
ENCODING 57626
SWIDTH 471 0
DWIDTH 5 0
BBX 5 12 0 -2
BITMAP
011110
761120
FC6630
AD0020
8D1120
8D1120
8D1120
8D1120
8D1120
8D0020
8FF800
132000
ENDCHAR
STARTCHAR Ibreve.salt
ENCODING 57627
SWIDTH 471 0
DWIDTH 5 0
BBX 6 12 -1 -2
BITMAP
043342
3F4222
2FD662
08D002
08D112
08D112
08D112
08D112
08D112
08D002
08FF80
013200
ENDCHAR
STARTCHAR Iogonek.salt
ENCODING 57628
SWIDTH 471 0
DWIDTH 5 0
BBX 5 12 0 -4
BITMAP
001110
1B0020
7E0120
7E0120
7E0120
7E0120
7E0120
7E1020
7C2310
9D4320
7FF700
001000
ENDCHAR
STARTCHAR Idotaccent.salt
ENCODING 57629
SWIDTH 471 0
DWIDTH 5 0
BBX 5 12 0 -2
BITMAP
031110
5C0010
8E6610
6D0020
8D1120
8D1120
8D1120
8D1120
8D1120
8D0020
8FF800
132000
ENDCHAR
STARTCHAR L.salt
ENCODING 57630
SWIDTH 715 0
DWIDTH 7 0
BBX 8 10 0 -2
BITMAP
01110000
2A001000
8D101000
8D101000
8D101000
8D102000
8D101111
8D011111
8FFFFF60
13333200
ENDCHAR
STARTCHAR Lacute.salt
ENCODING 57631
SWIDTH 715 0
DWIDTH 7 0
BBX 8 12 0 -2
BITMAP
00111110
2A011010
8E67C600
7D003000
8D101000
8D101000
8D101000
8D102000
8D101111
8D011111
8FFFFF60
13333200
ENDCHAR
STARTCHAR Lcommaaccent.salt
ENCODING 57632
SWIDTH 715 0
DWIDTH 7 0
BBX 8 13 0 -5
BITMAP
01110000
2A001000
8D101000
8D101000
8D101000
8D102000
8D101111
8D011111
8FFA7A60
13E52200
01FA4200
00DA6100
00BB3000
ENDCHAR
STARTCHAR Lcaron.salt
ENCODING 57633
SWIDTH 715 0
DWIDTH 7 0
BBX 8 10 0 -2
BITMAP
01110211
2A00A201
8D10D111
8D10D840
8D109700
8D102000
8D101111
8D011111
8FFFFF60
13333200
ENDCHAR
STARTCHAR Ldot.salt
ENCODING 57634
SWIDTH 715 0
DWIDTH 7 0
BBX 8 10 0 -2
BITMAP
01110000
2A001000
8D102111
8D10B012
8D10D541
8D10CD50
8D101111
8D011111
8FFFFF60
13333200
ENDCHAR
STARTCHAR Lslash.salt
ENCODING 57635
SWIDTH 725 0
DWIDTH 7 0
BBX 9 10 -1 -2
BITMAP
0001100000
01B0020000
07E0130000
0790201000
0D51231000
1FD0130000
09E0111110
07E0111020
07FFFFF700
0133332000
ENDCHAR
STARTCHAR M.salt
ENCODING 57636
SWIDTH 1170 0
DWIDTH 12 0
BBX 12 10 0 -2
BITMAP
001122122210
042122122111
3C1151315112
8C10F616F012
9C10F616F012
9C10F616F012
9C10F616F012
9C00F606F002
9FF7FFD8FF90
132023113200
ENDCHAR
STARTCHAR N.salt
ENCODING 57637
SWIDTH 846 0
DWIDTH 8 0
BBX 9 10 0 -2
BITMAP
0012222000
0321221200
3C11532100
8C10EA2010
9C10CA2010
9C10CA2010
9C10CA2010
9C00CB0110
9FF6AFF600
1320132000
ENDCHAR
STARTCHAR Ntilde.salt
ENCODING 57638
SWIDTH 846 0
DWIDTH 8 0
BBX 9 12 0 -2
BITMAP
0012212000
02A0211100
09E7545000
0841221200
3C11532110
8C10EA2010
9C10CA2010
9C10CA2010
9C10CA2010
9C00CB0110
9FF6AFF600
1320132000
ENDCHAR
STARTCHAR Nacute.salt
ENCODING 57639
SWIDTH 846 0
DWIDTH 8 0
BBX 9 12 0 -2
BITMAP
0001111100
01A0110200
08E6577000
0741221200
3C11532100
8C10EA2010
9C10CA2010
9C10CA2010
9C10CA2010
9C00CB0110
9FF6AFF600
1320132000
ENDCHAR
STARTCHAR Ncommaaccent.salt
ENCODING 57640
SWIDTH 846 0
DWIDTH 8 0
BBX 9 13 0 -5
BITMAP
0012222000
0321221200
3C11532100
8C10EA2010
9C10CA2010
9C10CA2010
9C10CA2010
9C00CB0110
9FFA57E600
139B123000
00AE521000
007E730000
006C600000
ENDCHAR
STARTCHAR Ncaron.salt
ENCODING 57641
SWIDTH 846 0
DWIDTH 8 0
BBX 9 12 0 -2
BITMAP
0062222100
08D1221100
09FB465000
0331221200
3C11532100
8C10EA2010
9C10CA2010
9C10CA2010
9C10CA2010
9C00CB0110
9FF6AFF600
1320132000
ENDCHAR
STARTCHAR W.salt
ENCODING 57642
SWIDTH 1170 0
DWIDTH 12 0
BBX 12 10 0 -2
BITMAP
011101110210
2A008502B002
9C10F616F012
9C10F616F012
9C10F616F012
9C10E515E012
9D1121312111
8F6111411130
2EFEDEFED910
014521453000
ENDCHAR
STARTCHAR Wcircumflex.salt
ENCODING 57643
SWIDTH 1170 0
DWIDTH 12 0
BBX 12 12 0 -2
BITMAP
000011221000
000561211000
011CBACA4210
2A00C603B002
9C10F616F012
9C10F616F012
9C10F616F012
9C10E515E012
9D1121312111
8F6111411130
2EFEDEFED910
014521453000
ENDCHAR
STARTCHAR Wgrave.salt
ENCODING 57644
SWIDTH 1170 0
DWIDTH 12 0
BBX 12 12 0 -2
BITMAP
000131111000
001D51112000
012CFB883210
2A00C603B002
9C10F616F012
9C10F616F012
9C10F616F012
9C10E515E012
9D1121312111
8F6111411130
2EFEDEFED910
014521453000
ENDCHAR
STARTCHAR Wacute.salt
ENCODING 57645
SWIDTH 1170 0
DWIDTH 12 0
BBX 12 12 0 -2
BITMAP
000011112000
000571112000
011BC88A3210
2A00E602B002
9C10F616F012
9C10F616F012
9C10F616F012
9C10E515E012
9D1121312111
8F6111411130
2EFEDEFED910
014521453000
ENDCHAR
STARTCHAR Wdieresis.salt
ENCODING 57646
SWIDTH 1170 0
DWIDTH 12 0
BBX 12 12 0 -2
BITMAP
000121312000
001D21811000
014CA7A75210
2A00E603B002
9C10F616F012
9C10F616F012
9C10F616F012
9C10E515E012
9D1121312111
8F6111411130
2EFEDEFED910
014521453000
ENDCHAR
STARTCHAR X.salt
ENCODING 57647
SWIDTH 837 0
DWIDTH 8 0
BBX 8 10 0 -2
BITMAP
00110111
1C106602
5F518312
1F712112
1B031221
8B209621
AB10EA21
AC00CA01
9FF6BFE5
13201320
ENDCHAR
STARTCHAR Y.salt
ENCODING 57648
SWIDTH 806 0
DWIDTH 8 0
BBX 8 10 0 -2
BITMAP
01220121
48015702
B911E712
C911E612
BB121112
AF612031
3DF82220
00D80200
00DFE400
00231000
ENDCHAR
STARTCHAR Yacute.salt
ENCODING 57649
SWIDTH 806 0
DWIDTH 8 0
BBX 8 12 0 -2
BITMAP
00111120
03911120
0AA7BB61
4802A702
B911E712
C911E612
BB121112
AF612031
3DF82220
00D80200
00DFE400
00231000
ENDCHAR
STARTCHAR Ycircumflex.salt
ENCODING 57650
SWIDTH 806 0
DWIDTH 8 0
BBX 8 12 0 -2
BITMAP
00111210
03812120
0BA9EB51
4902B702
B911E712
C911E612
BB121112
AF612031
3DF82220
00D80200
00DFE400
00231000
ENDCHAR
STARTCHAR Ydieresis.salt
ENCODING 57651
SWIDTH 806 0
DWIDTH 8 0
BBX 8 12 0 -2
BITMAP
00313120
0B518101
1E97D862
4902D702
B911E712
C911E612
BB121112
AF612031
3DF82220
00D80200
00DFE400
00231000
ENDCHAR
STARTCHAR Ygrave.salt
ENCODING 57652
SWIDTH 806 0
DWIDTH 8 0
BBX 8 12 0 -2
BITMAP
00411110
0B811110
0DCBB841
4902D702
B911E712
C911E612
BB121112
AF612031
3DF82220
00D80200
00DFE400
00231000
ENDCHAR
STARTCHAR AE.salt
ENCODING 57653
SWIDTH 1113 0
DWIDTH 11 0
BBX 11 10 0 -2
BITMAP
000111111110
022111211110
2B1143105540
8C20F9117710
9C2043222010
9C222231B600
9C20D8102120
9C01DA011120
9FF6BFFFFE40
132023333100
ENDCHAR
STARTCHAR IJ.salt
ENCODING 57654
SWIDTH 1133 0
DWIDTH 11 0
BBX 11 10 0 -2
BITMAP
011100001110
2A0020047010
8D11200D8110
8D11200D8110
8D11721D8110
8D11D01C8110
8D11D1221210
8D00D9111120
8FF8DFFDC500
132004541000
ENDCHAR
STARTCHAR IJ.stack
ENCODING 57655
SWIDTH 1363 0
DWIDTH 14 0
BBX 14 10 0 -2
BITMAP
01111110001110
3911212002A001
AC40233008D111
9EF0261008D111
05F0223519D111
05F022E517C111
17102176212201
AB11116C211130
AFFFFDAFFDD800
13333103552000
ENDCHAR
STARTCHAR quoteleft.salt
ENCODING 57656
SWIDTH 407 0
DWIDTH 4 0
BBX 4 5 0 3
BITMAP
0011
0744
9B22
BD84
7A70
ENDCHAR
STARTCHAR quoteright.salt
ENCODING 57657
SWIDTH 407 0
DWIDTH 4 0
BBX 4 5 0 3
BITMAP
0111
3912
AD43
8E82
6A20
ENDCHAR
STARTCHAR ampersand.salt
ENCODING 57658
SWIDTH 732 0
DWIDTH 7 0
BBX 8 12 0 -3
BITMAP
00012100
00270120
01512101
0D322541
3F624730
1C122010
8823B810
D8212121
DD313111
6FFB1460
01BFD300
00111000
ENDCHAR
STARTCHAR caron.2
ENCODING 57659
SWIDTH 600 0
DWIDTH 6 0
BBX 4 5 1 3
BITMAP
0111
3802
B712
EB71
AA30
ENDCHAR
STARTCHAR indexup
ENCODING 57660
SWIDTH 1100 0
DWIDTH 11 0
BBX 7 10 2 -2
BITMAP
00200000
09310000
3F132000
4F012310
5F000020
6F300010
4D422220
79000020
CFFFFE30
23333100
ENDCHAR
STARTCHAR indexdown
ENCODING 57661
SWIDTH 1100 0
DWIDTH 11 0
BBX 7 10 2 -2
BITMAP
01222210
58000010
CE522240
4F200010
4F000120
6F124610
5F2CB200
4F320000
3F800000
02000000
ENDCHAR
STARTCHAR indexupleft
ENCODING 57662
SWIDTH 1100 0
DWIDTH 11 0
BBX 9 10 1 -2
BITMAP
0032000000
0AC1200000
0AF6120000
02B2002000
0941002210
4FB0021110
1BFA311100
01CF211000
004F910000
0007100000
ENDCHAR
STARTCHAR indexupright
ENCODING 57663
SWIDTH 1100 0
DWIDTH 11 0
BBX 9 10 1 -2
BITMAP
0000001200
0000021200
0000312100
0006201300
0225000220
2D80200200
2DF8023000
02DF802000
002DF60000
0002600000
ENDCHAR
STARTCHAR indexdownleft
ENCODING 57664
SWIDTH 1100 0
DWIDTH 11 0
BBX 11 8 0 -1
BITMAP
000001210000
00002C211000
000053111100
000410011110
005221007400
0548A2137000
2E8BFE400000
040067000000
ENDCHAR
STARTCHAR indexdownright
ENCODING 57665
SWIDTH 1100 0
DWIDTH 11 0
BBX 11 8 0 -1
BITMAP
000012100000
000231200000
002312120000
024120002000
1DB900111200
09BFA118B110
001CFB7AF700
000194004000
ENDCHAR
STARTCHAR indexdownleft.outline
ENCODING 57666
SWIDTH 1100 0
DWIDTH 11 0
BBX 9 7 2 0
BITMAP
0001830000
00024A3000
002313A300
0220013A20
2341005400
4445241000
2002400000
ENDCHAR
STARTCHAR indexdownright.outline
ENCODING 57667
SWIDTH 1100 0
DWIDTH 11 0
BBX 9 7 2 0
BITMAP
0019200000
01A4400000
1A43230000
A430004000
3510122300
0042454320
0003300200
ENDCHAR
STARTCHAR indexupleft.outline
ENCODING 57668
SWIDTH 1100 0
DWIDTH 11 0
BBX 7 9 3 -1
BITMAP
33000000
33400000
06240000
34013000
51004520
41023B10
0443A200
015A2000
00520000
ENDCHAR
STARTCHAR indexupright.outline
ENCODING 57669
SWIDTH 1100 0
DWIDTH 11 0
BBX 7 9 3 -1
BITMAP
00002400
00023400
00325200
01202500
65000430
95400400
09544100
00953000
00060000
ENDCHAR
STARTCHAR uni261A.salt
ENCODING 57670
SWIDTH 1100 0
DWIDTH 11 0
BBX 9 8 1 -1
BITMAP
0000010110
0322113410
BC98200210
89CF020210
006FB16410
001AD2FD30
0008D26300
0001100000
ENDCHAR
STARTCHAR uni261B.salt
ENCODING 57671
SWIDTH 1100 0
DWIDTH 11 0
BBX 9 8 1 -1
BITMAP
0010010000
2803111220
AA01026950
BA01027700
BA0A041000
BEBF720000
451EA10000
0001000000
ENDCHAR
STARTCHAR indexdown.salt
ENCODING 57672
SWIDTH 1100 0
DWIDTH 11 0
BBX 7 10 2 -2
BITMAP
00122210
07600020
0EE52240
05500020
3B742110
8BFC8210
008AF310
0003F410
0002F900
00002000
ENDCHAR
STARTCHAR indexdownleft.salt
ENCODING 57673
SWIDTH 1100 0
DWIDTH 11 0
BBX 9 8 1 -1
BITMAP
0000022000
0000861200
0003512120
0051001420
0442220B10
283EA72200
CB2BBFA100
5100072000
ENDCHAR
STARTCHAR indexdownright.salt
ENCODING 57674
SWIDTH 1100 0
DWIDTH 11 0
BBX 9 8 1 -1
BITMAP
0001200000
0032110000
0321112000
4822000200
DEE3123110
24F187F620
04F893EF40
0370002400
ENDCHAR
STARTCHAR indexup.salt
ENCODING 57675
SWIDTH 1100 0
DWIDTH 11 0
BBX 7 10 2 -2
BITMAP
00200000
1A110000
5E010000
7C032000
9B022220
AE100310
7D422300
7A000200
BFFFE500
23332000
ENDCHAR
STARTCHAR indexupleft.salt
ENCODING 57676
SWIDTH 1100 0
DWIDTH 11 0
BBX 9 10 1 -2
BITMAP
0021000000
0781100000
1EF6020000
03E7102000
01C1103200
07A2011110
1B99911100
2A8C911000
000DD20000
0002100000
ENDCHAR
STARTCHAR indexupright.salt
ENCODING 57677
SWIDTH 1100 0
DWIDTH 11 0
BBX 9 10 1 -2
BITMAP
0000000200
0000012110
0000111100
0006212100
0029002200
0861201210
2EF516A610
04EF52A200
004EC10000
0003100000
ENDCHAR
STARTCHAR uni261C.salt
ENCODING 57678
SWIDTH 1100 0
DWIDTH 11 0
BBX 8 7 2 0
BITMAP
00001011
3333334A
2344103A
0012403A
0004344A
00034123
00001000
ENDCHAR
STARTCHAR uni261D.salt
ENCODING 57679
SWIDTH 1100 0
DWIDTH 11 0
BBX 6 9 3 -1
BITMAP
030000
142000
312000
305400
303444
210042
253540
688890
011110
ENDCHAR
STARTCHAR uni261E.salt
ENCODING 57680
SWIDTH 1100 0
DWIDTH 11 0
BBX 8 7 2 0
BITMAP
12001000
66432334
75103433
75122300
75515100
14044000
00010000
ENDCHAR
STARTCHAR uni261F.salt
ENCODING 57681
SWIDTH 1100 0
DWIDTH 11 0
BBX 6 9 3 -1
BITMAP
024443
065556
026344
140003
235423
002343
000033
000043
000010
ENDCHAR
STARTCHAR indexdownleft.salt_outline
ENCODING 57682
SWIDTH 1100 0
DWIDTH 11 0
BBX 8 7 2 0
BITMAP
00004500
00005860
00232486
02200158
03344041
43234330
21000220
ENDCHAR
STARTCHAR indexdownright.salt_outline
ENCODING 57683
SWIDTH 1100 0
DWIDTH 11 0
BBX 8 7 2 0
BITMAP
00270000
02A42000
2A323300
73400130
01334522
01354144
01400003
ENDCHAR
STARTCHAR indexupleft.salt_outline
ENCODING 57684
SWIDTH 1100 0
DWIDTH 11 0
BBX 7 9 3 -1
BITMAP
21000000
43300000
04140000
04303000
22304400
34023A20
4353A300
004A3000
00020000
ENDCHAR
STARTCHAR indexupright.salt_outline
ENCODING 57685
SWIDTH 1100 0
DWIDTH 11 0
BBX 7 9 3 -1
BITMAP
00000300
00014310
00223200
00324100
36013300
A4302410
1A453320
01A60000
00110000
ENDCHAR
STARTCHAR block.v
ENCODING 57687
SWIDTH 1000 0
DWIDTH 10 0
BBX 12 11 -1 -2
BITMAP
4FFFFFFFFFF4
4FFFFFFFFFF4
4FFFFFFFFFF4
4FFFFFFFFFF4
4FFFFFFFFFF4
4FFFFFFFFFF4
4FFFFFFFFFF4
4FFFFFFFFFF4
4FFFFFFFFFF4
4FFFFFFFFFF4
4CCCCCCCCCC4
ENDCHAR
STARTCHAR uni25D6.v
ENCODING 57688
SWIDTH 1335 0
DWIDTH 13 0
BBX 12 7 1 0
BITMAP
000246530000
007DFFFEA200
08FFFFFFFB10
3EFFFFFFFF70
7FFFFFFFFFC0
9FFFFFFFFFE1
355555555540
ENDCHAR
STARTCHAR uni25D7.v
ENCODING 57689
SWIDTH 1335 0
DWIDTH 13 0
BBX 12 7 1 0
BITMAP
588888888871
9FFFFFFFFFE0
6FFFFFFFFFB0
2DFFFFFFFF60
06EFFFFFFA00
005CEFED7100
000033310000
ENDCHAR
STARTCHAR uni27A1.w
ENCODING 57690
SWIDTH 650 0
DWIDTH 7 0
BBX 7 15 0 -4
BITMAP
00003C40
0001BF50
0009FFC0
005EFFD0
03DFFFD0
1BFFFFD0
8FFFFFD0
CFFFFFD0
6FFFFFD0
0AFFFFD0
01CFFFD0
004EFFD0
0007FFA0
0000AF50
00001930
ENDCHAR
STARTCHAR uni27A1.n
ENCODING 57691
SWIDTH 1000 0
DWIDTH 10 0
BBX 16 7 -3 0
BITMAP
269FFFFFFFFFF862
3EFFFFFFFFFFFFE3
04DFFFFFFFFFFD40
002AFFFFFFFFA200
00017EFFFFE71000
000004DFFD400000
0000002992000000
ENDCHAR
STARTCHAR uni27A1.s
ENCODING 57692
SWIDTH 1000 0
DWIDTH 10 0
BBX 16 7 -3 0
BITMAP
0000004CC4000000
000007EFFE700000
0002AFFFFFFA2000
004DFFFFFFFFC400
07EFFFFFFFFFFE70
4FFFFFFFFFFFFFF4
146CCCCCCCCCC641
ENDCHAR
STARTCHAR uni2B24.salt
ENCODING 57693
SWIDTH 1280 0
DWIDTH 13 0
BBX 11 13 1 -3
BITMAP
000133300000
029DEFED7100
5EFFFFFFFC30
DFFFFFFFFFA0
EFFFFFFFFFB0
EFFFFFFFFFB0
EFFFFFFFFFB0
EFFFFFFFFFB0
EFFFFFFFFFB0
DFFFFFFFFFA0
3CFFFFFFFB10
016BDDDA5000
000001000000
ENDCHAR
STARTCHAR uni25DD.curve
ENCODING 57694
SWIDTH 1280 0
DWIDTH 13 0
BBX 11 11 1 -2
BITMAP
CEEEEEDB5000
EFFFFFFFF900
EFFFFFFFFE40
EFFFFFFFFF80
EFFFFFFFFFA0
EFFFFFFFFFB0
EFFFFFFFFFB0
EFFFFFFFFFB0
EFFFFFFFFFB0
EFFFFFFFFFB0
ABBBBBBBBB80
ENDCHAR
STARTCHAR uni2B1B.trapezoid_e
ENCODING 57695
SWIDTH 1280 0
DWIDTH 13 0
BBX 12 11 1 -2
BITMAP
CEEEEEEEEEE9
EFFFFFFFFFF7
EFFFFFFFFFF4
EFFFFFFFFFE2
EFFFFFFFFFD0
EFFFFFFFFFA0
EFFFFFFFFF70
EFFFFFFFFF40
EFFFFFFFFE20
EFFFFFFFFD00
ABBBBBBBB800
ENDCHAR
STARTCHAR uni2B1B.trapezoid_w
ENCODING 57696
SWIDTH 1280 0
DWIDTH 13 0
BBX 12 11 0 -2
BITMAP
BEEEEEEEEEEA
AFFFFFFFFFFB
7FFFFFFFFFFB
4FFFFFFFFFFB
2EFFFFFFFFFB
0DFFFFFFFFFB
0AFFFFFFFFFB
07FFFFFFFFFB
04FFFFFFFFFB
02EFFFFFFFFB
009BBBBBBBB8
ENDCHAR
STARTCHAR arrowleft.chevron
ENCODING 57697
SWIDTH 1330 0
DWIDTH 13 0
BBX 14 15 0 -4
BITMAP
00000520000000
00004E30000000
0002DFDEEEEED2
001BFFFFFFFFB0
009FFFFFFFFF50
07FFFFFFFFFD10
5EFFFFFFFFF800
BFFFFFFFFFF400
3EFFFFFFFFF900
05EFFFFFFFFD20
007FFFFFFFFF60
0009FFFFFFFFC0
0001BFBBBBBBA2
00002D30000000
00000320000000
ENDCHAR
STARTCHAR arrowup.chevron
ENCODING 57698
SWIDTH 1280 0
DWIDTH 13 0
BBX 15 15 -1 -4
BITMAP
0000001610000000
000003CFB2000000
00005DFFFD400000
0007EFFFFFE60000
019FFFFFFFFF8100
2BFFFFFFFFFFFB20
48DFFFFFFFFFD840
00DFFFFFFFFFC000
00DFFFFFFFFFC000
00DFFFFFFFFFC000
00DFFFFFFFFFC000
00DFFFFFFFFFC000
00DFFEC8CFFFC000
00DD940004AEC000
0041000000024000
ENDCHAR
STARTCHAR arrowright.chevron
ENCODING 57699
SWIDTH 1330 0
DWIDTH 13 0
BBX 14 15 0 -4
BITMAP
00000007100000
0000000D800000
AEEEEEEEE60000
6FFFFFFFFE4000
1DFFFFFFFFD200
09FFFFFFFFFB10
03EFFFFFFFFF90
01DFFFFFFFFFE2
04FFFFFFFFFF70
0AFFFFFFFFF900
2EFFFFFFFFB100
7FFFFFFFFD2000
8BBBBBBEE40000
0000000C600000
00000004000000
ENDCHAR
STARTCHAR arrowdown.chevron
ENCODING 57700
SWIDTH 1280 0
DWIDTH 13 0
BBX 15 15 -1 -4
BITMAP
0052000000035000
00DEA51015BEC000
00DFFFD9DFFFC000
00DFFFFFFFFFC000
00DFFFFFFFFFC000
00DFFFFFFFFFC000
00DFFFFFFFFFC000
00DFFFFFFFFFC000
5AEFFFFFFFFFDA40
1AFFFFFFFFFFFA10
008EFFFFFFFE7000
0006EFFFFFE50000
00004DFFFC300000
000002BFA2000000
0000001510000000
ENDCHAR
STARTCHAR uni25D6.deco
ENCODING 57701
SWIDTH 560 0
DWIDTH 6 0
BBX 6 13 0 -3
BITMAP
0004B3
005EFD
05CFFF
1DFFFF
4FFFFF
6FFFFF
6FFFFF
5FFFFF
4FFFFF
1CFFFF
03BFFF
003DFB
000292
ENDCHAR
STARTCHAR uni25D7.deco
ENCODING 57702
SWIDTH 560 0
DWIDTH 6 0
BBX 7 13 -1 -3
BITMAP
08910000
6EFC1000
6FFFA100
6FFFF800
6FFFFC00
6FFFFD10
6FFFFD10
6FFFFD10
6FFFFC00
6FFFF700
6FFE8100
4DEB0000
06700000
ENDCHAR
STARTCHAR uni25D6.v_deco
ENCODING 57703
SWIDTH 1280 0
DWIDTH 13 0
BBX 13 6 0 0
BITMAP
0017BDDDB60000
009FFFFFFF7000
1BEFFFFFFFE900
8FFFFFFFFFFE60
9EFFFFFFFFFD70
07888888888500
ENDCHAR
STARTCHAR uni25D7.v_deco
ENCODING 57704
SWIDTH 1280 0
DWIDTH 13 0
BBX 13 6 0 1
BITMAP
0ABBBBBBBBB700
BEFFFFFFFFFE80
6FFFFFFFFFFE40
09EFFFFFFFD700
007FFFFFFE5000
00058AAA830000
ENDCHAR
STARTCHAR uni25D6.bevel
ENCODING 57705
SWIDTH 350 0
DWIDTH 4 0
BBX 4 11 0 -2
BITMAP
005C
07FE
3EFE
3FFE
3FFE
3FFE
3FFE
3FFE
2DFE
05DE
004A
ENDCHAR
STARTCHAR uni25D7.bevel
ENCODING 57706
SWIDTH 350 0
DWIDTH 4 0
BBX 4 11 -1 -2
BITMAP
6A20
6FD1
6FFA
6FFB
6FFB
6FFB
6FFB
6FFB
6FE8
6EB1
4810
ENDCHAR
STARTCHAR uni25D6.v_bevel
ENCODING 57707
SWIDTH 1280 0
DWIDTH 13 0
BBX 11 4 1 2
BITMAP
003333332000
05DEEEEEB400
5FFFFFFFFD30
DFFFFFFFFFA0
ENDCHAR
STARTCHAR uni25D7.v_bevel
ENCODING 57708
SWIDTH 1280 0
DWIDTH 13 0
BBX 11 4 1 2
BITMAP
333333333320
CFFFFFFFFFA0
3EFFFFFFFD10
03CEEEEEA200
ENDCHAR
STARTCHAR uni25D6.spike
ENCODING 57709
SWIDTH 350 0
DWIDTH 4 0
BBX 4 12 0 -2
BITMAP
0310
0BDC
06FE
02EE
03EE
2CFE
6FFE
1AFE
02DE
02EE
07FE
0CCA
ENDCHAR
STARTCHAR uni25D7.spike
ENCODING 57710
SWIDTH 350 0
DWIDTH 4 0
BBX 5 12 -1 -2
BITMAP
002200
6DD400
6FD100
6F8000
6F9000
6FF700
6FFD10
6FE500
6F7000
6F9000
6FD100
4BD500
ENDCHAR
STARTCHAR uni25D6.v_spike
ENCODING 57711
SWIDTH 1280 0
DWIDTH 13 0
BBX 12 5 0 1
BITMAP
000000300000
273019E70048
2EEBBFFFBCEC
0DFFFFFFFFFB
023333333332
ENDCHAR
STARTCHAR uni25D7.v_spike
ENCODING 57712
SWIDTH 1280 0
DWIDTH 13 0
BBX 12 5 0 1
BITMAP
056666666664
0DFFFFFFFFFB
2DD89FFE89EC
251007D50026
000000100000
ENDCHAR
STARTCHAR uni25D6.square
ENCODING 57713
SWIDTH 350 0
DWIDTH 4 0
BBX 3 11 1 -2
BITMAP
CEC0
EFE0
EFE0
EFE0
EFE0
EFE0
EFE0
EFE0
EFE0
EFE0
9BA0
ENDCHAR
STARTCHAR uni25D7.square
ENCODING 57714
SWIDTH 350 0
DWIDTH 4 0
BBX 4 11 -1 -2
BITMAP
6EE5
6FF6
6FF6
6FF6
6FF6
6FF6
6FF6
6FF6
6FF6
6FF6
4BB4
ENDCHAR
STARTCHAR uni25D6.v_square
ENCODING 57715
SWIDTH 1280 0
DWIDTH 13 0
BBX 11 4 1 2
BITMAP
011111111100
CEEEEEEEEE90
EFFFFFFFFFB0
BDDDDDDDDD90
ENDCHAR
STARTCHAR uni25D7.v_square
ENCODING 57716
SWIDTH 1280 0
DWIDTH 13 0
BBX 11 4 1 2
BITMAP
111111111100
EFFFFFFFFFB0
EFFFFFFFFFB0
9BBBBBBBBB70
ENDCHAR
STARTCHAR uni25D6.rounded
ENCODING 57717
SWIDTH 350 0
DWIDTH 4 0
BBX 4 11 0 -2
BITMAP
02BC
0AFE
1DFE
3EFE
3FFE
3FFE
3FFE
3EFE
1DFE
09FE
0189
ENDCHAR
STARTCHAR uni25D7.rounded
ENCODING 57718
SWIDTH 350 0
DWIDTH 4 0
BBX 4 11 -1 -2
BITMAP
6D70
6FE3
6FF7
6FF9
6FFA
6FFA
6FFA
6FF9
6FF6
6FE2
4A40
ENDCHAR
STARTCHAR uni25D6.v_rounded
ENCODING 57719
SWIDTH 1280 0
DWIDTH 13 0
BBX 11 4 1 2
BITMAP
000233210000
28DEEEEEC710
AFFFFFFFFF70
DFFFFFFFFFA0
ENDCHAR
STARTCHAR uni25D7.v_rounded
ENCODING 57720
SWIDTH 1280 0
DWIDTH 13 0
BBX 11 4 1 2
BITMAP
333333333320
DFFFFFFFFFA0
9FFFFFFFFE60
15ACDEDC9400
ENDCHAR
STARTCHAR uni21AB.arrow
ENCODING 57721
SWIDTH 1000 0
DWIDTH 10 0
BBX 13 19 -1 -10
BITMAP
5EEEDB62000000
5FFFFFFD500000
5FFFFFFFE50000
5FFFFFFFFD1000
5FFFFFFFFF5000
5FFFFFFFFF9000
5FFFFFFFFFC000
5FFFFFFFFFD000
5FFFFFFFFFD000
5FFFFFFFFFD000
4CEFFFFFFFD000
13DFFFFFFFD210
6DEFFFFFFFED80
07EFFFFFFFF910
007EFFFFFF8000
0006EFFFE70000
00006EFE700000
000005D6000000
00000010000000
ENDCHAR
STARTCHAR uni21AC.arrow
ENCODING 57722
SWIDTH 1000 0
DWIDTH 10 0
BBX 13 19 -1 -2
BITMAP
00000030000000
000008E8000000
00008FFF910000
0009FFFFF91000
019FFFFFFFA100
19FFFFFFFFFB10
6CEFFFFFFFEC80
02DFFFFFFFD000
5EFFFFFFFFD000
5FFFFFFFFFD000
5FFFFFFFFFD000
5FFFFFFFFFD000
5FFFFFFFFFB000
5FFFFFFFFF8000
5FFFFFFFFF4000
5FFFFFFFFC0000
5FFFFFFFE30000
5FFFFFFC300000
4BBAA840000000
ENDCHAR
STARTCHAR uni21AB.v_arrow
ENCODING 57723
SWIDTH 1335 0
DWIDTH 13 0
BBX 19 14 -6 -4
BITMAP
00000210000000000000
00003C39FFFFFFFFFD10
0002DEADFFFFFFFFFD10
002CFFFFFFFFFFFFFD10
02CFFFFFFFFFFFFFFD10
1BFFFFFFFFFFFFFFFD00
BFFFFFFFFFFFFFFFF900
8FFFFFFFFFFFFFFFE400
09FFFFFFFFFFFFFFA000
01AFFFFFFFFFFFFA1000
001AFFFFFFFEEB500000
0001BE64443310000000
00002A30000000000000
00000100000000000000
ENDCHAR
STARTCHAR uni21AC.v_arrow
ENCODING 57724
SWIDTH 1335 0
DWIDTH 13 0
BBX 19 14 1 -4
BITMAP
00000000000030000000
9FFFFFFFFFE1B7000000
9FFFFFFFFFFADE600000
9FFFFFFFFFFFFFE60000
9FFFFFFFFFFFFFFE5000
7FFFFFFFFFFFFFFFE500
4FFFFFFFFFFFFFFFFE30
1CFFFFFFFFFFFFFFFC20
05EFFFFFFFFFFFFFD200
007EFFFFFFFFFFFD3000
00039DEFFFFFFFE30000
000000333444CE400000
000000000000A5000000
00000000000020000000
ENDCHAR
STARTCHAR uni25D6.wings
ENCODING 57725
SWIDTH 900 0
DWIDTH 9 0
BBX 10 15 0 -4
BITMAP
00BCCCC500
01DFFFFA10
AEEFFFFFE6
BFFFFFFFF6
BFFFFFFFF6
BFFFFFFFF6
BFFFFFFFF6
BFFFFFFFF6
BFFFFFFFF6
BFFFFFFFF6
BFFFFFFFF6
BFFFFFFFF6
8BEFFFFEC4
01DFFFF900
0099999300
ENDCHAR
STARTCHAR uni25D7.wings
ENCODING 57726
SWIDTH 900 0
DWIDTH 9 0
BBX 10 15 -1 -4
BITMAP
005CCCCB00
01AFFFFD10
6EFFFFFEEA
6FFFFFFFFB
6FFFFFFFFB
6FFFFFFFFB
6FFFFFFFFB
6FFFFFFFFB
6FFFFFFFFB
6FFFFFFFFB
6FFFFFFFFB
6FFFFFFFFB
4CEFFFFEB8
009FFFFD10
0039999900
ENDCHAR
STARTCHAR uni25D6.v_wings
ENCODING 57727
SWIDTH 1280 0
DWIDTH 13 0
BBX 15 10 -1 -1
BITMAP
0033333333332000
00DEEEEEEEEEA000
45EFFFFFFFFFC530
CFFFFFFFFFFFFF90
CFFFFFFFFFFFFF90
CFFFFFFFFFFFFF90
CFFFFFFFFFFFFF90
BEFFFFFFFFFFFE90
15EFFFFFFFFFE400
00EFFFFFFFFFB000
ENDCHAR
STARTCHAR uni25D7.v_wings
ENCODING 57728
SWIDTH 1280 0
DWIDTH 13 0
BBX 15 10 -1 -1
BITMAP
0033333333332000
01EFFFFFFFFFB000
27FFFFFFFFFFE520
CFFFFFFFFFFFFF90
CFFFFFFFFFFFFF90
CFFFFFFFFFFFFF90
CFFFFFFFFFFFFF90
BEFFFFFFFFFFFE90
23DFFFFFFFFFB320
00DEEEEEEEEEA000
ENDCHAR
STARTCHAR uni2B1B.chevron_e
ENCODING 57729
SWIDTH 1280 0
DWIDTH 13 0
BBX 13 11 0 -2
BITMAP
AEEEEEEEEEB000
6FFFFFFFFFE300
2DFFFFFFFFF900
09FFFFFFFFFD10
04EFFFFFFFFF50
01DFFFFFFFFF90
05FFFFFFFFFF50
0AFFFFFFFFFD10
2EFFFFFFFFF700
7FFFFFFFFFE200
8BBBBBBBBB8000
ENDCHAR
STARTCHAR uni2B1B.chevron_n
ENCODING 57730
SWIDTH 1280 0
DWIDTH 13 0
BBX 11 13 1 -3
BITMAP
00039C720000
16CEFFFEA510
DFFFFFFFFFA0
EFFFFFFFFFB0
EFFFFFFFFFB0
EFFFFFFFFFB0
EFFFFFFFFFB0
EFFFFFFFFFB0
EFFFFFFFFFB0
EFFFFFFFFFB0
EFFFDBEFFFB0
EEC62027DFB0
840000001460
ENDCHAR
STARTCHAR uni2B1B.chevron_s
ENCODING 57731
SWIDTH 1280 0
DWIDTH 13 0
BBX 11 13 1 -3
BITMAP
B72000003890
EFEA525BEFB0
EFFFFDFFFFB0
EFFFFFFFFFB0
EFFFFFFFFFB0
EFFFFFFFFFB0
EFFFFFFFFFB0
EFFFFFFFFFB0
EFFFFFFFFFB0
EFFFFFFFFFB0
AEFFFFFFFD80
037DFFEC6200
000158400000
ENDCHAR
STARTCHAR uni2B1B.chevron_w
ENCODING 57732
SWIDTH 1280 0
DWIDTH 13 0
BBX 13 11 0 -2
BITMAP
01CEEEEEEEEE80
05FFFFFFFFFF40
0BFFFFFFFFFC00
3EFFFFFFFFF600
8FFFFFFFFFE200
CFFFFFFFFFC000
7FFFFFFFFFE300
2EFFFFFFFFF800
0AFFFFFFFFFD10
04EFFFFFFFFF40
01ABBBBBBBBB70
ENDCHAR
STARTCHAR uni2B1B.semichevron_e
ENCODING 57733
SWIDTH 650 0
DWIDTH 7 0
BBX 7 11 0 -2
BITMAP
AEEEEED0
6FFFFFE0
2DFFFFE0
09FFFFE0
04EFFFE0
01DFFFE0
04FFFFE0
0AFFFFE0
2EFFFFE0
7FFFFFE0
8BBBBBA0
ENDCHAR
STARTCHAR uni2B1B.semichevron_w
ENCODING 57734
SWIDTH 650 0
DWIDTH 7 0
BBX 8 11 -1 -2
BITMAP
6EEEEEE4
6FFFFFD1
6FFFFF80
6FFFFE30
6FFFFB00
6FFFF800
6FFFFC00
6FFFFF40
6FFFFFA0
6FFFFFE2
4BBBBBB4
ENDCHAR
STARTCHAR uni2B1B.semichevron_n
ENCODING 57735
SWIDTH 1000 0
DWIDTH 10 0
BBX 12 7 -1 0
BITMAP
4B51000015B4
4FFD8338DFF4
4FFFFEEFFFF4
4FFFFFFFFFF4
4FFFFFFFFFF4
4FFFFFFFFFF4
4DDDDDDDDDD4
ENDCHAR
STARTCHAR uni2B1B.semichevron_s
ENCODING 57736
SWIDTH 1000 0
DWIDTH 10 0
BBX 12 8 -1 0
BITMAP
011111111110
4FFFFFFFFFF4
4FFFFFFFFFF4
4FFFFFFFFFF4
4FFFFFFFFFF4
4FFFFDDFFFF4
4FEB5115BEF4
383000000383
ENDCHAR
STARTCHAR space.v
ENCODING 57737
SWIDTH 1000 0
DWIDTH 10 0
BBX 1 1 0 0
BITMAP
00
ENDCHAR
STARTCHAR Agrave.v
ENCODING 57738
SWIDTH 1000 0
DWIDTH 10 0
BBX 8 12 1 -2
BITMAP
00121000
05812220
0CD75430
07C33330
07712210
0D118111
4B109211
9A211121
BA218411
BA02F702
BFE4EFD3
13102310
ENDCHAR
STARTCHAR Aacute.v
ENCODING 57739
SWIDTH 1000 0
DWIDTH 10 0
BBX 8 12 1 -2
BITMAP
00001210
01522110
0BA35740
0CD33320
07712210
0D118111
4B109211
9A211121
BA218411
BA02F702
BFE4EFD3
13102310
ENDCHAR
STARTCHAR Acircumflex.v
ENCODING 57740
SWIDTH 1000 0
DWIDTH 10 0
BBX 8 12 1 -2
BITMAP
00011100
00512220
0AA58630
0CD33330
07712210
0D118111
4B109211
9A211121
BA218411
BA02F702
BFE4EFD3
13102310
ENDCHAR
STARTCHAR Atilde.v
ENCODING 57741
SWIDTH 1000 0
DWIDTH 10 0
BBX 8 12 1 -2
BITMAP
00010000
01513220
0BA44330
0CD33320
07712210
0D118111
4B109211
9A211121
BA218411
BA02F702
BFE4EFD3
13102310
ENDCHAR
STARTCHAR Adieresis.v
ENCODING 57742
SWIDTH 1000 0
DWIDTH 10 0
BBX 8 12 1 -2
BITMAP
00121210
05417111
1F73A330
1ED33330
07712210
0D118111
4B109211
9A211121
BA218411
BA02F702
BFE4EFD3
13102310
ENDCHAR
STARTCHAR Aring.v
ENCODING 57743
SWIDTH 1000 0
DWIDTH 10 0
BBX 8 12 1 -2
BITMAP
00022210
01621220
0B72C420
0EA25220
0B620211
0E119111
5B209222
9A211122
BA228312
BA03F702
BFE4FFD3
23102310
ENDCHAR
STARTCHAR Amacron.v
ENCODING 57744
SWIDTH 1000 0
DWIDTH 10 0
BBX 8 11 1 -2
BITMAP
01623220
0BA34330
0CD33330
07712210
0D118111
4B109211
9A211121
BA218411
BA02F702
BFE4EFD3
13102310
ENDCHAR
STARTCHAR Abreve.v
ENCODING 57745
SWIDTH 1000 0
DWIDTH 10 0
BBX 8 12 1 -2
BITMAP
00211220
07824220
0DD54420
07D33320
07712210
0D118111
4B109211
9A211121
BA218411
BA02F702
BFE4EFD3
13102310
ENDCHAR
STARTCHAR Aogonek.v
ENCODING 57746
SWIDTH 1000 0
DWIDTH 10 0
BBX 8 11 1 -3
BITMAP
00011110
02711120
0A521111
1D11C121
6A203111
BA222221
BA12E621
BC65F524
8CA2F322
0003FC84
00008A60
ENDCHAR
STARTCHAR Ccedilla.v
ENCODING 57747
SWIDTH 1000 0
DWIDTH 10 0
BBX 8 11 1 -3
BITMAP
00011111
03111111
4A104443
B912EE90
C9110000
C9112111
BC122211
8FB51263
08E92770
00EF9000
00010000
ENDCHAR
STARTCHAR Cacute.v
ENCODING 57748
SWIDTH 1000 0
DWIDTH 10 0
BBX 8 12 1 -2
BITMAP
00001210
00522110
09B35750
0B943322
19122211
9911DDB2
C9115510
C9111000
CB111112
AF511112
3DFFFFC2
00233310
ENDCHAR
STARTCHAR Ccircumflex.v
ENCODING 57749
SWIDTH 1000 0
DWIDTH 10 0
BBX 8 12 1 -2
BITMAP
00012200
00512220
09B48640
0B943332
19122211
9911DDB2
C9115510
C9111000
CB111112
AF511112
3DFFFFC2
00233310
ENDCHAR
STARTCHAR Cdotaccent.v
ENCODING 57750
SWIDTH 1000 0
DWIDTH 10 0
BBX 8 12 1 -2
BITMAP
00012200
00481100
00CB3400
01743222
19122211
9911DDB2
C9115510
C9111000
CB111112
AF511112
3DFFFFC2
00233310
ENDCHAR
STARTCHAR Ccaron.v
ENCODING 57751
SWIDTH 1000 0
DWIDTH 10 0
BBX 8 12 1 -2
BITMAP
00221120
06A12210
0BE83530
05943322
19122211
9911DDB2
C9115510
C9111000
CB111112
AF511112
3DFFFFC2
00233310
ENDCHAR
STARTCHAR Dcaron.v
ENCODING 57752
SWIDTH 1000 0
DWIDTH 10 0
BBX 8 12 1 -2
BITMAP
00220120
07812120
0DE73530
09333321
9A222212
BA21D521
BA21E721
BA21C621
BA202122
BA011131
BFFFFD30
13332000
ENDCHAR
STARTCHAR Egrave.v
ENCODING 57753
SWIDTH 1000 0
DWIDTH 10 0
BBX 8 12 1 -2
BITMAP
00121000
05812320
0DD75430
09333322
9A222212
BA11AAA2
BA211120
BA119940
BA102222
BA011112
BFFFFFC2
13333300
ENDCHAR
STARTCHAR Eacute.v
ENCODING 57754
SWIDTH 1000 0
DWIDTH 10 0
BBX 8 12 1 -2
BITMAP
00001210
01522120
0B935740
0A333322
9A222212
BA11AAA2
BA211120
BA119940
BA102222
BA011112
BFFFFFC2
13333300
ENDCHAR
STARTCHAR Ecircumflex.v
ENCODING 57755
SWIDTH 1000 0
DWIDTH 10 0
BBX 8 12 1 -2
BITMAP
00011100
01512220
0B958630
0A333322
9A222212
BA11AAA2
BA211120
BA119940
BA102222
BA011112
BFFFFFC2
13333300
ENDCHAR
STARTCHAR Edieresis.v
ENCODING 57756
SWIDTH 1000 0
DWIDTH 10 0
BBX 8 12 1 -2
BITMAP
00121210
06417111
1F73A330
1B333322
9A222212
BA11AAA2
BA211120
BA119940
BA102222
BA011112
BFFFFFC2
13333300
ENDCHAR
STARTCHAR Emacron.v
ENCODING 57757
SWIDTH 1000 0
DWIDTH 10 0
BBX 8 11 1 -2
BITMAP
01623220
0BA34330
0A333322
9A222212
BA11AAA2
BA211120
BA119940
BA102222
BA011112
BFFFFFC2
13333300
ENDCHAR
STARTCHAR Ebreve.v
ENCODING 57758
SWIDTH 1000 0
DWIDTH 10 0
BBX 8 12 1 -2
BITMAP
00211220
07824220
0DD54420
09333322
9A222212
BA11AAA2
BA211120
BA119940
BA102222
BA011112
BFFFFFC2
13333300
ENDCHAR
STARTCHAR Edotaccent.v
ENCODING 57759
SWIDTH 1000 0
DWIDTH 10 0
BBX 8 12 1 -2
BITMAP
00012100
00571100
00DA3300
06333222
9A222212
BA11AAA2
BA211120
BA119940
BA102222
BA011112
BFFFFFC2
13333300
ENDCHAR
STARTCHAR Eogonek.v
ENCODING 57760
SWIDTH 1000 0
DWIDTH 10 0
BBX 8 11 1 -3
BITMAP
01111111
39111112
BA115553
BA105560
BA212120
BA11BB51
BA122222
BC666123
8CCDF212
0004FB83
00019A50
ENDCHAR
STARTCHAR Ecaron.v
ENCODING 57761
SWIDTH 1000 0
DWIDTH 10 0
BBX 8 12 1 -2
BITMAP
00220120
07812120
0DE73530
09333322
9A222212
BA11AAA2
BA211120
BA119940
BA102222
BA011112
BFFFFFC2
13333300
ENDCHAR
STARTCHAR Gcircumflex.v
ENCODING 57762
SWIDTH 1000 0
DWIDTH 10 0
BBX 8 12 1 -2
BITMAP
00011100
01512220
0B958630
0C943331
19121101
9921DD60
C9225712
C921C611
CA121111
AF511112
3DFFFFD2
00233310
ENDCHAR
STARTCHAR Gbreve.v
ENCODING 57763
SWIDTH 1000 0
DWIDTH 10 0
BBX 8 12 1 -2
BITMAP
00211220
07824220
0DD54420
08943321
19121101
9921DD60
C9225712
C921C611
CA121111
AF511112
3DFFFFD2
00233310
ENDCHAR
STARTCHAR Gdotaccent.v
ENCODING 57764
SWIDTH 1000 0
DWIDTH 10 0
BBX 8 12 1 -2
BITMAP
00012100
00571100
00DA3300
01743221
18121101
9921DD60
C9225712
C921C611
CA121111
AF511112
3DFFFFD2
00233310
ENDCHAR
STARTCHAR Gcommaaccent.v
ENCODING 57765
SWIDTH 1000 0
DWIDTH 10 0
BBX 8 13 1 -5
BITMAP
00011120
03111101
4A204441
B922ED41
C9214502
C921A411
BC122221
7FB76663
07C93580
00DA3300
00CB3300
00BF8000
00110000
ENDCHAR
STARTCHAR Hcircumflex.v
ENCODING 57766
SWIDTH 1000 0
DWIDTH 10 0
BBX 8 12 1 -2
BITMAP
00011100
01512220
0B958630
0A34E822
9A11E611
BA218321
BA222221
BA206221
BA21F621
BA02F602
BFE5FFD2
13202310
ENDCHAR
STARTCHAR Igrave.v
ENCODING 57767
SWIDTH 1000 0
DWIDTH 10 0
BBX 8 12 1 -2
BITMAP
00121000
05812320
0DD75430
0A333322
8B123211
AFD622B2
25F72210
00E72100
17112012
9B011112
AFFFFFC2
13333310
ENDCHAR
STARTCHAR Iacute.v
ENCODING 57768
SWIDTH 1000 0
DWIDTH 10 0
BBX 8 12 1 -2
BITMAP
00001210
01522120
0B935740
0A333322
8B123211
AFD622B2
25F72210
00E72100
17112012
9B011112
AFFFFFC2
13333310
ENDCHAR
STARTCHAR Icircumflex.v
ENCODING 57769
SWIDTH 1000 0
DWIDTH 10 0
BBX 8 12 1 -2
BITMAP
00011100
01512220
0B958630
0A333322
8B123211
AFD622B2
25F72210
00E72100
17112012
9B011112
AFFFFFC2
13333310
ENDCHAR
STARTCHAR Idieresis.v
ENCODING 57770
SWIDTH 1000 0
DWIDTH 10 0
BBX 8 12 1 -2
BITMAP
00121210
06417111
1F73A330
1C333322
8B123211
AFD622B2
25F72210
00E72100
17112012
9B011112
AFFFFFC2
13333310
ENDCHAR
STARTCHAR Itilde.v
ENCODING 57771
SWIDTH 1000 0
DWIDTH 10 0
BBX 8 12 1 -2
BITMAP
00010000
01513220
0BA44330
0A333322
8B123211
AFD622B2
25F72210
00E72100
17112012
9B011112
AFFFFFC2
13333310
ENDCHAR
STARTCHAR Imacron.v
ENCODING 57772
SWIDTH 1000 0
DWIDTH 10 0
BBX 8 11 1 -2
BITMAP
01623220
0BA34330
0A333322
8B123211
AFD622B2
25F72210
00E72100
17112012
9B011112
AFFFFFC2
13333310
ENDCHAR
STARTCHAR Ibreve.v
ENCODING 57773
SWIDTH 1000 0
DWIDTH 10 0
BBX 8 12 1 -2
BITMAP
00211220
07824220
0DD54420
09333322
8B123211
AFD622B2
25F72210
00E72100
17112012
9B011112
AFFFFFC2
13333310
ENDCHAR
STARTCHAR Iogonek.v
ENCODING 57774
SWIDTH 1000 0
DWIDTH 10 0
BBX 8 11 1 -3
BITMAP
01111111
39012111
AC422143
8EF72290
00E72100
01A52111
4A123221
AD666123
7CCDF222
0004FB83
00019A50
ENDCHAR
STARTCHAR Idotaccent.v
ENCODING 57775
SWIDTH 1000 0
DWIDTH 10 0
BBX 8 12 1 -2
BITMAP
00012100
00571100
00DA3300
06333222
8B123211
AFD622B2
25F72210
00E72100
17112012
9B011112
AFFFFFC2
13333310
ENDCHAR
STARTCHAR Jcircumflex.v
ENCODING 57776
SWIDTH 1000 0
DWIDTH 10 0
BBX 8 12 1 -2
BITMAP
00001110
00151212
00C85863
00EBB833
0001E511
0001F511
1614F511
AA23F511
BB112121
AF511121
3EFEDC30
01454000
ENDCHAR
STARTCHAR Kcommaaccent.v
ENCODING 57777
SWIDTH 1000 0
DWIDTH 10 0
BBX 8 13 1 -5
BITMAP
01110111
39017102
BA118210
BA101111
BA222211
BA11D511
BA11F611
BC65FA63
8CC73580
00DA3300
00CB3300
00BF8000
00110000
ENDCHAR
STARTCHAR Lacute.v
ENCODING 57778
SWIDTH 1000 0
DWIDTH 10 0
BBX 8 12 1 -2
BITMAP
00012100
05221100
9B357500
BB347000
AA110000
BA110000
BA111522
BA11C711
BA102121
BA011112
BFFFFFD2
13333310
ENDCHAR
STARTCHAR Lcommaaccent.v
ENCODING 57779
SWIDTH 1000 0
DWIDTH 10 0
BBX 8 13 1 -5
BITMAP
01110000
39010000
BA110000
BA110111
BA115701
BA119521
BA122221
BC666663
8CD93580
00DA3300
00CB3300
00BF8000
00110000
ENDCHAR
STARTCHAR Lcaron.v
ENCODING 57780
SWIDTH 1000 0
DWIDTH 10 0
BBX 8 10 1 -2
BITMAP
01110111
39013802
BA11B812
BA11EB72
BA11B922
BA11D722
BA102122
BA011112
BFFFFFD3
13333310
ENDCHAR
STARTCHAR Ntilde.v
ENCODING 57781
SWIDTH 1000 0
DWIDTH 10 0
BBX 8 12 1 -2
BITMAP
00010000
01513220
0BA44330
0A36F922
9A227712
BA211212
BA201112
BA228122
BA22F422
BA02F702
BFE4EFD3
13102310
ENDCHAR
STARTCHAR Nacute.v
ENCODING 57782
SWIDTH 1000 0
DWIDTH 10 0
BBX 8 12 1 -2
BITMAP
00001210
01522120
0B935740
0A36C922
9A226712
BA211212
BA201112
BA228122
BA22F422
BA02F702
BFE4EFD3
13102310
ENDCHAR
STARTCHAR Ncommaaccent.v
ENCODING 57783
SWIDTH 1000 0
DWIDTH 10 0
BBX 8 13 1 -5
BITMAP
01110111
39116602
BA222612
BA202012
BA212212
BA22C132
BA12F612
BC65FA64
8CC73580
00DA3300
00CB3300
00BF8000
00110000
ENDCHAR
STARTCHAR Ncaron.v
ENCODING 57784
SWIDTH 1000 0
DWIDTH 10 0
BBX 8 12 1 -2
BITMAP
00220120
07812120
0DE73530
0936C822
9A226712
BA211212
BA201112
BA228122
BA22F422
BA02F702
BFE4EFD3
13102310
ENDCHAR
STARTCHAR Ograve.v
ENCODING 57785
SWIDTH 1000 0
DWIDTH 10 0
BBX 8 12 1 -2
BITMAP
00121000
05812320
0DD75430
08821231
28121112
A911E612
C912D712
C911D612
CA113122
AF512121
3EFEDC40
01454100
ENDCHAR
STARTCHAR Oacute.v
ENCODING 57786
SWIDTH 1000 0
DWIDTH 10 0
BBX 8 12 1 -2
BITMAP
00001210
01522120
0B935740
0C821221
29121112
A911E612
C912D712
C911D612
CA113122
AF512121
3EFEDC40
01454100
ENDCHAR
STARTCHAR Ocircumflex.v
ENCODING 57787
SWIDTH 1000 0
DWIDTH 10 0
BBX 8 12 1 -2
BITMAP
00011100
01512220
0B958630
0C821231
29121112
A911E612
C912D712
C911D612
CA113122
AF512121
3EFEDC40
01454100
ENDCHAR
STARTCHAR Otilde.v
ENCODING 57788
SWIDTH 1000 0
DWIDTH 10 0
BBX 8 12 1 -2
BITMAP
00010000
01513220
0BA44330
0C821231
29121112
A911E612
C912D712
C911D612
CA113122
AF512121
3EFEDC40
01454100
ENDCHAR
STARTCHAR Odieresis.v
ENCODING 57789
SWIDTH 1000 0
DWIDTH 10 0
BBX 8 12 1 -2
BITMAP
00121210
06417111
1F73A340
1F821231
29121112
A911E612
C912D712
C911D612
CA113122
AF512121
3EFEDC40
01454100
ENDCHAR
STARTCHAR Omacron.v
ENCODING 57790
SWIDTH 1000 0
DWIDTH 10 0
BBX 8 11 1 -2
BITMAP
01623220
0BA34330
0C821231
29121112
A911E612
C912D712
C911D612
CA113122
AF512121
3EFEDC40
01454100
ENDCHAR
STARTCHAR Obreve.v
ENCODING 57791
SWIDTH 1000 0
DWIDTH 10 0
BBX 8 12 1 -2
BITMAP
00211220
07824220
0DD54420
08821121
29121112
A911E612
C912D712
C911D612
CA113122
AF512121
3EFEDC40
01454100
ENDCHAR
STARTCHAR Ohungarumlaut.v
ENCODING 57792
SWIDTH 1000 0
DWIDTH 10 0
BBX 8 13 1 -2
BITMAP
00010010
00713612
06B18522
0AA3C530
0C821231
29121112
A911E612
C912D712
C911D612
CA113122
AF512121
3EFEDC40
01454100
ENDCHAR
STARTCHAR Racute.v
ENCODING 57793
SWIDTH 1000 0
DWIDTH 10 0
BBX 8 12 1 -2
BITMAP
00001210
02422110
0D735730
1B333320
9A222202
BA11E021
BA224222
BA100021
BA11F711
BA02E802
BFE5DFE3
13102310
ENDCHAR
STARTCHAR Rcommaaccent.v
ENCODING 57794
SWIDTH 1000 0
DWIDTH 10 0
BBX 8 13 1 -5
BITMAP
01111110
39111111
BA115111
BA11B021
BA211212
BA116211
BA11F711
BC65DB64
8CC73590
00DA3300
00CB3300
00BF8000
00110000
ENDCHAR
STARTCHAR Rcaron.v
ENCODING 57795
SWIDTH 1000 0
DWIDTH 10 0
BBX 8 12 1 -2
BITMAP
00220120
07812120
0DE73530
09333320
9A222202
BA11E021
BA224222
BA100021
BA11F711
BA02E802
BFE5DFE3
13102310
ENDCHAR
STARTCHAR Sacute.v
ENCODING 57796
SWIDTH 1000 0
DWIDTH 10 0
BBX 8 12 1 -2
BITMAP
00001210
01522120
0B935740
0C843322
29122212
9A209AA1
BC022112
AFB76212
2B333122
9A111121
BFFFFD30
13332000
ENDCHAR
STARTCHAR Scircumflex.v
ENCODING 57797
SWIDTH 1000 0
DWIDTH 10 0
BBX 8 12 1 -2
BITMAP
00011100
01512220
0B958630
0C843322
29122212
9A209AA1
BC022112
AFB76212
2B333122
9A111121
BFFFFD30
13332000
ENDCHAR
STARTCHAR Scedilla.v
ENCODING 57798
SWIDTH 1000 0
DWIDTH 10 0
BBX 8 11 1 -3
BITMAP
00111111
03111111
5A206662
AA113441
BE211112
7ECA9312
39122212
BC621451
8CF42600
04FE4000
00100000
ENDCHAR
STARTCHAR Scaron.v
ENCODING 57799
SWIDTH 1000 0
DWIDTH 10 0
BBX 8 12 1 -2
BITMAP
00220120
07812120
0DE73530
07843322
29122212
9A209AA1
BC022112
AFB76212
2B333122
9A111121
BFFFFD30
13332000
ENDCHAR
STARTCHAR Scommaaccent.v
ENCODING 57800
SWIDTH 1000 0
DWIDTH 10 0
BBX 8 13 1 -5
BITMAP
00111111
03111111
5A206662
AA113441
BE211112
7ECA9312
39122212
BC666651
8CD93400
00DA3300
00CB3300
00BF8000
00110000
ENDCHAR
STARTCHAR Tcommaaccent.v
ENCODING 57801
SWIDTH 1000 0
DWIDTH 10 0
BBX 8 12 1 -4
BITMAP
01111111
39112111
BC422143
9EF722A0
00E72200
00E71200
00E93400
00D93300
00DA3300
00CA3300
00BF8000
00110000
ENDCHAR
STARTCHAR Tcaron.v
ENCODING 57802
SWIDTH 1000 0
DWIDTH 10 0
BBX 8 12 1 -2
BITMAP
00220120
07812120
0DE73530
09333322
9A123211
BFD622C3
35E72220
00E72200
00E72200
00E70200
00EFE400
00231000
ENDCHAR
STARTCHAR Ugrave.v
ENCODING 57803
SWIDTH 1000 0
DWIDTH 10 0
BBX 8 12 1 -2
BITMAP
00121000
05812320
0DD75430
0934F822
9A11E611
BA11F611
BA11F611
BA11F611
BB112111
AF511121
3EFEDC30
01454000
ENDCHAR
STARTCHAR Uacute.v
ENCODING 57804
SWIDTH 1000 0
DWIDTH 10 0
BBX 8 12 1 -2
BITMAP
00001220
00522211
08C35650
0834D822
9A11E611
BA11F611
BA11F611
BA11F611
BB112111
AF511121
3EFEDC30
01454000
ENDCHAR
STARTCHAR Ucircumflex.v
ENCODING 57805
SWIDTH 1000 0
DWIDTH 10 0
BBX 8 12 1 -2
BITMAP
00011100
01512220
0B958630
0A34E822
9A11E611
BA11F611
BA11F611
BA11F611
BB112111
AF511121
3EFEDC30
01454000
ENDCHAR
STARTCHAR Udieresis.v
ENCODING 57806
SWIDTH 1000 0
DWIDTH 10 0
BBX 8 12 1 -2
BITMAP
00121210
06417111
1F73A330
1B34F822
9A11E611
BA11F611
BA11F611
BA11F611
BB112111
AF511121
3EFEDC30
01454000
ENDCHAR
STARTCHAR Utilde.v
ENCODING 57807
SWIDTH 1000 0
DWIDTH 10 0
BBX 8 12 1 -2
BITMAP
00010000
01513220
0BA44330
0A34F822
9A11E611
BA11F611
BA11F611
BA11F611
BB112111
AF511121
3EFEDC30
01454000
ENDCHAR
STARTCHAR Umacron.v
ENCODING 57808
SWIDTH 1000 0
DWIDTH 10 0
BBX 8 11 1 -2
BITMAP
01623220
0BA34330
0A34F822
9A11E611
BA11F611
BA11F611
BA11F611
BB112111
AF511121
3EFEDC30
01454000
ENDCHAR
STARTCHAR Ubreve.v
ENCODING 57809
SWIDTH 1000 0
DWIDTH 10 0
BBX 8 12 1 -2
BITMAP
00211220
07824220
0DD54420
0934F822
9A11E611
BA11F611
BA11F611
BA11F611
BB112111
AF511121
3EFEDC30
01454000
ENDCHAR
STARTCHAR Uring.v
ENCODING 57810
SWIDTH 1000 0
DWIDTH 10 0
BBX 8 14 1 -2
BITMAP
00001000
00322320
07728320
0D826320
0DD54420
0934F822
9A11E611
BA11F611
BA11F611
BA11F611
BB112111
AF511121
3EFEDC30
01454000
ENDCHAR
STARTCHAR Uhungarumlaut.v
ENCODING 57811
SWIDTH 1000 0
DWIDTH 10 0
BBX 8 13 1 -2
BITMAP
00010010
00713612
05B18522
09A3C530
0A34F822
9A11E611
BA11F611
BA11F611
BA11F611
BB112111
AF511121
3EFEDC30
01454000
ENDCHAR
STARTCHAR Uogonek.v
ENCODING 57812
SWIDTH 1000 0
DWIDTH 10 0
BBX 8 11 1 -3
BITMAP
01110111
39017601
BA11F611
BA11F611
BA11F611
BA10B411
BC022211
8FB42351
19E91120
00CE8610
005A9100
ENDCHAR
STARTCHAR Wcircumflex.v
ENCODING 57813
SWIDTH 1000 0
DWIDTH 10 0
BBX 8 12 1 -2
BITMAP
00011100
01512220
0B958630
1837DE32
D7126D11
E7132722
E7111122
E8211112
DB228221
BE11D512
7FF7FF90
03202200
ENDCHAR
STARTCHAR Wgrave.v
ENCODING 57814
SWIDTH 1000 0
DWIDTH 10 0
BBX 8 12 1 -2
BITMAP
00121000
05812320
0DD75430
1738FE22
D7127D11
E7132722
E7111122
E8211112
DB228221
BE11D512
7FF7FF90
03202200
ENDCHAR
STARTCHAR Wacute.v
ENCODING 57815
SWIDTH 1000 0
DWIDTH 10 0
BBX 8 12 1 -2
BITMAP
00001210
00522110
09B35750
1737BD22
D7126D11
E7132722
E7111122
E8211112
DB228221
BE11D512
7FF7FF90
03202200
ENDCHAR
STARTCHAR Wdieresis.v
ENCODING 57816
SWIDTH 1000 0
DWIDTH 10 0
BBX 8 12 1 -2
BITMAP
00121220
04517001
0F83A331
2938FE32
D7126D11
E7132722
E7111122
E8211112
DB228221
BE11D512
7FF7FF90
03202200
ENDCHAR
STARTCHAR Yacute.v
ENCODING 57817
SWIDTH 1000 0
DWIDTH 10 0
BBX 8 12 1 -2
BITMAP
00001220
00522211
08C35650
0835C922
AA11C712
BA11D422
BE221112
5FC12120
0AF62110
01E80200
00DFE400
00231000
ENDCHAR
STARTCHAR Ycircumflex.v
ENCODING 57818
SWIDTH 1000 0
DWIDTH 10 0
BBX 8 12 1 -2
BITMAP
00011100
01512220
0B958630
0A35D922
AA11C712
BA11D422
BE221112
5FC12120
0AF62110
01E80200
00DFE400
00231000
ENDCHAR
STARTCHAR Ydieresis.v
ENCODING 57819
SWIDTH 1000 0
DWIDTH 10 0
BBX 8 12 1 -2
BITMAP
00121220
05517001
0F83A331
1B35F932
AA11C712
BA11D422
BE221112
5FC12120
0AF62110
01E80200
00DFE400
00231000
ENDCHAR
STARTCHAR Ygrave.v
ENCODING 57820
SWIDTH 1000 0
DWIDTH 10 0
BBX 8 12 1 -2
BITMAP
00121000
05812320
0DD75430
0935F922
AA11C712
BA11D422
BE221112
5FC12120
0AF62110
01E80200
00DFE400
00231000
ENDCHAR
STARTCHAR Zacute.v
ENCODING 57821
SWIDTH 1000 0
DWIDTH 10 0
BBX 8 12 1 -2
BITMAP
00001220
00522211
08C35650
09333322
8B122222
AFDD4112
25642120
02221200
49200112
BA011112
BFFFFFD2
13333310
ENDCHAR
STARTCHAR Zdotaccent.v
ENCODING 57822
SWIDTH 1000 0
DWIDTH 10 0
BBX 8 12 1 -2
BITMAP
00012100
00571100
00DA3300
06333222
8B122222
AFDD4112
25642120
02221200
49200112
BA011112
BFFFFFD2
13333310
ENDCHAR
STARTCHAR Zcaron.v
ENCODING 57823
SWIDTH 1000 0
DWIDTH 10 0
BBX 8 12 1 -2
BITMAP
00220120
07912210
0CE73530
09333322
8B122222
AFDD4112
25642120
02221200
49200112
BA011112
BFFFFFD2
13333310
ENDCHAR
STARTCHAR AE.v
ENCODING 57824
SWIDTH 1000 0
DWIDTH 10 0
BBX 9 10 0 -2
BITMAP
0001111110
0035112110
00D1211340
04A2351430
0A61322110
0F52222740
1F51741120
1F60A61120
1FFBFFFE30
0230233100
ENDCHAR
STARTCHAR Eth.v
ENCODING 57825
SWIDTH 1000 0
DWIDTH 10 0
BBX 9 10 0 -2
BITMAP
0011112100
0391112120
0BA1041210
0B611B6110
2E13156110
5F711C6110
2DA1021110
0BA0111310
0BFFFFC200
0133320000
ENDCHAR
STARTCHAR Oslash.v
ENCODING 57826
SWIDTH 1000 0
DWIDTH 10 0
BBX 8 10 1 -2
BITMAP
00122312
03112312
5A115221
BA146111
BA132511
BA104911
BB122221
BF222121
5F56DC30
4DB54000
ENDCHAR
STARTCHAR Thorn.v
ENCODING 57827
SWIDTH 1000 0
DWIDTH 10 0
BBX 8 10 1 -2
BITMAP
01110000
39012110
BA211112
BA204121
BA21F721
BA202121
BA212231
BA01FC30
BFE51000
13200000
ENDCHAR
STARTCHAR Dcroat.v
ENCODING 57828
SWIDTH 1000 0
DWIDTH 10 0
BBX 9 10 0 -2
BITMAP
0011112100
0391112120
0BA1041210
0B611B6110
2E13156110
5F711C6110
2DA1021110
0BA0111310
0BFFFFC200
0133320000
ENDCHAR
STARTCHAR Hbar.v
ENCODING 57829
SWIDTH 1000 0
DWIDTH 10 0
BBX 10 10 0 -2
BITMAP
0011101110
0480266010
0B33222311
3F52042111
3FA2183110
0BA2111210
0BA2173110
0BA02F7020
0BFE5FFD20
0231023100
ENDCHAR
STARTCHAR IJ.v
ENCODING 57830
SWIDTH 1000 0
DWIDTH 10 0
BBX 8 10 1 -2
BITMAP
01110111
39017501
BA21F621
BA11F621
BC44F621
9DC2F521
17111121
AA111121
BFFFFC20
13332000
ENDCHAR
STARTCHAR Ldot.v
ENCODING 57831
SWIDTH 1000 0
DWIDTH 10 0
BBX 8 12 1 -4
BITMAP
01110000
39010000
BA110000
BA110111
BA115701
BA119521
BA122221
BC666663
8CCC3480
009A1110
00BEC600
00364000
ENDCHAR
STARTCHAR Lslash.v
ENCODING 57832
SWIDTH 1000 0
DWIDTH 10 0
BBX 9 10 0 -2
BITMAP
0011100000
0390100000
0BA1120000
0B71101000
0D53146120
1F911F7220
0CA1021220
0BA0111120
0BFFFFFD30
0133333100
ENDCHAR
STARTCHAR Eng.v
ENCODING 57833
SWIDTH 1000 0
DWIDTH 10 0
BBX 8 11 1 -3
BITMAP
00022200
02222221
3A102021
AA11F511
BA12F511
BA12F511
BA12F511
BA026111
BFEF7231
132FFB20
00010000
ENDCHAR
STARTCHAR OE.v
ENCODING 57834
SWIDTH 1000 0
DWIDTH 10 0
BBX 8 10 1 -2
BITMAP
00111111
04111211
77222224
D7287243
E7287222
E7287265
E8211212
CE411112
4EFFFFE4
00233310
ENDCHAR
STARTCHAR Tbar.v
ENCODING 57835
SWIDTH 1000 0
DWIDTH 10 0
BBX 8 9 1 -1
BITMAP
16222222
AA112111
BEC622B3
47A42250
0A513110
1FB42260
0AF71200
00EA4400
00DFC200
ENDCHAR
STARTCHAR Germandbls.v
ENCODING 57836
SWIDTH 1000 0
DWIDTH 10 0
BBX 8 10 1 -2
BITMAP
01111110
39111111
BA204101
BA21B211
BA219111
BA21E711
BA218121
BA027122
BFFFFE50
13223100
ENDCHAR
STARTCHAR A.salt_v
ENCODING 57837
SWIDTH 1000 0
DWIDTH 10 0
BBX 8 10 1 -2
BITMAP
00111110
04122212
5A116221
AA12F611
BA115211
BA222221
BA12D511
BA02F702
BFE4EFD2
13102310
ENDCHAR
STARTCHAR Agrave.salt_v
ENCODING 57838
SWIDTH 1000 0
DWIDTH 10 0
BBX 8 12 1 -2
BITMAP
00121000
05812320
0DD75430
08821221
29122212
9A12F612
BA118312
BA211122
BA12A412
BA02F702
BFE4EFD3
23102310
ENDCHAR
STARTCHAR Aacute.salt_v
ENCODING 57839
SWIDTH 1000 0
DWIDTH 10 0
BBX 8 12 1 -2
BITMAP
00001210
01522120
0B935740
0C821211
29122212
9A12F612
BA118312
BA211122
BA12A412
BA02F702
BFE4EFD3
23102310
ENDCHAR
STARTCHAR Acircumflex.salt_v
ENCODING 57840
SWIDTH 1000 0
DWIDTH 10 0
BBX 8 12 1 -2
BITMAP
00011100
01512220
0B958630
0C821231
29122212
9A12F612
BA118312
BA211122
BA12A412
BA02F702
BFE4EFD3
23102310
ENDCHAR
STARTCHAR Atilde.salt_v
ENCODING 57841
SWIDTH 1000 0
DWIDTH 10 0
BBX 8 12 1 -2
BITMAP
00010000
01513220
0BA44330
0C821221
29122212
9A12F612
BA118312
BA211122
BA12A412
BA02F702
BFE4EFD3
23102310
ENDCHAR
STARTCHAR Adieresis.salt_v
ENCODING 57842
SWIDTH 1000 0
DWIDTH 10 0
BBX 8 12 1 -2
BITMAP
00121210
06417111
1F73A340
1F821231
29122212
9A12F612
BA118312
BA211122
BA12A412
BA02F702
BFE4EFD3
23102310
ENDCHAR
STARTCHAR Aring.salt_v
ENCODING 57843
SWIDTH 1000 0
DWIDTH 10 0
BBX 8 12 1 -2
BITMAP
00022210
01521220
0B72D320
0E524211
2B122211
9A12F511
BA118311
BA211121
BA12A411
BA02F702
BFE4FFD2
13102310
ENDCHAR
STARTCHAR Amacron.salt_v
ENCODING 57844
SWIDTH 1000 0
DWIDTH 10 0
BBX 8 11 1 -2
BITMAP
01623220
0BA34330
0C821221
29122212
9A12F612
BA118312
BA211122
BA12A412
BA02F702
BFE4EFD3
23102310
ENDCHAR
STARTCHAR Abreve.salt_v
ENCODING 57845
SWIDTH 1000 0
DWIDTH 10 0
BBX 8 12 1 -2
BITMAP
00211220
07824220
0DD54420
08821111
29122212
9A12F612
BA118312
BA211122
BA12A412
BA02F702
BFE4EFD3
23102310
ENDCHAR
STARTCHAR Aogonek.salt_v
ENCODING 57846
SWIDTH 1000 0
DWIDTH 10 0
BBX 8 11 1 -4
BITMAP
01111121
29122212
9A12F612
BA118312
BA211122
BA12A412
BA02F622
BFE4F424
2312F733
0001EFC2
00000100
ENDCHAR
STARTCHAR E.salt_v
ENCODING 57847
SWIDTH 1000 0
DWIDTH 10 0
BBX 8 10 1 -2
BITMAP
00011111
03111111
4A114553
B9117770
C9211110
C911BB40
CB111212
9F511112
2DFFFFC2
00233310
ENDCHAR
STARTCHAR Egrave.salt_v
ENCODING 57848
SWIDTH 1000 0
DWIDTH 10 0
BBX 8 12 1 -2
BITMAP
00121000
05812320
0DD75430
08943322
19122212
9911AAA2
C9211120
C9119940
CB112222
AF511112
3DFFFFC2
00233300
ENDCHAR
STARTCHAR Eacute.salt_v
ENCODING 57849
SWIDTH 1000 0
DWIDTH 10 0
BBX 8 12 1 -2
BITMAP
00001210
01522120
0B935740
0C943322
19122212
9911AAA2
C9211120
C9119940
CB112222
AF511112
3DFFFFC2
00233300
ENDCHAR
STARTCHAR Ecircumflex.salt_v
ENCODING 57850
SWIDTH 1000 0
DWIDTH 10 0
BBX 8 12 1 -2
BITMAP
00011100
01512220
0B958630
0C943322
19122212
9911AAA2
C9211120
C9119940
CB112222
AF511112
3DFFFFC2
00233300
ENDCHAR
STARTCHAR Edieresis.salt_v
ENCODING 57851
SWIDTH 1000 0
DWIDTH 10 0
BBX 8 12 1 -2
BITMAP
00121210
06417111
1F73A330
1F943322
19122212
9921AAA2
B9211110
C9219940
BB112222
AF611112
3DFFFFC2
00233310
ENDCHAR
STARTCHAR Emacron.salt_v
ENCODING 57852
SWIDTH 1000 0
DWIDTH 10 0
BBX 8 11 1 -2
BITMAP
01623220
0BA34330
0C943322
19122212
9911AAA2
C9211120
C9119940
CB112222
AF511112
3DFFFFC2
00233300
ENDCHAR
STARTCHAR Ebreve.salt_v
ENCODING 57853
SWIDTH 1000 0
DWIDTH 10 0
BBX 8 12 1 -2
BITMAP
00211220
07824220
0DD54420
08943322
19122212
9911AAA2
C9211120
C9119940
CB112222
AF511112
3DFFFFC2
00233300
ENDCHAR
STARTCHAR Edotaccent.salt_v
ENCODING 57854
SWIDTH 1000 0
DWIDTH 10 0
BBX 8 12 1 -2
BITMAP
00012100
00571100
00DA3300
01743222
19122212
9911AAA2
C9211120
C9119940
CB112222
AF511112
3DFFFFC2
00233300
ENDCHAR
STARTCHAR Eogonek.salt_v
ENCODING 57855
SWIDTH 1000 0
DWIDTH 10 0
BBX 8 11 1 -3
BITMAP
00011111
03111112
4A115553
B9115560
C9212120
C911BB51
BC022222
8FB76123
07BDF212
0004FB83
00019A50
ENDCHAR
STARTCHAR Ecaron.salt_v
ENCODING 57856
SWIDTH 1000 0
DWIDTH 10 0
BBX 8 12 1 -2
BITMAP
00220120
07812120
0DE73530
06943322
19122212
9911AAA2
C9211120
C9119940
CB112222
AF511112
3DFFFFC2
00233300
ENDCHAR
STARTCHAR I.salt_v
ENCODING 57857
SWIDTH 1000 0
DWIDTH 10 0
BBX 4 10 3 -2
BITMAP
0111
5702
E722
E722
E722
E722
E722
E802
DFE4
2310
ENDCHAR
STARTCHAR I_I.salt_v
ENCODING 57858
SWIDTH 1000 0
DWIDTH 10 0
BBX 8 10 1 -2
BITMAP
01110111
39017501
BA21F621
BA21F621
BA21F621
BA21F621
BA21F621
BA02F602
BFE5FFD2
13202310
ENDCHAR
STARTCHAR Igrave.salt_v
ENCODING 57859
SWIDTH 1000 0
DWIDTH 10 0
BBX 6 12 2 -2
BITMAP
012100
581232
DD7543
7C9352
0C7120
0E7220
0E7220
0E7220
0E7220
0E8020
0DFE40
023100
ENDCHAR
STARTCHAR Iacute.salt_v
ENCODING 57860
SWIDTH 1000 0
DWIDTH 10 0
BBX 6 12 2 -2
BITMAP
000121
152212
B93574
CF9340
0C7120
0E7220
0E7220
0E7220
0E7220
0E8020
0DFE40
023100
ENDCHAR
STARTCHAR Icircumflex.salt_v
ENCODING 57861
SWIDTH 1000 0
DWIDTH 10 0
BBX 6 12 2 -2
BITMAP
001110
151222
B95863
CD9353
0C7120
0E7220
0E7220
0E7220
0E7220
0E8020
0DFE40
023100
ENDCHAR
STARTCHAR Idieresis.salt_v
ENCODING 57862
SWIDTH 1000 0
DWIDTH 10 0
BBX 8 12 1 -2
BITMAP
00121210
06417111
1F73A330
1EF93530
00C71200
00E72200
00E72200
00E72200
00E72200
00E80200
00DFE400
00231000
ENDCHAR
STARTCHAR Itilde.salt_v
ENCODING 57863
SWIDTH 1000 0
DWIDTH 10 0
BBX 6 12 2 -2
BITMAP
001000
151322
BA4433
CE9351
0C7120
0E7220
0E7220
0E7220
0E7220
0E8020
0DFE40
023100
ENDCHAR
STARTCHAR Imacron.salt_v
ENCODING 57864
SWIDTH 1000 0
DWIDTH 10 0
BBX 6 11 2 -2
BITMAP
162322
BA3433
CF9351
0C7120
0E7220
0E7220
0E7220
0E7220
0E8020
0DFE40
023100
ENDCHAR
STARTCHAR Ibreve.salt_v
ENCODING 57865
SWIDTH 1000 0
DWIDTH 10 0
BBX 6 12 2 -2
BITMAP
021122
782422
DD5442
7E9340
0C7120
0E7220
0E7220
0E7220
0E7220
0E8020
0DFE40
023100
ENDCHAR
STARTCHAR Iogonek.salt_v
ENCODING 57866
SWIDTH 1000 0
DWIDTH 10 0
BBX 4 11 3 -4
BITMAP
1523
B812
C812
C812
C812
C812
C822
C625
F933
DFD3
0100
ENDCHAR
STARTCHAR Idotaccent.salt_v
ENCODING 57867
SWIDTH 1000 0
DWIDTH 10 0
BBX 4 12 3 -2
BITMAP
0121
5711
DA33
C933
C712
E722
E722
E722
E722
E802
DFE4
2310
ENDCHAR
STARTCHAR L.salt_v
ENCODING 57868
SWIDTH 1000 0
DWIDTH 10 0
BBX 8 10 1 -2
BITMAP
01110000
39010000
BA110000
BA110000
BA110000
BA111000
BA101112
BA011112
BFFFFFC2
13333310
ENDCHAR
STARTCHAR Lacute.salt_v
ENCODING 57869
SWIDTH 1000 0
DWIDTH 10 0
BBX 8 12 1 -2
BITMAP
00012100
05221100
9B357500
BB347000
AA110000
BA110000
BA110000
BA111000
BA101112
BA011112
BFFFFFC2
13333310
ENDCHAR
STARTCHAR Lcommaaccent.salt_v
ENCODING 57870
SWIDTH 1000 0
DWIDTH 10 0
BBX 8 13 1 -5
BITMAP
01110000
39010000
BA110000
BA110000
BA110000
BA112221
BA122211
BC666663
8CD93570
00DA3300
00CB3300
00BF8000
00110000
ENDCHAR
STARTCHAR Lcaron.salt_v
ENCODING 57871
SWIDTH 1000 0
DWIDTH 10 0
BBX 9 10 1 -2
BITMAP
0111001110
3901083020
BA113F1110
BA116F8500
BA114A8000
BA11100000
BA10111200
BA01111200
BFFFFFC200
1333331000
ENDCHAR
STARTCHAR Ldot.salt_v
ENCODING 57872
SWIDTH 1000 0
DWIDTH 10 0
BBX 8 12 1 -4
BITMAP
01110000
39010000
BA110000
BA110000
BA110000
BA112221
BA122211
BC666663
8CE43A70
04F01200
06FC9100
01661000
ENDCHAR
STARTCHAR Lslash.salt_v
ENCODING 57873
SWIDTH 1000 0
DWIDTH 10 0
BBX 9 10 0 -2
BITMAP
0011100000
0390100000
0BA1120000
0B41110000
3E13040000
5F91120000
1CA1011120
0BA0111120
0BFFFFFC20
0133333100
ENDCHAR
STARTCHAR L.salt_s_v
ENCODING 57874
SWIDTH 1000 0
DWIDTH 10 0
BBX 8 9 1 -2
BITMAP
06220000
9A110000
BA110000
BA110000
BA111000
BA101112
BA011112
BFFFFFC2
13333310
ENDCHAR
STARTCHAR M.salt_v
ENCODING 57875
SWIDTH 1000 0
DWIDTH 10 0
BBX 10 10 0 -2
BITMAP
0002212210
0241212210
0D32332122
3F21A26322
4F21A26422
4F21A26422
4F21A26422
4F30A07402
3FFEFDFF80
0321313200
ENDCHAR
STARTCHAR N.salt_v
ENCODING 57876
SWIDTH 1000 0
DWIDTH 10 0
BBX 8 10 1 -2
BITMAP
00111110
04112202
5A116121
AA12F511
BA12F511
BA12F511
BA12F511
BA02F602
BFE5FFD2
13102310
ENDCHAR
STARTCHAR Ntilde.salt_v
ENCODING 57877
SWIDTH 1000 0
DWIDTH 10 0
BBX 8 12 1 -2
BITMAP
00010000
01513220
0BA44330
0C821221
29121112
9A11E411
BA12F511
BA12F511
BA12F511
BA02F602
BFE5FFD2
13102310
ENDCHAR
STARTCHAR Nacute.salt_v
ENCODING 57878
SWIDTH 1000 0
DWIDTH 10 0
BBX 8 12 1 -2
BITMAP
00001210
01522120
0B935740
0C821211
29121112
9A11E411
BA12F511
BA12F511
BA12F511
BA02F602
BFE5FFD2
13102310
ENDCHAR
STARTCHAR Ncommaaccent.salt_v
ENCODING 57879
SWIDTH 1000 0
DWIDTH 10 0
BBX 8 12 1 -4
BITMAP
00011110
03112212
4A104121
AA12F511
BA12F511
BA12F511
BB34F833
AFF935B1
00DA3300
00CB3300
00BF8000
00110000
ENDCHAR
STARTCHAR Ncaron.salt_v
ENCODING 57880
SWIDTH 1000 0
DWIDTH 10 0
BBX 8 12 1 -2
BITMAP
00220120
07812120
0DE73530
07821111
29121112
9A11E411
BA12F511
BA12F511
BA12F511
BA02F602
BFE5FFD2
13102310
ENDCHAR
STARTCHAR W.salt_v
ENCODING 57881
SWIDTH 1000 0
DWIDTH 10 0
BBX 10 10 0 -2
BITMAP
0021111110
0920905402
3F21A26422
4F21A26422
4F21A26422
4F21A26322
3F32131111
2F91131120
0CFEDFE910
0044144000
ENDCHAR
STARTCHAR Wcircumflex.salt_v
ENCODING 57882
SWIDTH 1000 0
DWIDTH 10 0
BBX 10 12 0 -2
BITMAP
0000111000
0015122200
00B9586300
0453C38621
2F21A16412
4F21A26422
4F21A26422
4F21A26322
4F32131111
3F91131120
0CFEDFE910
0144144000
ENDCHAR
STARTCHAR Wgrave.salt_v
ENCODING 57883
SWIDTH 1000 0
DWIDTH 10 0
BBX 10 12 0 -2
BITMAP
0001210000
0058123200
00DD754300
0453C38621
2F21A16412
4F21A26422
4F21A26422
4F21A26322
4F32131111
3F91131120
0CFEDFE910
0144144000
ENDCHAR
STARTCHAR Wacute.salt_v
ENCODING 57884
SWIDTH 1000 0
DWIDTH 10 0
BBX 10 12 0 -2
BITMAP
0000012100
0015221200
00B9357400
0453C36421
2F21A16412
4F21A26422
4F21A26422
4F21A26322
4F32131111
3F91131120
0CFEDFE910
0144144000
ENDCHAR
STARTCHAR Wdieresis.salt_v
ENCODING 57885
SWIDTH 1000 0
DWIDTH 10 0
BBX 10 12 0 -2
BITMAP
0001212100
0064171110
01F73A3300
0453C38621
2F21A16412
4F21A26422
4F21A26422
4F21A26322
4F32131111
3F91131120
0CFEDFE910
0144144000
ENDCHAR
STARTCHAR X.salt_v
ENCODING 57886
SWIDTH 1100 0
DWIDTH 11 0
BBX 9 10 1 -2
BITMAP
0021111100
0860390110
0FA1381200
0BB1131200
0A22213020
3F12690120
5F129F0120
5F108F0020
5FFA7FF900
0330132000
ENDCHAR
STARTCHAR Y.salt_v
ENCODING 57887
SWIDTH 1000 0
DWIDTH 10 0
BBX 8 10 1 -2
BITMAP
01110111
39017601
BA21F611
BA21F511
BB121111
9F712031
2DF72220
00E80200
00DFE400
00231000
ENDCHAR
STARTCHAR Yacute.salt_v
ENCODING 57888
SWIDTH 1000 0
DWIDTH 10 0
BBX 8 12 1 -2
BITMAP
00001210
01522120
0B935740
0A34C812
9A11E611
BA21F611
BB113121
AF413111
4FF72240
01E80200
00DFE400
00231000
ENDCHAR
STARTCHAR Ycircumflex.salt_v
ENCODING 57889
SWIDTH 1000 0
DWIDTH 10 0
BBX 8 12 1 -2
BITMAP
00011100
01512220
0B958630
0A34E822
9A11E611
BA21F611
BB113121
AF413111
4FF72240
01E80200
00DFE400
00231000
ENDCHAR
STARTCHAR Ydieresis.salt_v
ENCODING 57890
SWIDTH 1000 0
DWIDTH 10 0
BBX 8 12 1 -2
BITMAP
00121210
06417111
1F73A330
1B34F822
9A11E611
BA21F611
BB113121
AF413111
4FF72240
01E80200
00DFE400
00231000
ENDCHAR
STARTCHAR Ygrave.salt_v
ENCODING 57891
SWIDTH 1000 0
DWIDTH 10 0
BBX 8 12 1 -2
BITMAP
00121000
05812320
0DD75430
0934F822
9A11E611
BA21F611
BB113121
AF413111
4FF72240
01E80200
00DFE400
00231000
ENDCHAR
STARTCHAR AE.salt_v
ENCODING 57892
SWIDTH 1000 0
DWIDTH 10 0
BBX 8 10 1 -2
BITMAP
00111111
03111211
77222224
D7287243
E7222222
E7222265
E7276212
E7087112
EFBEFFE4
23023310
ENDCHAR
STARTCHAR IJ.salt_v
ENCODING 57893
SWIDTH 1000 0
DWIDTH 10 0
BBX 8 17 1 -6
BITMAP
00152300
00C81200
00D82200
00D82200
00D82200
00D82200
00D80200
00DFE400
00233522
0000E611
0001F611
1613F611
AA22F511
BB112121
9F511121
3EFEDC30
01454000
ENDCHAR
STARTCHAR IJ.stack_v
ENCODING 57894
SWIDTH 1000 0
DWIDTH 10 0
BBX 8 16 1 -5
BITMAP
17111112
9B013112
AFF622C2
13E72210
00E62111
18123211
9C222222
9FFFFEB2
01116501
0001F511
0123F511
3903F511
BA22D411
BC122212
8FA43341
1AEFE910
ENDCHAR
STARTCHAR commaaccent.v
ENCODING 57895
SWIDTH 1000 0
DWIDTH 10 0
BBX 4 5 3 -5
BITMAP
0312
9823
DC63
AE91
5710
ENDCHAR
STARTCHAR hyphen.v
ENCODING 57896
SWIDTH 1000 0
DWIDTH 10 0
BBX 4 6 3 0
BITMAP
0121
5912
B912
CA02
BFD3
3420
ENDCHAR
STARTCHAR endash.v
ENCODING 57897
SWIDTH 1000 0
DWIDTH 10 0
BBX 4 8 3 -1
BITMAP
0422
8911
C911
C911
C911
C911
CD93
6850
ENDCHAR
STARTCHAR emdash.v
ENCODING 57898
SWIDTH 1000 0
DWIDTH 10 0
BBX 4 12 3 -3
BITMAP
0422
8911
C911
C911
C911
C911
C911
C911
C911
C911
CD93
6850
ENDCHAR
STARTCHAR parenleft.v
ENCODING 57899
SWIDTH 1000 0
DWIDTH 10 0
BBX 12 6 -1 0
BITMAP
000211111200
005111111120
0A5200000111
1F40CFFFF201
2FE83336FE70
043000004300
ENDCHAR
STARTCHAR parenright.v
ENCODING 57900
SWIDTH 1000 0
DWIDTH 10 0
BBX 12 6 -1 0
BITMAP
002110000210
094121117111
2F5211111211
1FC200000020
0AFFEEEEE800
003444442000
ENDCHAR
STARTCHAR bracketleft.v
ENCODING 57901
SWIDTH 1000 0
DWIDTH 10 0
BBX 12 6 -1 0
BITMAP
002111111110
094111111101
2F4100000011
2F40CFFFF201
2FE83336FE70
043000004300
ENDCHAR
STARTCHAR bracketright.v
ENCODING 57902
SWIDTH 1000 0
DWIDTH 10 0
BBX 12 6 -1 0
BITMAP
002110000210
094121117211
2F4211111111
2F4000000001
2FEEEEEEEE70
044444444300
ENDCHAR
STARTCHAR braceleft.v
ENCODING 57903
SWIDTH 1000 0
DWIDTH 10 0
BBX 12 6 -1 0
BITMAP
000002220000
002211211220
056212311210
0E4179DA9111
2FC8858AFB71
188100018700
ENDCHAR
STARTCHAR braceright.v
ENCODING 57904
SWIDTH 1000 0
DWIDTH 10 0
BBX 12 6 -1 0
BITMAP
013210001321
1D4122325112
2F7122122210
0EE753224520
05CEFFACB300
000038200000
ENDCHAR
STARTCHAR quoteleft.v
ENCODING 57905
SWIDTH 1000 0
DWIDTH 10 0
BBX 6 6 2 0
BITMAP
003330
095460
1F4202
2F5111
1FFF60
034200
ENDCHAR
STARTCHAR quoteright.v
ENCODING 57906
SWIDTH 1000 0
DWIDTH 10 0
BBX 6 6 2 0
BITMAP
035221
1E4212
2FB521
1E6220
0EDA20
088200
ENDCHAR
STARTCHAR quotedblleft.v
ENCODING 57907
SWIDTH 1000 0
DWIDTH 10 0
BBX 8 6 1 0
BITMAP
02333332
3A27C153
AA217111
BB118112
BFFEFFD2
24314310
ENDCHAR
STARTCHAR quotedblright.v
ENCODING 57908
SWIDTH 1000 0
DWIDTH 10 0
BBX 8 6 1 0
BITMAP
06226222
9A127121
BE729841
9C11C122
8FCAFC80
49539600
ENDCHAR
STARTCHAR quotesinglbase.v
ENCODING 57909
SWIDTH 1000 0
DWIDTH 10 0
BBX 6 6 2 0
BITMAP
003220
0C4212
2FB512
1E6230
0EEB30
077200
ENDCHAR
STARTCHAR quotedblbase.v
ENCODING 57910
SWIDTH 1000 0
DWIDTH 10 0
BBX 8 6 1 0
BITMAP
06226222
9A127121
BE729841
9C11C122
8FCAFC80
49539600
ENDCHAR
STARTCHAR guilsinglleft.v
ENCODING 57911
SWIDTH 1000 0
DWIDTH 10 0
BBX 8 6 1 0
BITMAP
00221110
02A12210
09825210
0C51A211
1FA8EA71
19939910
ENDCHAR
STARTCHAR guilsinglright.v
ENCODING 57912
SWIDTH 1000 0
DWIDTH 10 0
BBX 8 6 1 0
BITMAP
02313211
1E61A111
1F923110
0DC12120
09F96510
02BCA100
ENDCHAR
STARTCHAR guillemotleft.v
ENCODING 57913
SWIDTH 1000 0
DWIDTH 10 0
BBX 7 9 2 -1
BITMAP
00122000
04111200
4A212200
A6092110
EC887710
7C111200
79242200
C72C5220
FF8FF600
ENDCHAR
STARTCHAR guillemotright.v
ENCODING 57914
SWIDTH 1000 0
DWIDTH 10 0
BBX 8 10 1 -2
BITMAP
00110110
07506211
1F922220
0CE11120
07A7A621
1C618111
1FA21220
0BF41210
05FFE400
00121000
ENDCHAR
STARTCHAR period.v
ENCODING 57915
SWIDTH 1000 0
DWIDTH 10 0
BBX 6 5 2 1
BITMAP
003220
0A4002
2F4202
2F7431
1FFE30
ENDCHAR
STARTCHAR comma.v
ENCODING 57916
SWIDTH 1000 0
DWIDTH 10 0
BBX 6 6 2 0
BITMAP
003220
0C4212
2FB512
1E6230
0EEB30
077200
ENDCHAR
STARTCHAR ellipsis.v
ENCODING 57917
SWIDTH 1000 0
DWIDTH 10 0
BBX 12 5 -1 1
BITMAP
022212221222
5A007400B001
BA019410D011
BC44B744E443
AFF8FFE9FFA0
ENDCHAR
STARTCHAR exclamdown.v
ENCODING 57918
SWIDTH 1000 0
DWIDTH 10 0
BBX 5 9 3 -1
BITMAP
252200
E61110
FDA700
B80100
D71100
E71100
E61100
F84410
EFE300
ENDCHAR
STARTCHAR questiondown.v
ENCODING 57919
SWIDTH 1000 0
DWIDTH 10 0
BBX 8 9 1 -1
BITMAP
00043220
003F2120
004F7430
01101110
1A021340
7C017821
9E021111
8FB54442
1BFFFF80
ENDCHAR
STARTCHAR dagger.v
ENCODING 57920
SWIDTH 1000 0
DWIDTH 10 0
BBX 8 9 1 -1
BITMAP
00372300
02862112
78123222
CA442254
CFFA26D2
22B92210
00B91200
00CA4300
00CFC100
ENDCHAR
STARTCHAR daggerdbl.v
ENCODING 57921
SWIDTH 1000 0
DWIDTH 10 0
BBX 8 9 1 -1
BITMAP
00382311
37123212
CB542255
CFF924E4
27542232
A9123212
CB641264
9BEB46A1
00CFC200
ENDCHAR
STARTCHAR perthousand.v
ENCODING 57922
SWIDTH 1000 0
DWIDTH 10 0
BBX 10 10 0 -2
BITMAP
0011101100
0622261200
8B26232100
AC23121000
9F95212222
29E5133432
0282434442
0A18A23322
6F9DFFFF90
1201313200
ENDCHAR
STARTCHAR ampersand.salt_v
ENCODING 57923
SWIDTH 1000 0
DWIDTH 10 0
BBX 8 12 1 -3
BITMAP
00002200
00180021
01411212
0C422553
1F813770
0C222120
6912BB50
BA212212
BE312312
5FFF21C3
018FF610
00011000
ENDCHAR
STARTCHAR quoteleft.salt_v
ENCODING 57924
SWIDTH 1000 0
DWIDTH 10 0
BBX 4 5 1 1
BITMAP
0011
0533
8A32
BC43
9DA1
ENDCHAR
STARTCHAR quoteright.salt_v
ENCODING 57925
SWIDTH 1000 0
DWIDTH 10 0
BBX 4 4 1 1
BITMAP
1732
AC33
AD42
9E60
ENDCHAR
STARTCHAR A.s_v
ENCODING 57926
SWIDTH 1000 0
DWIDTH 10 0
BBX 8 9 1 -2
BITMAP
00422220
07712210
0D118111
4B109211
9A211121
BA218411
BA02F702
BFE4EFD3
13102310
ENDCHAR
STARTCHAR C.s_v
ENCODING 57927
SWIDTH 1000 0
DWIDTH 10 0
BBX 8 9 1 -2
BITMAP
01222222
19122211
9911DDB2
C9115510
C9111000
CB111112
AF511112
3DFFFFC2
00233310
ENDCHAR
STARTCHAR D.s_v
ENCODING 57928
SWIDTH 1000 0
DWIDTH 10 0
BBX 8 9 1 -2
BITMAP
06222221
9A222212
BA21D521
BA21E721
BA21C621
BA202122
BA011131
BFFFFD30
13332000
ENDCHAR
STARTCHAR E.s_v
ENCODING 57929
SWIDTH 1000 0
DWIDTH 10 0
BBX 8 9 1 -2
BITMAP
06222222
9A222212
BA11AAA2
BA211120
BA119940
BA102222
BA011112
BFFFFFC2
13333300
ENDCHAR
STARTCHAR G.s_v
ENCODING 57930
SWIDTH 1000 0
DWIDTH 10 0
BBX 8 9 1 -2
BITMAP
01222221
18121101
9921DD60
C9225712
C921C611
CA121111
AF511112
3DFFFFD2
00233310
ENDCHAR
STARTCHAR H.s_v
ENCODING 57931
SWIDTH 1000 0
DWIDTH 10 0
BBX 8 9 1 -2
BITMAP
06222522
9A11E611
BA218321
BA222221
BA206221
BA21F621
BA02F602
BFE5FFD2
13202310
ENDCHAR
STARTCHAR I.s_v
ENCODING 57932
SWIDTH 1000 0
DWIDTH 10 0
BBX 8 9 1 -2
BITMAP
06222222
8B123211
AFD622B2
25F72210
00E72100
17112012
9B011112
AFFFFFC2
13333310
ENDCHAR
STARTCHAR J.s_v
ENCODING 57933
SWIDTH 1000 0
DWIDTH 10 0
BBX 8 9 1 -2
BITMAP
00002522
0001E511
0001F511
1614F511
AA23F511
BB112121
AF511121
3EFEDC30
01454000
ENDCHAR
STARTCHAR K.s_v
ENCODING 57934
SWIDTH 1000 0
DWIDTH 10 0
BBX 8 9 1 -2
BITMAP
06223322
9A11A111
BA113221
BA212212
BA117211
BA11F611
BA01F602
BFE5FFD2
13202310
ENDCHAR
STARTCHAR L.s_v
ENCODING 57935
SWIDTH 1000 0
DWIDTH 10 0
BBX 8 9 1 -2
BITMAP
06220000
9A110000
BA110000
BA111522
BA11C711
BA102121
BA011112
BFFFFFD2
13333310
ENDCHAR
STARTCHAR N.s_v
ENCODING 57936
SWIDTH 1000 0
DWIDTH 10 0
BBX 8 9 1 -2
BITMAP
06222522
9A226712
BA211212
BA201112
BA228122
BA22F422
BA02F702
BFE4EFD3
13102310
ENDCHAR
STARTCHAR O.s_v
ENCODING 57937
SWIDTH 1000 0
DWIDTH 10 0
BBX 8 9 1 -2
BITMAP
01211121
29121112
A911E612
C912D712
C911D612
CA113122
AF512121
3EFEDC40
01454100
ENDCHAR
STARTCHAR R.s_v
ENCODING 57938
SWIDTH 1000 0
DWIDTH 10 0
BBX 8 9 1 -2
BITMAP
06222220
9A222201
BA11E021
BA224222
BA100021
BA11F711
BA02E802
BFE5DFE3
13102310
ENDCHAR
STARTCHAR S.s_v
ENCODING 57939
SWIDTH 1000 0
DWIDTH 10 0
BBX 8 9 1 -2
BITMAP
01222222
29122212
9A209AA1
BC022112
AFB76212
2B333122
9A111121
BFFFFD30
13332000
ENDCHAR
STARTCHAR T.s_v
ENCODING 57940
SWIDTH 1000 0
DWIDTH 10 0
BBX 8 9 1 -2
BITMAP
06222222
9A123211
BFD622C3
35E72220
00E72200
00E72200
00E70200
00EFE400
00231000
ENDCHAR
STARTCHAR U.s_v
ENCODING 57941
SWIDTH 1000 0
DWIDTH 10 0
BBX 8 9 1 -2
BITMAP
06222522
9A11E611
BA11F611
BA11F611
BA11F611
BB112111
AF511121
3EFEDC30
01454000
ENDCHAR
STARTCHAR W.s_v
ENCODING 57942
SWIDTH 1000 0
DWIDTH 10 0
BBX 8 9 1 -2
BITMAP
15220622
D7126D11
E7132722
E7111122
E8211112
DB228221
BE11D512
7FF7FF90
03202200
ENDCHAR
STARTCHAR Y.s_v
ENCODING 57943
SWIDTH 1000 0
DWIDTH 10 0
BBX 8 9 1 -2
BITMAP
06221522
AA11C712
BA11D422
BE221112
5FC12120
0AF62110
01E80200
00DFE400
00231000
ENDCHAR
STARTCHAR Z.s_v
ENCODING 57944
SWIDTH 1000 0
DWIDTH 10 0
BBX 8 9 1 -2
BITMAP
06222222
8B122222
AFDD4112
25642120
02221200
49200112
BA011112
BFFFFFD2
13333310
ENDCHAR
STARTCHAR A.salt_s_v
ENCODING 57945
SWIDTH 1000 0
DWIDTH 10 0
BBX 8 9 1 -2
BITMAP
01211121
29122212
9A12F612
BA118312
BA211122
BA12A412
BA02F702
BFE4EFD3
23102310
ENDCHAR
STARTCHAR E.salt_s_v
ENCODING 57946
SWIDTH 1000 0
DWIDTH 10 0
BBX 8 9 1 -2
BITMAP
01222222
19122212
9911AAA2
C9211120
C9119940
CB112222
AF511112
3DFFFFC2
00233300
ENDCHAR
STARTCHAR I.salt_s_v
ENCODING 57947
SWIDTH 1000 0
DWIDTH 10 0
BBX 4 9 3 -2
BITMAP
1523
C712
E722
E722
E722
E722
E802
DFE4
2310
ENDCHAR
STARTCHAR N.salt_s_v
ENCODING 57948
SWIDTH 1000 0
DWIDTH 10 0
BBX 8 9 1 -2
BITMAP
01211121
29121111
9A11E411
BA12F511
BA12F511
BA12F511
BA02F602
BFE5FFD2
13102310
ENDCHAR
STARTCHAR W.salt_s_v
ENCODING 57949
SWIDTH 1000 0
DWIDTH 10 0
BBX 10 9 0 -2
BITMAP
0432624421
2F21A16412
4F21A26422
4F21A26422
4F21A26322
4F32131111
3F91131120
0CFEDFE910
0144144000
ENDCHAR
STARTCHAR Y.salt_s_v
ENCODING 57950
SWIDTH 1000 0
DWIDTH 10 0
BBX 8 9 1 -2
BITMAP
06122512
9A11E611
BA21F611
BB113121
AF413111
4FF72240
01E80200
00DFE400
00231000
ENDCHAR
STARTCHAR uniF6C3
ENCODING 63171
SWIDTH 600 0
DWIDTH 6 0
BBX 4 6 1 -5
BITMAP
0322
7722
E703
CA33
BFB1
5610
ENDCHAR
STARTCHAR fi
ENCODING 64257
SWIDTH 1423 0
DWIDTH 14 0
BBX 14 9 0 -1
BITMAP
07222221722223
7D021108E12222
8D10DF78FF3264
8D1022215F3220
8D1221203F3220
8D10D900392222
8D004003C01212
8E431008E44444
7FE30007FFFFC2
ENDCHAR
STARTCHAR fl
ENCODING 64258
SWIDTH 1513 0
DWIDTH 15 0
BBX 15 9 0 -1
BITMAP
0722222162220000
7D021106F0110000
8D10DF75F0110000
8D102225F0112120
8D122125F017A110
8D10D905F0166110
8D004005F0211210
8E431005F5444440
7FE30005FFFFFC20
ENDCHAR
STARTCHAR exclam.v
ENCODING 65281
SWIDTH 1000 0
DWIDTH 10 0
BBX 5 9 3 -1
BITMAP
352200
E61100
F71100
E71100
E91300
DB8500
B61110
F94400
EFD300
ENDCHAR
STARTCHAR quotedbl.v
ENCODING 65282
SWIDTH 1000 0
DWIDTH 10 0
BBX 8 6 1 0
BITMAP
07227222
6E01A012
7E01B112
7F11C212
6FFCFFB1
13313300
ENDCHAR
STARTCHAR percent.v
ENCODING 65285
SWIDTH 1000 0
DWIDTH 10 0
BBX 8 10 1 -2
BITMAP
00111021
15222612
C7354320
E7331210
DE852222
4AE31232
03726243
0A0AB222
8F8BFFB1
22003300
ENDCHAR
STARTCHAR ampersand.v
ENCODING 65286
SWIDTH 1000 0
DWIDTH 10 0
BBX 9 10 1 -2
BITMAP
0001110000
0141101000
1D32351000
3F62451100
2B12171020
8723CA1120
D821212200
DD31112100
6FFFFE4000
0133310000
ENDCHAR
STARTCHAR quotesingle.v
ENCODING 65287
SWIDTH 1000 0
DWIDTH 10 0
BBX 4 6 3 0
BITMAP
2623
D712
E812
D912
DFE4
2420
ENDCHAR
STARTCHAR asterisk.v
ENCODING 65290
SWIDTH 1000 0
DWIDTH 10 0
BBX 8 8 1 -1
BITMAP
00072200
026C1221
2B022112
7E824274
6CB12230
07A1C331
0DFBFB20
01706000
ENDCHAR
STARTCHAR zero.v
ENCODING 65296
SWIDTH 1000 0
DWIDTH 10 0
BBX 8 10 1 -2
BITMAP
00122210
03112212
5A105121
AA11F611
BA11F611
BA11F611
BB113121
AF512121
3EFEDC30
01454000
ENDCHAR
STARTCHAR one.v
ENCODING 65297
SWIDTH 1000 0
DWIDTH 10 0
BBX 8 10 1 -2
BITMAP
01111100
2A011110
8D421110
7EF91110
00C91110
00C91110
17111012
AA011102
BFFFFFD2
13333310
ENDCHAR
STARTCHAR two.v
ENCODING 65298
SWIDTH 1000 0
DWIDTH 10 0
BBX 8 10 1 -2
BITMAP
01111110
2A011112
8E544111
7ED96121
04121112
5A108A40
AA102212
BA011112
BFFFFFD2
13333310
ENDCHAR
STARTCHAR three.v
ENCODING 65299
SWIDTH 1000 0
DWIDTH 10 0
BBX 8 10 1 -2
BITMAP
01111110
39111120
BC443201
9EB75220
0A711212
0EDBB511
19222121
AA111121
BFFFFE40
13332100
ENDCHAR
STARTCHAR four.v
ENCODING 65300
SWIDTH 1000 0
DWIDTH 10 0
BBX 8 10 1 -2
BITMAP
01110111
39017601
BA21F611
BA21F611
BA203111
BD021121
7FDAA411
0688F602
0000FFD2
00002310
ENDCHAR
STARTCHAR five.v
ENCODING 65301
SWIDTH 1000 0
DWIDTH 10 0
BBX 8 10 1 -2
BITMAP
01111111
39011111
AB104442
AB105551
AB111112
AEBBB411
4A222121
AA111122
BFFFFE40
13332000
ENDCHAR
STARTCHAR six.v
ENCODING 65302
SWIDTH 1000 0
DWIDTH 10 0
BBX 8 10 1 -2
BITMAP
00011120
03121111
4A104440
B9117641
C9221112
C921E521
CA115121
BE412222
3EFEDC30
01454000
ENDCHAR
STARTCHAR seven.v
ENCODING 65303
SWIDTH 1000 0
DWIDTH 10 0
BBX 8 10 1 -2
BITMAP
01111111
39111111
BC444121
9EEEC421
00412211
05A20351
0B921910
0CA01100
0BFF6000
02320000
ENDCHAR
STARTCHAR eight.v
ENCODING 65304
SWIDTH 1000 0
DWIDTH 10 0
BBX 8 10 1 -2
BITMAP
00022210
03311211
2E118212
5F418221
3C132312
7922D622
C9216222
BE411122
5EFEDC50
01454100
ENDCHAR
STARTCHAR nine.v
ENCODING 65305
SWIDTH 1000 0
DWIDTH 10 0
BBX 8 10 1 -2
BITMAP
00111120
03121212
59117321
B911B421
CC021121
AFD99421
1A711122
0E611131
0FFFFD30
02332000
ENDCHAR
STARTCHAR colon.v
ENCODING 65306
SWIDTH 1000 0
DWIDTH 10 0
BBX 6 9 2 -1
BITMAP
003220
0A4002
2F4102
2F8541
1FB840
0A4002
2F4202
2F7431
1FFE30
ENDCHAR
STARTCHAR semicolon.v
ENCODING 65307
SWIDTH 1000 0
DWIDTH 10 0
BBX 6 10 2 -2
BITMAP
001110
074002
1F4102
2F9651
1D8531
1D4212
2F9421
1D7230
0EFA10
033000
ENDCHAR
STARTCHAR question.v
ENCODING 65311
SWIDTH 1000 0
DWIDTH 10 0
BBX 8 9 1 -1
BITMAP
07222221
8D122111
9FEB9111
16A11112
0BD35781
09C66910
09910100
0CB44100
0BFE4000
ENDCHAR
STARTCHAR A.v
ENCODING 65313
SWIDTH 1000 0
DWIDTH 10 0
BBX 8 10 1 -2
BITMAP
00111110
02701110
0A521211
1E11B112
6A206111
AA211122
BA22C512
BA02F702
BFE4FFD3
23102310
ENDCHAR
STARTCHAR B.v
ENCODING 65314
SWIDTH 1000 0
DWIDTH 10 0
BBX 8 10 1 -2
BITMAP
01222210
39111120
BA217201
BA218220
BA211222
BA21D622
BA204222
BA122122
BFFFFE50
13333100
ENDCHAR
STARTCHAR C.v
ENCODING 65315
SWIDTH 1000 0
DWIDTH 10 0
BBX 8 10 1 -2
BITMAP
00011111
03111111
4A104443
B911EE90
C9110000
C9111000
CB111112
AF511112
3DFFFFC2
00233310
ENDCHAR
STARTCHAR D.v
ENCODING 65316
SWIDTH 1000 0
DWIDTH 10 0
BBX 8 10 1 -2
BITMAP
01111210
39111212
BA204121
BA21F621
BA21D721
BA21C621
BA202122
BA011131
BFFFFD30
13332000
ENDCHAR
STARTCHAR E.v
ENCODING 65317
SWIDTH 1000 0
DWIDTH 10 0
BBX 8 10 1 -2
BITMAP
01111111
39111111
BA105553
BA117770
BA211110
BA11BB40
BA102212
BA011112
BFFFFFC2
13333310
ENDCHAR
STARTCHAR F.v
ENCODING 65318
SWIDTH 1000 0
DWIDTH 10 0
BBX 8 10 1 -2
BITMAP
01222221
39111111
BA104443
BA11BB90
BA222110
BA105540
BA11DA10
BA010000
BFE50000
13200000
ENDCHAR
STARTCHAR G.v
ENCODING 65319
SWIDTH 1000 0
DWIDTH 10 0
BBX 8 10 1 -2
BITMAP
00011120
03111101
4A204441
B922EC20
C9212512
C921E611
CA121111
AF511112
3DFFFFD2
00233310
ENDCHAR
STARTCHAR H.v
ENCODING 65320
SWIDTH 1000 0
DWIDTH 10 0
BBX 8 10 1 -2
BITMAP
01110111
39017501
BA21F621
BA205221
BA222221
BA219321
BA21F621
BA02F602
BFE5FFD2
13202310
ENDCHAR
STARTCHAR I.v
ENCODING 65321
SWIDTH 1000 0
DWIDTH 10 0
BBX 8 10 1 -2
BITMAP
01111111
39012111
AC422143
8EF72290
00E72100
00E72100
17112012
9B011112
AFFFFFC2
13333310
ENDCHAR
STARTCHAR J.v
ENCODING 65322
SWIDTH 1000 0
DWIDTH 10 0
BBX 8 10 1 -2
BITMAP
00000111
00007501
0001F511
0001F511
1614F511
AA23F511
BB112121
AF511121
3EFEDC30
01454000
ENDCHAR
STARTCHAR K.v
ENCODING 65323
SWIDTH 1000 0
DWIDTH 10 0
BBX 8 10 1 -2
BITMAP
01110111
39018102
BA119210
BA102211
BA212212
BA11A412
BA11F612
BA01F702
BFE5FFD3
13202310
ENDCHAR
STARTCHAR L.v
ENCODING 65324
SWIDTH 1000 0
DWIDTH 10 0
BBX 8 10 1 -2
BITMAP
01110000
39010000
BA110000
BA110000
BA112612
BA11D722
BA102122
BA011112
BFFFFFD3
13333310
ENDCHAR
STARTCHAR M.v
ENCODING 65325
SWIDTH 1000 0
DWIDTH 10 0
BBX 8 10 1 -2
BITMAP
01110111
57115411
E7227211
E7211111
E7212112
E7165712
E716DA12
E702BA02
EFC1BFE5
23001310
ENDCHAR
STARTCHAR N.v
ENCODING 65326
SWIDTH 1000 0
DWIDTH 10 0
BBX 8 10 1 -2
BITMAP
01110111
39116602
BA223612
BA202112
BA212112
BA22B122
BA22F612
BA02F702
BFE4EFD3
13102310
ENDCHAR
STARTCHAR O.v
ENCODING 65327
SWIDTH 1000 0
DWIDTH 10 0
BBX 8 10 1 -2
BITMAP
00122220
03112212
5A106222
B912F712
C912C712
C911D612
CA113122
AF512121
3EFEDC40
01454100
ENDCHAR
STARTCHAR P.v
ENCODING 65328
SWIDTH 1000 0
DWIDTH 10 0
BBX 8 10 1 -2
BITMAP
01111110
39111112
BA205222
BA21F812
BA203122
BA212231
BA21FD30
BA012000
BFE50000
13200000
ENDCHAR
STARTCHAR Q.v
ENCODING 65329
SWIDTH 1000 0
DWIDTH 10 0
BBX 8 11 1 -3
BITMAP
00122220
03112212
5A105222
B912F712
C912C712
C912D612
CA113122
AF613131
3EF91430
00DFD200
00110000
ENDCHAR
STARTCHAR R.v
ENCODING 65330
SWIDTH 1000 0
DWIDTH 10 0
BBX 8 10 1 -2
BITMAP
01111110
39111111
BA115111
BA11C021
BA211312
BA105211
BA11F711
BA02D802
BFE5DFE3
13102310
ENDCHAR
STARTCHAR S.v
ENCODING 65331
SWIDTH 1000 0
DWIDTH 10 0
BBX 8 10 1 -2
BITMAP
00111111
03111111
5A204442
AA205760
BD122112
8FEB9212
19222122
AA111121
BFFFFD30
13332000
ENDCHAR
STARTCHAR T.v
ENCODING 65332
SWIDTH 1000 0
DWIDTH 10 0
BBX 8 10 1 -2
BITMAP
01111111
39112111
BC422143
9EF722A0
00E72200
00E72200
00E72200
00E70200
00EFE400
00231000
ENDCHAR
STARTCHAR U.v
ENCODING 65333
SWIDTH 1000 0
DWIDTH 10 0
BBX 8 10 1 -2
BITMAP
01110111
39017601
BA11F611
BA11F611
BA11F611
BA11F611
BB112111
AF511121
3EFEDC30
01454000
ENDCHAR
STARTCHAR V.v
ENCODING 65334
SWIDTH 1000 0
DWIDTH 10 0
BBX 8 10 1 -2
BITMAP
01110111
48015602
BA21D712
BA21D712
BB10E512
AF129112
6F620211
1EC01020
0AFFFB10
01333000
ENDCHAR
STARTCHAR W.v
ENCODING 65335
SWIDTH 1000 0
DWIDTH 10 0
BBX 8 10 1 -2
BITMAP
01110111
66022B01
E7128D21
E7132722
E7111122
E8211112
DB228221
BE11D512
7FF7FF90
03202200
ENDCHAR
STARTCHAR X.v
ENCODING 65336
SWIDTH 1100 0
DWIDTH 11 0
BBX 9 10 1 -2
BITMAP
0021101100
09203B0010
3F425A1110
3FB1102200
0BE1221200
0572242110
0D318D0120
3F309E0020
3FFB8FF800
0330132000
ENDCHAR
STARTCHAR Y.v
ENCODING 65337
SWIDTH 1000 0
DWIDTH 10 0
BBX 8 10 1 -2
BITMAP
01110111
48016602
BA11E712
BB11C322
BF321211
4FD13120
09F72100
01E80200
00DFE400
00231000
ENDCHAR
STARTCHAR Z.v
ENCODING 65338
SWIDTH 1000 0
DWIDTH 10 0
BBX 8 10 1 -2
BITMAP
01111111
39111112
AC442022
8EED2211
00422110
04221200
4A201112
BA011112
BFFFFFD2
13333310
ENDCHAR
STARTCHAR uni2B24.salt_v
ENCODING 65339
SWIDTH 1280 0
DWIDTH 13 0
BBX 13 11 0 -2
BITMAP
005DEEEEED3000
02EFFFFFFFC100
09FFFFFFFFF600
1DFFFFFFFFFB00
3EFFFFFFFFFD00
3FFFFFFFFFFD10
3EFFFFFFFFFD00
0DFFFFFFFFFA00
08FFFFFFFFF500
01DFFFFFFFA000
003ABBBBB91000
ENDCHAR
STARTCHAR uni25DD.curve_v
ENCODING 65340
SWIDTH 1280 0
DWIDTH 13 0
BBX 11 11 1 -2
BITMAP
017BDEEEEEA0
1BFFFFFFFFB0
7FFFFFFFFFB0
BFFFFFFFFFB0
DFFFFFFFFFB0
EFFFFFFFFFB0
EFFFFFFFFFB0
EFFFFFFFFFB0
EFFFFFFFFFB0
EFFFFFFFFFB0
ABBBBBBBBB80
ENDCHAR
STARTCHAR uni2B1B.trapezoid_e_v
ENCODING 65341
SWIDTH 1280 0
DWIDTH 13 0
BBX 11 12 1 -2
BITMAP
CA7420000000
EFFFEDA74300
EFFFFFFFFEA0
EFFFFFFFFFB0
EFFFFFFFFFB0
EFFFFFFFFFB0
EFFFFFFFFFB0
EFFFFFFFFFB0
EFFFFFFFFFB0
EFFFFFFFFFB0
EFFFFFFFFFB0
ABBBBBBBBB80
ENDCHAR
ENDFONT
